{"glyphs":{"0":{"ha":797,"x_min":41,"x_max":755,"o":"m 47 342 l 53 345 q 70 349 62 345 q 63 374 63 365 q 64 384 63 376 l 52 377 q 50 406 50 393 q 61 444 50 431 q 88 462 68 453 l 88 467 l 81 475 q 119 547 85 490 q 157 591 145 591 q 168 590 161 591 q 184 606 175 602 l 179 616 q 195 627 189 623 q 248 663 226 651 q 285 684 268 674 l 285 688 l 289 692 l 304 684 q 326 696 321 694 q 375 727 356 712 l 377 725 q 383 724 382 724 l 404 728 l 450 730 l 474 733 l 475 733 q 513 713 480 733 q 531 712 515 712 l 533 710 q 551 681 534 682 q 559 702 553 696 l 618 686 l 615 667 l 636 663 q 674 627 648 647 q 703 585 694 598 l 700 562 q 734 509 719 559 q 743 474 742 490 l 730 471 q 741 454 737 465 l 749 452 q 755 410 755 425 q 754 396 755 402 q 747 360 747 360 l 749 348 l 749 347 q 734 304 746 339 q 705 286 705 302 q 713 264 705 275 q 722 248 722 252 q 709 220 722 246 q 686 163 688 166 q 656 134 684 160 l 637 112 q 564 68 568 74 q 553 48 557 62 l 531 48 q 505 31 523 39 q 473 12 488 22 q 463 12 467 12 q 435 5 458 12 q 433 4 434 4 q 431 4 432 4 q 393 9 402 9 q 377 -2 387 9 q 355 2 361 1 q 292 19 328 7 l 291 16 l 289 14 q 266 20 276 20 l 264 22 l 262 28 l 245 22 q 216 37 233 32 l 216 41 q 203 43 207 41 q 189 58 201 45 q 163 81 172 73 l 151 85 q 143 111 143 100 q 143 120 143 115 q 133 127 138 127 q 119 119 127 127 q 90 153 111 132 q 71 201 86 157 l 59 225 l 55 241 l 50 254 l 47 274 q 41 297 41 294 q 46 318 41 300 l 43 334 q 47 342 43 336 m 201 170 q 197 157 197 161 q 205 138 197 149 q 214 134 208 134 q 233 140 220 134 q 261 121 244 128 q 307 102 292 106 l 218 85 l 303 77 q 328 84 317 83 l 328 85 l 326 87 l 326 91 q 357 77 348 81 q 395 74 364 75 q 427 70 424 70 q 466 81 431 70 q 530 94 523 90 q 561 120 534 96 l 577 131 l 597 156 q 625 183 624 181 q 631 195 627 184 q 638 224 633 202 l 653 234 q 652 250 652 243 q 661 278 652 254 q 661 283 661 280 q 653 304 661 290 q 671 319 665 311 l 655 334 q 658 370 658 353 q 657 402 658 383 q 657 418 657 416 q 653 463 658 463 l 636 503 q 645 529 645 526 q 633 541 645 541 q 615 530 626 541 q 597 557 610 544 q 600 572 600 566 q 593 586 600 577 q 570 581 577 581 q 545 597 556 581 q 546 610 546 605 q 536 625 546 620 q 519 628 534 627 q 506 637 511 629 q 485 648 490 644 q 475 656 475 656 q 443 652 443 652 q 404 657 434 652 q 385 659 393 659 q 323 652 365 659 l 313 644 q 292 638 303 644 q 280 633 288 636 q 224 606 235 616 l 206 587 l 184 570 l 163 532 l 140 508 l 134 490 l 115 454 l 107 410 q 96 367 96 373 q 102 288 96 306 q 139 231 105 277 q 201 170 188 184 z "},"1":{"ha":797,"x_min":285,"x_max":456,"o":"m 456 760 q 454 724 454 749 l 454 715 q 416 669 455 686 l 361 648 l 431 616 q 452 593 435 616 l 450 592 q 433 574 433 591 q 453 550 433 556 q 453 541 453 545 q 440 518 453 527 q 439 499 439 509 q 440 486 439 494 q 438 441 442 469 q 450 405 450 408 q 444 369 450 404 q 443 362 443 366 q 452 329 443 359 q 447 299 448 312 l 440 286 q 446 279 445 280 q 448 241 449 271 q 450 224 448 232 q 451 220 451 221 q 448 208 451 218 q 446 196 446 202 q 446 187 446 192 q 429 164 429 175 q 446 142 429 155 q 446 131 446 134 q 450 85 446 119 l 450 68 q 451 51 451 56 q 452 44 452 45 q 449 37 452 39 q 398 9 444 32 q 357 2 365 2 q 345 8 352 2 q 344 19 344 16 q 346 43 344 22 q 347 65 347 50 l 362 77 q 353 95 361 85 q 351 100 351 97 q 363 125 351 109 q 354 153 354 140 q 356 181 354 174 q 367 207 357 189 q 371 225 371 214 q 364 253 371 228 q 363 260 363 256 q 368 281 363 278 l 378 288 q 384 301 384 292 q 369 341 384 306 q 368 368 368 344 q 370 391 368 375 q 359 416 370 393 q 353 450 353 428 q 364 574 353 465 q 365 596 365 583 q 359 648 365 618 l 337 650 l 334 647 l 288 647 q 285 660 285 652 q 288 673 285 669 q 328 692 290 676 q 351 707 341 697 q 407 755 379 731 q 435 768 422 768 q 456 760 443 768 z "},"2":{"ha":797,"x_min":94,"x_max":717,"o":"m 96 18 q 117 36 109 25 q 146 45 122 43 q 159 74 152 67 q 185 82 165 80 l 190 92 l 203 98 l 198 117 q 261 181 237 153 l 275 196 q 297 229 285 218 q 319 253 302 235 l 334 270 l 342 290 l 356 310 l 365 334 l 370 347 l 376 366 l 384 374 l 416 427 l 453 481 l 458 500 l 467 518 q 470 545 469 523 q 475 576 471 560 q 476 589 476 584 q 467 608 476 591 q 458 635 460 622 l 424 656 l 428 681 q 404 694 418 689 l 400 678 q 270 749 315 749 q 217 718 245 749 q 201 701 205 705 q 187 675 199 699 q 180 671 185 671 q 148 687 178 671 q 159 708 153 699 q 172 728 165 716 l 185 728 l 190 736 q 215 747 202 738 l 232 757 q 256 774 252 772 q 326 786 283 786 q 374 781 347 786 q 392 762 383 762 q 409 777 399 762 q 420 758 416 770 q 431 751 422 751 q 437 751 433 751 l 448 760 q 475 749 468 750 q 499 735 488 745 l 499 727 q 566 675 543 706 q 571 663 572 665 l 572 629 q 577 609 577 610 q 568 584 577 602 l 553 581 q 557 557 557 565 q 552 535 557 545 q 527 500 547 525 q 499 456 520 491 l 458 395 q 435 353 435 353 q 428 350 434 352 q 406 315 421 335 l 391 291 l 375 274 q 321 189 323 198 l 317 189 q 294 152 309 174 q 278 128 280 130 q 265 119 277 126 l 265 102 q 283 101 279 102 q 301 100 296 100 q 317 102 302 100 q 318 102 318 102 q 351 98 319 102 l 377 91 l 420 95 q 458 90 436 90 q 472 89 463 90 q 484 87 479 87 q 503 91 485 87 q 507 91 505 91 q 517 90 511 91 q 551 84 542 84 q 572 88 553 84 l 595 82 l 612 84 l 644 81 q 670 89 649 81 q 694 107 683 93 l 715 101 q 717 84 717 92 q 705 60 717 77 q 686 26 692 43 q 667 24 674 26 q 645 12 658 23 q 614 -5 625 -7 l 614 -5 l 593 -1 l 574 2 q 531 9 547 9 q 509 8 523 9 q 499 8 503 8 q 473 11 493 8 l 452 11 q 428 15 433 14 l 427 15 q 404 13 418 15 q 382 11 388 11 q 363 12 380 11 q 342 14 356 13 l 329 26 l 323 20 l 311 23 l 309 21 l 309 16 l 302 14 l 301 14 q 292 14 299 14 q 283 14 288 14 q 273 14 281 14 q 254 14 267 14 l 254 31 l 231 33 l 231 20 l 227 15 q 214 16 219 16 q 180 6 210 16 q 149 2 176 5 q 115 -1 123 -1 q 94 9 96 -1 q 94 9 94 9 l 96 18 z "},"3":{"ha":797,"x_min":117,"x_max":638,"o":"m 210 784 q 229 781 224 782 q 247 776 245 776 l 263 777 q 308 777 297 777 q 337 771 319 776 l 383 772 l 410 769 q 437 770 431 770 q 490 794 446 770 q 496 779 496 785 q 488 749 496 777 q 484 728 485 730 q 471 702 484 726 q 419 627 457 676 l 376 557 q 358 538 372 553 q 395 529 378 529 q 405 530 400 529 q 420 531 418 531 q 447 526 421 531 q 484 522 477 524 q 505 507 492 518 q 521 506 514 507 q 556 490 526 505 l 598 471 l 626 432 q 638 403 636 421 l 620 384 q 633 368 631 372 q 637 308 637 357 q 630 266 637 295 q 621 218 631 244 q 613 203 616 206 q 599 195 606 199 l 578 152 q 559 120 564 133 q 545 90 550 94 l 522 68 l 515 50 l 483 20 q 451 -20 462 -9 l 451 -28 l 448 -28 q 410 -52 430 -46 q 400 -64 403 -63 l 382 -76 q 373 -84 380 -78 q 288 -128 325 -126 q 262 -160 281 -148 q 250 -165 259 -161 q 213 -178 216 -178 q 190 -166 206 -178 l 161 -168 q 154 -152 154 -159 q 205 -123 154 -130 l 220 -113 l 237 -113 q 283 -92 273 -94 q 300 -89 297 -90 q 318 -77 302 -88 q 337 -66 323 -73 q 378 -38 349 -60 l 382 -37 q 392 -24 391 -25 q 416 -20 397 -21 l 412 -2 q 460 45 434 14 l 465 45 l 469 49 q 465 66 465 59 q 473 80 465 69 l 486 103 q 514 145 510 136 q 528 184 516 151 l 532 201 q 535 219 535 211 l 541 234 l 541 242 l 543 252 q 537 257 543 254 q 536 264 536 262 q 543 294 536 269 q 532 308 532 304 l 528 326 l 518 347 l 582 364 l 551 379 l 540 392 q 518 399 535 397 l 509 399 l 510 410 q 497 459 502 458 q 497 458 497 459 q 484 398 488 435 q 437 429 454 421 q 429 455 435 446 l 425 455 l 415 445 l 407 445 l 398 437 q 374 443 389 443 l 362 444 l 342 443 l 327 446 q 298 446 301 446 q 278 435 291 446 l 250 417 l 233 406 l 214 401 q 188 392 192 392 q 171 394 181 392 q 178 412 176 408 q 193 437 185 433 q 216 443 200 441 q 231 471 224 467 q 258 484 232 471 q 279 503 269 488 q 287 525 282 508 q 303 543 288 532 q 308 574 306 557 q 314 595 310 590 l 336 620 l 346 644 q 365 682 363 680 q 367 698 366 684 q 340 705 355 705 l 310 705 q 295 709 307 705 q 240 714 282 713 l 182 721 l 182 721 q 153 706 175 721 q 133 699 142 699 q 117 712 117 699 q 144 741 117 725 l 158 751 q 196 770 177 760 q 210 784 200 772 z "},"4":{"ha":797,"x_min":1,"x_max":795,"o":"m 1 353 q 9 383 4 374 q 26 396 12 388 l 50 415 l 66 423 l 93 447 l 109 454 l 142 477 l 170 490 l 192 507 q 217 520 209 514 q 243 545 222 524 q 271 559 248 548 l 298 584 l 316 595 l 327 612 l 345 625 l 362 655 l 380 679 q 392 698 391 697 q 404 704 393 699 q 425 728 413 709 q 435 743 425 729 q 459 779 446 754 q 488 797 469 797 q 505 789 496 797 q 504 779 504 783 q 507 768 504 775 q 512 743 511 762 q 515 718 515 722 q 514 704 515 711 q 512 675 512 684 q 515 654 512 673 l 511 639 l 509 614 l 505 597 l 513 555 q 511 505 511 528 q 496 454 510 495 q 507 427 504 439 l 532 427 l 539 415 q 560 431 555 431 l 561 431 q 583 429 570 431 q 597 427 595 427 q 625 431 602 427 q 646 433 635 433 q 713 443 673 433 q 746 454 741 454 q 757 450 748 454 q 781 465 770 465 q 795 452 795 465 q 769 427 795 437 q 736 404 758 414 l 736 389 q 723 376 729 385 q 705 369 717 369 q 692 368 701 369 q 689 368 690 368 q 656 392 678 368 q 632 407 642 407 q 597 394 631 407 q 557 369 562 369 l 523 374 l 522 374 q 508 363 513 374 q 501 330 501 349 l 501 276 q 498 235 498 238 q 504 219 498 229 l 491 210 l 494 193 l 487 186 l 487 182 l 505 171 q 511 123 505 155 l 513 109 l 515 92 l 514 60 q 515 43 514 55 l 510 41 q 504 28 507 33 q 484 18 503 27 l 457 1 q 439 -2 450 1 q 412 -26 428 -26 q 395 -5 395 -26 q 412 19 395 7 q 412 29 412 24 q 418 51 412 35 l 418 70 q 435 104 435 100 l 434 115 l 433 153 l 428 170 l 465 237 l 430 258 l 430 258 q 432 277 430 262 q 444 299 433 286 l 441 337 l 427 334 l 425 336 q 425 347 425 342 q 422 361 425 353 q 384 363 391 363 q 341 357 380 363 l 323 361 l 308 361 l 284 363 l 268 358 l 250 391 l 233 360 q 220 355 229 355 q 176 361 213 355 q 159 377 165 377 q 136 359 155 377 q 124 354 131 354 q 98 356 115 354 q 79 357 88 357 q 64 356 71 357 q 50 353 52 353 q 46 353 49 353 q 1 353 41 353 m 406 412 l 415 421 l 415 424 l 441 424 q 447 466 447 449 l 440 508 l 440 508 q 454 530 439 515 q 457 545 457 539 q 444 564 457 549 q 434 591 434 575 l 435 626 q 422 644 435 644 q 402 617 410 644 q 369 597 385 614 q 326 553 347 572 l 315 541 l 249 486 l 232 471 q 186 433 192 442 q 175 404 175 417 q 182 393 175 400 l 212 429 l 241 421 l 268 421 q 298 412 276 421 q 300 412 300 412 q 319 419 304 412 q 323 420 321 420 q 334 408 326 420 l 351 404 l 366 384 l 368 383 q 384 408 380 404 q 398 412 389 412 q 406 412 401 412 z "},"5":{"ha":797,"x_min":97,"x_max":644,"o":"m 97 -174 q 112 -142 100 -159 l 144 -145 q 164 -132 159 -134 l 188 -127 q 224 -100 196 -126 q 237 -100 231 -100 q 257 -92 247 -100 q 271 -66 269 -82 q 362 8 286 -58 q 384 24 382 22 q 400 50 385 24 l 416 63 l 432 80 l 454 94 q 463 117 458 98 q 479 137 476 130 q 486 163 481 140 l 503 191 l 509 210 q 528 252 526 243 q 528 288 528 258 l 535 313 l 534 326 l 533 347 q 524 366 532 352 q 546 374 536 367 l 544 382 q 530 434 534 434 q 528 428 530 434 q 520 384 520 405 q 521 367 520 378 q 509 385 517 369 q 473 412 508 387 q 465 436 471 431 q 450 440 460 439 l 447 444 q 435 443 440 443 q 409 454 430 443 q 378 463 402 458 q 360 467 361 467 q 333 472 345 471 q 304 477 319 474 l 304 479 q 309 490 309 487 q 298 506 309 496 l 285 482 q 267 482 273 482 q 221 466 236 482 q 204 448 205 448 l 182 439 q 157 429 161 429 q 137 437 150 429 q 136 440 136 439 q 151 464 136 445 q 174 484 162 479 q 184 496 177 486 q 200 511 185 498 q 211 524 207 517 q 221 541 220 540 q 233 547 224 543 q 239 569 238 564 q 271 622 241 577 q 286 669 275 629 q 298 699 297 696 q 298 715 298 701 q 326 724 321 718 q 332 742 328 726 q 347 753 336 753 l 348 753 q 363 753 359 753 q 366 752 366 752 l 400 756 l 420 721 q 446 754 440 749 q 464 760 452 760 q 485 749 482 760 l 492 721 q 496 718 494 718 q 527 764 497 718 l 551 764 l 575 767 l 591 769 q 617 786 612 784 q 640 789 624 788 q 644 770 644 774 q 619 730 644 765 l 600 698 l 585 689 q 552 672 567 677 q 531 683 536 683 l 477 683 l 463 715 q 453 722 459 722 q 410 684 450 722 l 392 715 l 380 711 l 366 707 q 353 677 357 705 l 350 694 l 347 673 q 327 666 330 669 q 315 640 324 663 q 282 567 288 587 q 303 563 298 564 q 372 551 365 555 q 385 546 385 546 l 431 547 q 469 544 448 544 l 467 534 q 484 541 479 541 q 506 528 492 541 l 528 526 q 528 515 528 520 q 535 489 528 502 q 543 488 540 488 q 560 498 548 488 q 568 501 565 501 q 585 484 571 501 q 618 454 613 461 q 629 427 629 439 l 629 426 q 627 415 629 420 q 627 410 627 410 l 631 379 l 628 356 l 627 336 l 618 313 l 616 302 q 608 275 612 287 q 593 258 607 270 q 583 231 592 258 q 570 205 581 225 q 554 178 558 184 q 539 160 543 165 l 531 142 l 517 125 l 502 103 q 465 60 483 81 q 431 31 454 48 q 405 6 417 20 q 374 -26 379 -22 q 351 -43 367 -32 q 349 -58 351 -54 q 325 -77 347 -62 q 298 -107 315 -100 q 286 -111 287 -110 q 281 -119 286 -111 q 224 -159 274 -125 l 199 -175 q 186 -189 197 -176 q 176 -191 180 -191 q 165 -188 174 -191 q 97 -174 136 -184 z "},"6":{"ha":797,"x_min":125,"x_max":701,"o":"m 197 364 q 195 383 195 376 q 201 404 195 392 q 229 439 203 407 q 251 485 231 440 q 294 534 265 515 q 313 557 297 541 q 332 595 330 593 q 350 618 333 597 q 387 660 370 644 l 397 673 l 402 678 q 426 704 410 693 q 434 721 427 713 q 441 732 435 722 q 479 768 443 733 q 503 798 494 783 q 516 817 512 814 q 535 826 517 818 q 564 857 543 836 l 585 880 q 607 901 604 899 q 647 926 611 905 q 680 946 677 946 q 701 928 690 946 q 692 912 694 917 q 676 882 681 884 q 649 874 675 881 q 622 848 635 869 q 577 823 595 846 q 563 804 565 805 q 536 791 560 798 q 498 739 528 772 q 460 711 479 718 l 453 690 l 387 612 q 354 570 371 594 q 332 535 335 543 q 318 517 329 530 q 307 494 314 502 q 291 473 300 487 l 288 473 q 267 433 275 456 q 262 425 267 433 q 250 385 250 401 q 256 363 250 384 q 230 296 237 321 q 235 284 235 288 q 229 267 235 281 q 222 222 224 256 l 222 221 q 222 210 222 216 q 223 205 223 207 q 212 174 223 201 l 234 160 q 250 116 239 136 q 268 85 262 95 q 296 71 287 81 l 296 66 q 305 47 297 52 q 325 50 317 50 q 346 41 328 50 q 363 35 351 39 q 384 26 374 33 l 393 32 l 405 26 l 406 26 q 414 29 409 26 q 439 36 423 35 q 509 75 468 53 l 524 92 q 564 136 556 121 q 574 170 571 150 q 594 185 589 174 l 581 203 q 587 215 587 210 q 586 224 587 218 q 585 229 585 228 q 583 241 584 240 l 575 253 q 560 273 572 262 l 568 299 q 568 317 568 312 q 560 366 568 346 l 555 355 l 534 301 q 516 332 524 324 q 495 340 510 337 q 499 359 499 351 q 494 368 499 363 q 488 368 490 368 q 467 359 484 368 q 465 359 466 359 q 445 364 463 359 l 404 361 q 374 368 380 368 q 336 355 350 368 q 321 358 326 358 q 317 357 319 358 q 300 353 300 353 q 292 367 292 355 q 359 420 292 376 q 423 439 418 439 l 454 439 l 490 439 l 505 436 q 517 434 516 435 q 534 418 523 433 q 552 426 546 426 q 589 409 579 426 q 596 388 589 408 q 610 368 599 379 l 630 368 q 650 304 637 350 l 656 284 l 656 273 l 658 251 q 650 211 658 249 q 630 172 632 176 q 608 144 628 168 q 589 109 597 119 q 556 88 578 98 q 456 7 536 47 l 434 -7 q 374 -26 429 -10 q 351 -33 372 -26 q 317 -39 331 -39 q 288 -32 315 -39 q 230 -14 245 -21 l 217 -8 q 201 0 214 -7 l 201 14 q 170 41 179 29 q 156 57 163 51 q 134 89 146 66 l 141 92 q 125 148 125 126 q 136 180 125 153 q 138 187 138 182 q 133 211 138 190 l 138 244 l 133 266 l 139 277 l 154 307 l 163 323 q 174 346 174 346 q 182 352 174 347 q 197 364 191 358 z "},"7":{"ha":797,"x_min":68,"x_max":726,"o":"m 125 -172 q 131 -155 130 -158 q 159 -92 134 -144 q 155 -90 159 -92 q 168 -72 161 -82 q 186 -45 184 -50 q 213 -18 197 -27 l 210 5 q 224 18 222 12 q 258 72 230 31 q 268 111 261 76 l 287 117 l 287 136 q 302 153 300 148 l 307 168 q 342 227 336 213 q 353 233 354 231 q 359 249 356 237 q 380 292 361 262 l 402 330 l 415 348 l 429 373 l 439 391 q 450 416 448 413 q 474 433 454 423 l 470 456 q 485 473 481 467 q 512 531 486 475 l 538 574 l 542 599 q 555 620 555 620 q 557 634 555 621 q 563 667 558 650 l 435 667 l 427 667 l 427 683 l 410 686 l 408 686 q 395 668 395 686 l 393 665 q 371 671 377 671 q 341 667 368 671 q 331 680 338 680 q 315 662 323 680 l 301 718 l 276 664 q 240 661 247 664 q 201 644 217 654 q 172 632 184 633 q 160 654 160 642 q 203 701 160 656 l 243 728 l 258 745 l 288 756 l 311 765 q 343 760 338 760 q 355 760 349 760 q 372 751 369 751 l 420 747 q 456 732 447 736 l 454 751 q 480 745 474 745 q 521 754 482 745 l 573 750 q 581 751 574 750 l 589 758 l 595 741 l 627 734 l 635 757 q 654 766 650 764 q 678 776 675 772 l 691 789 q 708 793 695 793 q 726 779 726 793 q 712 759 726 770 q 654 663 677 723 l 646 652 l 633 633 q 601 597 604 603 q 593 572 597 589 q 578 557 585 568 l 562 536 l 558 522 q 545 492 545 500 q 545 486 545 489 q 528 474 530 479 l 521 456 l 513 441 l 493 401 q 477 387 479 389 q 469 371 476 385 q 445 331 467 366 q 431 304 436 317 q 402 253 422 283 q 380 227 395 239 q 379 211 380 214 q 348 153 376 204 q 313 92 317 105 l 296 87 l 298 69 l 298 67 q 294 52 298 58 q 273 35 291 47 q 264 22 265 30 q 262 -1 263 20 q 246 -34 262 -3 q 237 -64 243 -39 q 227 -87 233 -81 l 216 -96 q 211 -113 211 -99 l 211 -132 q 203 -146 212 -138 q 189 -160 190 -158 l 186 -180 q 167 -214 176 -205 q 153 -226 163 -217 q 130 -231 140 -229 q 102 -248 109 -245 q 75 -254 98 -248 q 68 -243 68 -249 q 86 -203 68 -232 q 104 -177 100 -180 q 125 -172 109 -172 z "},"8":{"ha":797,"x_min":109,"x_max":650,"o":"m 161 274 l 173 269 q 180 283 180 277 q 173 294 180 288 q 178 311 176 309 l 201 335 q 243 370 221 357 q 273 389 270 389 q 291 383 280 389 l 295 388 l 295 399 q 321 422 311 408 q 298 431 304 429 q 286 436 287 435 l 258 472 q 239 479 256 475 l 243 496 l 243 497 q 227 528 242 500 q 226 536 226 530 q 229 556 226 544 l 250 559 q 253 576 253 565 l 239 588 q 252 607 249 602 q 295 658 274 638 q 362 719 353 712 q 408 745 389 739 q 420 752 410 746 q 456 766 439 763 q 471 768 468 768 q 479 770 476 770 q 488 766 480 770 q 525 752 491 763 q 549 762 531 752 q 572 741 556 749 q 606 724 592 728 l 598 692 q 614 689 608 689 q 622 690 616 689 q 629 663 629 665 q 628 657 629 661 l 621 652 q 629 626 629 639 q 625 595 629 606 q 598 541 604 549 q 568 519 590 530 q 558 491 561 515 q 509 460 545 479 q 506 455 506 458 q 508 448 506 452 q 545 433 524 444 q 574 419 562 425 q 582 400 581 405 q 597 388 583 397 q 615 366 602 385 q 626 348 625 353 q 623 328 626 347 q 623 323 623 326 q 650 290 623 300 q 647 261 647 274 q 640 226 646 237 l 627 200 l 621 183 q 599 156 603 160 q 575 136 589 148 l 553 122 l 527 89 l 498 68 l 482 53 l 463 42 q 426 23 443 27 l 411 5 q 391 3 394 4 l 347 -14 q 334 -16 340 -16 q 309 -13 333 -16 l 283 -15 l 254 1 q 230 -5 231 -5 q 168 20 218 -5 q 154 46 161 41 q 132 56 149 52 q 118 114 120 85 q 109 160 117 133 q 109 163 109 163 l 117 195 l 120 208 l 131 225 q 144 254 140 248 q 161 274 147 258 m 187 160 q 195 140 193 144 q 212 133 197 138 q 248 100 231 116 q 298 81 267 84 l 308 69 l 320 73 q 338 52 330 55 q 355 50 342 51 l 365 66 q 389 62 382 64 q 408 60 401 60 q 435 75 418 60 q 462 92 450 78 q 481 98 475 94 q 506 122 484 99 l 523 134 q 547 184 532 159 q 562 182 557 182 q 574 195 574 182 q 553 212 574 206 q 557 226 557 222 q 552 251 557 229 q 551 269 551 260 q 551 292 551 279 q 532 300 535 297 q 499 338 512 327 l 503 357 q 483 369 485 363 q 481 372 481 372 q 467 368 481 372 q 465 368 466 368 q 429 386 460 368 q 416 396 420 396 l 412 396 l 408 396 q 366 397 408 396 l 359 385 l 357 388 q 286 359 336 382 q 256 339 271 352 q 228 311 233 317 q 216 283 224 305 q 198 250 201 260 q 195 216 197 243 l 193 199 l 196 176 q 187 160 188 162 m 336 531 q 275 513 275 518 q 338 495 275 507 l 346 495 l 365 509 q 391 497 378 500 l 391 486 l 395 482 q 413 488 402 483 l 460 429 q 498 492 484 475 q 511 515 506 513 q 526 523 513 517 q 543 551 536 528 q 547 589 544 557 q 549 616 547 602 q 539 628 544 620 q 517 654 536 633 q 498 673 503 671 q 477 684 488 678 q 442 703 457 699 l 429 686 q 415 688 421 688 q 391 679 411 688 q 376 675 389 678 q 326 625 332 665 q 316 611 319 616 q 309 585 314 606 q 336 531 309 570 z "},"9":{"ha":797,"x_min":63,"x_max":678,"o":"m 96 -175 q 113 -165 100 -169 q 214 -92 161 -155 l 227 -95 q 246 -80 243 -85 l 260 -58 l 290 -30 q 304 -10 302 -12 q 323 2 311 -5 q 326 14 325 13 l 357 41 q 363 56 359 51 q 384 81 378 74 l 399 98 l 418 128 l 431 144 q 446 170 444 168 q 466 183 452 176 q 477 212 471 202 q 509 251 480 216 q 520 274 520 265 q 515 284 520 278 q 531 320 523 296 l 539 341 l 540 358 q 550 375 540 359 q 563 413 563 394 q 559 431 563 419 q 568 449 566 441 q 574 479 573 475 q 576 489 576 486 q 572 506 576 493 q 568 532 568 518 q 572 568 568 543 q 557 577 560 574 q 543 608 555 580 q 524 630 537 621 q 498 649 513 638 q 499 661 499 656 q 481 682 499 671 l 463 671 q 445 678 450 677 q 415 691 425 684 l 407 683 q 386 690 395 690 q 368 682 375 682 q 363 684 367 682 l 361 682 l 357 692 l 355 689 l 351 675 q 311 654 338 669 q 277 628 298 648 q 240 591 249 604 q 224 551 231 578 l 208 542 q 214 524 209 530 q 216 517 216 520 l 216 516 l 214 491 l 214 490 q 229 457 212 480 q 242 430 235 448 q 256 416 244 426 q 277 393 272 397 q 296 377 288 386 q 317 374 296 373 q 354 354 328 354 l 395 355 q 422 349 415 349 q 443 350 438 349 q 456 360 448 352 q 473 357 469 358 q 494 350 484 357 q 466 316 479 325 q 342 279 412 277 l 329 277 q 305 285 308 285 q 288 281 304 285 q 284 280 286 280 q 261 286 277 280 l 253 300 l 235 296 l 234 296 q 210 305 216 302 q 190 324 203 308 q 180 335 185 330 q 161 365 163 355 l 154 396 l 140 451 l 142 471 q 146 509 146 505 q 165 538 148 513 l 175 557 l 193 576 l 198 595 l 206 600 l 218 610 l 241 629 q 256 650 253 647 q 294 678 258 652 q 357 719 311 692 l 378 731 l 397 746 q 429 768 418 758 q 447 767 439 767 q 473 774 450 767 l 488 768 l 510 762 l 523 756 l 578 743 l 593 728 l 618 713 q 646 688 642 693 q 650 663 648 685 q 652 657 652 661 q 661 646 653 656 q 675 591 673 624 l 678 577 l 678 577 q 666 551 677 573 q 660 527 660 541 q 663 504 660 521 q 663 499 663 501 q 663 494 663 496 q 656 463 656 463 q 661 458 656 461 l 646 447 q 642 428 646 437 l 635 412 l 618 384 q 605 356 610 363 q 599 344 601 351 q 584 330 597 336 q 578 302 580 304 l 564 280 q 554 250 560 277 q 539 240 538 243 q 534 224 538 239 q 475 137 530 210 l 462 138 q 453 123 456 127 q 446 112 446 113 l 445 92 l 397 45 l 389 30 l 361 -2 l 345 -26 l 317 -49 l 306 -67 q 277 -98 279 -96 q 254 -108 271 -104 q 238 -139 250 -126 q 210 -166 218 -162 q 183 -175 203 -171 l 181 -186 q 165 -196 169 -193 q 133 -214 144 -212 q 117 -219 117 -219 q 94 -217 98 -217 q 83 -207 90 -216 q 66 -195 68 -197 q 63 -189 63 -193 q 75 -175 63 -175 l 81 -175 l 87 -175 l 96 -175 z "}," ":{"ha":296,"x_min":0,"x_max":0,"o":""},"!":{"ha":296,"x_min":72,"x_max":225,"o":"m 72 77 q 83 92 80 90 l 119 113 q 138 132 136 131 q 149 135 144 135 q 168 122 155 135 q 199 101 170 120 q 225 64 225 84 q 218 52 225 62 q 206 33 208 33 q 159 -2 171 7 q 130 31 149 8 l 111 47 q 96 70 100 66 q 72 77 89 75 m 189 870 q 197 856 197 864 q 174 814 197 827 l 136 792 l 195 774 l 184 760 q 194 701 194 720 q 192 675 194 699 l 193 656 l 184 632 q 189 603 189 606 q 186 568 189 602 l 184 526 q 178 493 178 500 q 189 469 178 479 q 189 422 189 429 q 179 400 187 413 q 193 366 189 386 q 197 340 195 351 l 199 326 q 183 298 189 313 q 160 270 178 286 q 142 273 148 273 l 117 272 q 94 288 109 272 q 117 326 99 303 q 120 345 119 328 q 128 412 126 393 q 148 425 148 412 q 145 443 148 433 l 125 441 q 123 452 123 450 q 124 498 123 459 q 129 521 125 515 q 136 531 132 526 q 124 557 125 551 q 121 638 123 623 l 117 638 l 116 640 l 116 650 l 140 650 q 135 665 139 662 q 112 673 131 669 q 146 696 132 688 q 156 706 156 702 l 111 736 l 111 737 l 114 759 q 87 802 87 783 q 105 836 87 820 q 162 862 132 857 q 189 870 176 864 z "},"\"":{"ha":496,"x_min":85,"x_max":398,"o":"m 188 805 q 196 793 196 797 q 181 753 196 791 l 134 729 q 191 708 191 711 q 182 695 191 705 q 192 648 192 656 l 191 606 q 193 586 191 600 l 182 572 q 197 492 191 536 q 175 452 187 479 q 157 437 173 448 q 141 439 146 439 l 116 439 q 92 456 109 439 q 102 477 94 463 l 104 480 q 116 494 115 492 q 119 521 117 495 q 122 547 122 542 q 119 573 122 556 l 114 575 l 114 587 l 136 587 l 136 598 q 110 609 125 605 q 143 631 130 623 q 155 643 155 637 q 114 666 155 646 q 108 675 108 669 q 109 679 108 677 q 111 688 111 686 q 109 699 111 692 q 85 739 85 717 q 127 788 85 764 q 166 798 138 793 q 188 805 175 800 m 377 798 q 389 806 383 804 q 397 790 397 797 l 397 788 l 383 774 l 378 751 q 335 729 335 730 q 336 728 335 728 q 394 711 360 713 l 382 695 q 387 677 386 682 q 394 639 394 652 q 391 616 394 639 l 392 589 l 382 564 q 394 519 393 533 q 398 492 396 503 q 380 459 388 481 q 369 447 379 456 q 358 437 359 437 l 342 440 l 313 439 q 293 454 302 441 q 292 458 292 456 q 315 496 292 459 q 321 573 319 523 l 314 575 l 314 587 l 336 587 l 336 594 l 338 596 q 321 606 331 602 q 310 610 315 608 q 353 643 353 627 q 345 659 353 645 q 335 696 338 693 q 309 709 334 698 q 286 743 286 720 q 304 772 286 758 q 377 798 336 798 z "},"#":{"ha":797,"x_min":60,"x_max":747,"o":"m 60 262 l 60 273 l 87 283 l 87 292 q 99 305 98 299 q 109 334 102 317 l 113 330 q 132 332 124 332 q 154 328 134 332 l 163 328 q 174 324 167 328 l 175 325 q 227 313 200 321 q 232 331 231 327 q 237 366 237 353 q 235 385 237 366 l 237 404 l 241 438 q 248 473 247 457 q 224 481 230 481 q 192 471 220 481 q 99 460 115 465 q 93 477 93 471 q 94 484 93 479 q 117 492 114 486 l 121 497 l 128 507 l 132 519 l 134 520 q 142 539 138 534 q 149 537 148 537 l 169 540 l 181 536 q 238 527 231 529 q 261 520 248 524 q 264 539 263 534 q 268 568 268 558 q 268 578 268 572 l 277 582 l 280 603 q 270 612 270 608 q 280 648 270 623 q 285 684 285 661 l 290 707 l 292 726 l 294 739 q 287 758 287 757 q 299 775 287 766 q 341 788 313 785 q 342 770 342 778 q 332 714 342 767 l 330 684 l 323 665 q 322 633 322 636 q 316 624 321 631 q 300 600 300 603 q 313 583 300 593 l 303 522 l 311 522 l 314 518 l 328 518 q 354 506 345 506 q 374 518 362 506 l 429 515 l 432 518 q 444 515 440 515 l 464 517 l 508 517 q 532 523 511 517 l 541 576 l 550 583 l 551 600 q 542 614 542 610 q 552 648 542 623 q 557 680 556 659 l 562 707 l 564 726 l 566 737 q 559 758 559 757 q 571 775 559 766 q 612 788 585 785 q 615 779 615 779 l 605 721 l 603 688 l 596 669 l 594 637 l 575 606 q 582 572 582 577 q 576 536 582 566 q 571 503 573 517 q 578 503 576 503 q 595 507 588 503 q 612 522 601 519 l 612 525 q 657 534 636 525 q 676 523 665 525 q 688 537 685 535 q 705 542 690 538 q 728 546 722 545 l 729 546 l 747 543 l 747 535 l 713 513 l 715 496 l 684 479 l 666 481 q 637 466 648 466 l 637 466 q 613 498 627 468 l 586 469 q 577 470 586 469 q 574 471 575 471 q 564 470 570 471 q 560 448 560 454 q 557 426 559 430 q 538 412 558 422 l 544 392 l 552 390 q 549 372 550 376 q 543 300 544 337 l 533 300 l 533 296 q 550 291 544 291 q 566 312 560 291 q 581 317 573 314 q 625 326 605 319 l 634 317 l 641 315 q 660 333 651 330 q 700 338 675 338 q 715 330 712 338 l 682 304 l 682 287 q 644 271 652 271 q 633 273 642 271 q 604 258 616 258 q 569 262 603 258 l 552 260 l 536 263 q 532 262 536 263 l 530 259 l 536 250 q 521 178 531 231 l 515 161 l 515 139 l 506 73 q 468 9 505 9 q 437 25 455 9 q 443 44 442 39 q 452 84 452 82 q 463 109 463 109 l 460 142 l 469 168 l 473 186 l 483 221 q 488 260 485 243 q 448 264 473 264 l 412 267 l 412 267 l 410 267 q 388 264 402 267 q 370 262 375 262 q 333 269 363 262 q 310 282 321 271 q 288 263 296 263 q 267 264 284 263 q 256 265 263 265 l 256 262 l 267 249 q 251 182 260 232 l 244 159 l 244 138 l 234 73 q 198 9 233 9 q 173 19 184 9 q 168 28 168 24 l 173 50 l 180 84 l 191 109 l 189 139 l 197 166 l 201 184 q 212 234 211 220 q 216 264 214 250 q 190 301 205 274 l 161 279 q 106 264 134 272 l 82 260 q 67 252 78 259 l 60 262 m 280 389 q 273 340 279 374 q 273 334 273 336 l 273 330 l 273 314 l 275 314 l 277 315 l 282 311 l 298 311 l 298 307 q 325 299 317 299 q 342 312 332 299 l 354 311 l 475 311 l 500 315 q 504 334 503 330 q 509 368 509 357 q 507 390 509 369 l 509 410 l 512 441 q 520 467 517 452 q 474 471 507 471 l 442 473 q 412 471 437 473 q 407 471 408 471 q 351 483 368 471 q 339 490 342 490 q 334 489 337 490 l 332 475 q 315 471 320 471 q 293 473 306 471 q 290 455 290 460 q 286 425 287 429 q 268 412 282 420 l 268 410 q 269 406 268 408 q 271 398 271 399 q 280 389 272 393 z "},"$":{"ha":797,"x_min":118,"x_max":664,"o":"m 118 168 q 126 195 119 174 l 130 212 q 137 220 130 215 q 142 247 138 234 q 169 231 164 239 q 175 210 173 224 q 187 199 184 201 q 211 180 208 184 q 218 165 214 177 q 228 163 227 165 l 241 152 q 283 135 245 148 q 329 112 318 115 q 358 108 338 110 q 369 124 367 117 q 370 151 369 127 l 373 184 l 373 192 l 373 205 l 373 206 l 378 294 q 376 300 379 296 q 370 353 370 313 l 372 384 q 366 408 372 390 q 351 418 355 412 q 345 427 347 423 q 307 433 322 433 q 298 433 303 433 q 275 449 284 448 l 265 442 l 264 442 q 247 452 262 443 q 218 468 229 460 q 192 489 204 479 q 190 517 192 511 q 186 539 186 536 q 201 576 186 547 q 222 580 220 576 q 231 595 224 578 q 221 614 221 608 q 226 627 221 618 q 253 634 245 627 l 250 653 q 303 686 264 660 q 313 688 306 688 q 326 686 318 688 q 356 708 338 705 q 376 716 368 710 q 378 753 378 741 q 365 785 378 770 q 381 804 375 802 q 397 809 382 806 l 397 808 l 416 811 q 419 791 419 798 q 418 771 419 784 q 416 747 416 759 q 425 726 416 734 q 437 716 427 724 l 456 720 l 464 720 l 504 718 q 549 711 529 711 q 553 699 551 702 q 571 692 555 695 q 557 670 567 677 q 515 642 519 642 q 496 662 505 642 q 439 669 471 663 q 416 673 422 673 q 416 659 416 665 q 419 631 416 655 q 406 612 420 625 q 415 593 406 608 q 418 581 418 589 l 418 581 q 418 555 418 571 q 417 535 417 541 q 418 511 417 528 q 451 497 433 502 q 451 486 451 490 q 457 442 451 465 q 460 433 459 433 q 473 480 463 433 l 480 492 q 498 487 494 488 q 513 476 501 486 q 538 471 515 474 q 583 452 549 470 q 648 389 626 429 q 634 375 634 384 q 659 357 634 357 q 664 316 663 328 l 664 316 l 661 295 l 648 296 q 648 296 648 296 l 650 272 q 649 271 650 272 q 642 252 647 268 q 629 221 635 231 q 584 164 624 214 l 523 117 l 501 97 q 434 77 444 77 q 422 77 429 77 q 418 54 418 60 l 419 30 l 419 6 q 422 -18 422 -15 q 393 -48 422 -48 q 361 -36 380 -48 q 363 -19 363 -23 q 368 16 366 12 q 374 37 374 35 q 360 60 374 47 q 342 69 351 69 q 321 66 341 69 q 318 65 319 65 q 271 78 299 65 q 231 90 248 89 q 224 107 228 94 q 202 122 220 122 q 176 116 194 122 q 150 137 153 134 q 118 168 129 158 m 265 568 q 269 562 269 562 l 300 545 l 315 529 l 323 527 q 372 519 349 519 q 384 551 384 541 q 374 577 384 561 q 385 600 385 589 q 385 606 385 603 l 372 614 q 376 660 376 635 q 355 663 363 663 q 324 649 344 663 q 281 605 309 639 q 265 568 271 594 m 404 221 l 406 217 q 422 197 422 206 l 418 172 l 418 141 l 415 119 q 426 113 419 113 l 429 113 l 435 113 q 445 112 438 113 q 457 125 454 123 l 477 136 q 508 155 498 149 q 557 237 543 185 l 557 237 l 554 273 q 562 287 554 277 l 577 285 l 581 300 l 581 301 q 548 326 581 307 l 539 357 l 524 365 q 509 401 522 386 q 488 389 499 398 q 481 385 484 385 q 460 393 477 385 q 419 400 451 396 l 416 395 l 416 343 l 401 336 l 409 320 l 417 315 q 416 288 416 300 q 417 274 416 280 q 419 255 419 258 q 401 222 419 243 l 404 221 z "},"%":{"ha":911,"x_min":72,"x_max":838,"o":"m 85 590 q 81 611 83 606 q 79 622 79 618 q 80 627 79 623 q 90 626 85 626 q 128 679 106 626 q 157 699 140 695 l 153 703 l 153 705 q 169 719 165 715 q 210 750 191 739 q 237 767 227 761 l 237 774 q 254 779 250 778 q 307 793 285 791 l 315 796 l 332 801 l 344 806 l 355 789 q 372 780 357 786 q 397 753 393 772 l 402 735 l 418 791 l 421 789 q 441 771 437 780 q 455 740 444 767 l 474 740 q 481 721 479 734 q 490 696 481 718 q 496 669 496 680 q 494 654 496 668 l 496 633 q 493 601 494 604 q 484 589 492 599 q 480 576 482 579 q 463 553 479 573 q 437 509 441 513 q 423 505 431 505 q 420 505 421 505 q 414 488 416 499 q 359 448 382 458 q 332 429 344 441 q 322 425 330 427 q 286 414 299 419 q 259 407 266 408 q 232 399 245 405 q 229 399 231 399 q 203 410 220 399 l 186 406 l 172 418 q 162 417 166 417 q 138 435 146 417 q 130 447 133 445 q 121 449 129 448 q 107 465 111 461 q 86 497 86 486 q 89 517 86 505 l 78 519 q 73 566 73 537 l 72 570 q 77 578 73 572 q 85 590 80 582 m 135 623 l 135 602 l 138 602 l 140 600 q 105 572 105 587 q 161 543 105 557 l 157 508 q 180 506 174 509 q 211 482 186 503 l 208 479 l 212 469 q 227 469 220 469 q 254 457 231 469 q 271 454 260 454 q 321 465 287 454 q 347 478 331 468 q 368 486 354 482 l 368 491 q 389 509 386 503 q 408 528 398 522 q 413 533 412 530 q 427 563 426 561 q 437 574 428 565 q 434 589 434 583 q 441 611 434 591 q 435 631 435 628 q 437 645 435 636 l 433 645 l 417 669 l 425 684 l 420 688 q 414 688 416 688 q 396 699 409 688 q 378 713 382 708 l 366 718 l 370 741 l 345 731 q 292 747 319 747 q 266 745 285 747 q 247 740 249 742 l 237 729 q 217 713 220 717 q 199 708 215 712 l 178 684 q 152 655 156 664 q 151 633 151 649 l 133 625 l 135 623 m 188 17 q 205 56 193 37 q 219 83 213 68 q 245 90 240 84 q 254 115 246 91 q 283 153 258 126 l 278 163 l 278 163 q 283 175 277 165 q 287 183 284 177 q 313 211 296 199 l 313 225 l 334 237 q 349 278 337 260 q 391 340 391 335 q 395 362 393 357 q 412 371 412 369 q 429 398 417 374 q 439 418 434 410 q 467 473 463 458 l 485 469 l 488 473 l 488 476 q 479 493 479 487 q 507 524 479 508 q 517 538 513 528 q 517 559 517 540 q 534 589 517 566 q 547 620 547 605 q 546 625 547 623 q 544 629 544 629 q 552 637 544 631 q 564 654 554 637 q 574 665 566 656 l 572 666 q 573 684 574 680 q 578 704 574 699 q 597 718 583 709 q 595 733 595 727 q 602 753 595 742 q 637 790 628 789 l 655 792 q 676 802 660 793 q 699 810 690 810 q 716 796 716 810 q 710 780 716 788 q 683 736 692 754 q 659 733 674 733 q 654 711 654 726 q 644 693 656 707 q 636 680 636 683 q 631 673 634 675 q 623 665 627 671 q 627 658 627 659 q 602 620 627 650 q 591 591 595 610 l 569 581 q 569 570 569 574 q 568 559 569 561 l 520 487 l 512 467 l 494 438 l 488 422 l 477 408 q 433 342 444 357 l 425 342 q 425 340 425 340 q 414 298 425 330 q 389 281 393 291 q 385 248 385 273 q 372 233 374 236 l 355 184 l 334 155 q 324 113 328 121 q 302 100 320 106 q 308 81 308 88 q 300 66 308 77 q 281 40 288 45 q 238 22 273 35 q 227 16 237 21 q 203 9 214 9 q 188 17 197 9 m 416 182 q 427 204 427 195 q 426 212 427 208 q 423 236 425 220 l 426 239 l 433 241 l 443 241 q 471 290 453 249 q 487 307 473 294 q 499 321 492 312 l 511 330 l 526 344 l 549 361 q 581 378 562 373 l 583 388 q 602 393 597 391 q 640 404 637 404 q 670 412 665 410 q 685 418 683 418 l 702 412 l 718 410 l 753 399 q 781 389 766 399 q 785 382 783 384 q 789 366 788 376 q 815 350 792 354 q 838 276 833 297 l 838 274 q 836 223 837 249 q 824 193 834 210 q 807 169 816 180 q 791 142 802 163 q 776 121 783 125 q 754 112 769 116 l 754 97 q 738 86 747 92 q 688 54 712 68 q 650 32 662 37 q 602 21 642 30 q 569 10 573 10 q 547 20 567 10 l 524 22 q 511 33 519 22 q 505 33 507 33 q 479 44 496 33 q 475 56 476 54 q 446 88 454 74 l 432 91 q 429 132 432 116 l 425 132 q 415 175 415 162 l 416 182 m 503 147 q 496 132 496 137 q 500 119 496 127 q 511 120 506 120 q 537 108 523 120 q 544 102 541 105 q 553 85 553 96 q 573 81 559 82 q 615 66 610 66 q 667 80 622 66 q 712 100 693 95 q 728 118 718 110 q 739 134 734 123 l 753 139 q 780 184 761 164 l 775 194 q 785 224 777 204 l 782 227 l 777 227 q 785 252 777 238 q 760 279 768 265 l 767 305 q 761 307 762 307 q 743 301 754 307 q 733 319 737 317 q 712 328 732 323 q 713 340 713 335 q 709 355 713 347 l 701 355 l 694 343 q 689 343 691 343 q 677 350 684 343 q 661 358 669 357 q 623 363 637 359 q 602 355 610 355 q 595 355 599 355 q 568 332 574 337 q 540 321 563 330 q 533 315 538 321 q 515 295 519 299 q 500 279 501 281 l 488 248 q 475 236 486 241 l 475 218 l 477 216 q 483 209 483 210 l 482 176 q 503 147 482 159 z "},"&":{"ha":920,"x_min":72,"x_max":904,"o":"m 229 411 q 285 449 263 423 q 250 479 250 458 q 251 492 250 484 l 225 486 q 207 507 218 499 q 186 533 201 512 l 189 553 l 176 560 l 188 590 l 184 590 q 184 602 184 597 q 201 636 184 617 l 215 636 q 224 652 221 649 l 244 669 l 264 690 q 281 696 268 692 l 288 711 l 311 713 q 331 732 321 728 q 361 741 335 733 l 379 749 l 391 753 q 442 776 431 775 l 442 776 q 466 744 446 773 l 498 777 q 519 785 505 785 q 558 762 535 785 q 576 749 574 751 q 580 730 577 747 q 592 707 581 724 q 581 694 587 694 q 554 720 577 694 l 517 739 l 504 747 q 493 711 495 747 l 476 721 l 468 707 q 464 707 465 707 q 445 711 459 707 q 437 713 440 713 q 422 710 433 713 q 403 705 416 708 q 385 711 391 711 q 363 703 381 711 l 340 696 l 326 689 q 308 681 313 684 q 276 653 304 678 q 249 632 250 633 q 243 613 248 631 q 235 583 237 591 q 251 565 245 568 q 264 543 260 557 q 281 532 277 536 q 310 518 298 522 q 353 507 316 517 l 370 507 l 391 499 q 450 497 434 499 q 468 496 460 496 q 503 507 474 496 l 543 509 q 565 515 563 515 q 585 507 572 515 q 571 472 577 494 q 559 458 568 461 q 515 440 517 441 q 500 429 513 439 q 481 443 488 435 q 465 452 477 448 l 454 445 q 435 474 439 474 q 424 445 431 474 q 397 473 410 473 q 389 470 393 473 l 357 432 q 343 436 344 436 q 320 429 336 436 l 328 414 l 325 412 q 316 412 319 412 q 299 409 305 412 q 277 393 297 408 q 243 374 245 376 q 230 354 242 374 q 209 332 219 345 q 180 315 200 321 q 163 272 178 300 q 154 248 158 261 q 151 216 153 243 l 147 201 l 153 184 q 166 144 156 163 q 170 136 168 140 q 192 110 176 120 q 201 91 198 94 l 221 73 q 260 35 253 41 q 296 22 266 31 q 317 20 301 20 l 346 13 l 367 13 l 390 12 l 399 12 l 428 13 l 442 19 l 462 25 l 484 36 l 517 46 q 532 51 528 51 q 538 51 535 51 q 548 64 546 63 l 595 95 q 623 130 602 99 q 645 198 645 159 q 620 235 645 220 q 600 248 600 247 l 590 260 l 575 270 l 552 290 l 529 298 l 505 308 l 494 309 l 483 316 l 458 309 q 430 302 435 305 q 398 257 422 300 q 387 238 396 252 l 395 220 l 395 220 q 372 205 395 205 q 362 205 368 205 q 340 222 357 213 q 329 241 329 227 q 338 266 329 255 q 376 300 347 276 l 402 322 l 444 338 l 460 348 l 480 353 l 498 360 l 519 363 l 536 365 l 559 359 l 571 358 l 592 350 q 622 336 610 344 q 640 301 624 301 q 646 305 643 301 l 646 320 q 664 309 660 312 q 709 286 689 293 q 724 279 723 279 q 746 284 732 279 q 770 296 761 290 q 798 313 790 310 q 818 359 819 323 l 822 385 l 822 385 q 804 413 823 395 q 793 432 795 422 q 837 450 802 439 l 848 430 q 882 417 873 424 l 886 401 l 904 398 q 903 379 903 384 q 890 323 901 338 q 871 308 890 322 q 829 271 861 290 l 818 262 q 802 260 804 261 q 782 248 800 259 q 736 233 743 238 q 728 216 728 227 q 736 195 728 210 q 723 182 724 186 q 713 145 720 158 l 687 148 q 697 123 686 136 q 673 102 688 113 l 657 85 l 631 72 q 616 54 625 68 q 610 54 612 54 q 593 48 608 54 l 590 47 l 581 41 l 555 31 q 500 1 540 18 l 465 -8 l 443 -16 l 388 -24 q 328 -35 329 -35 q 303 -26 321 -35 q 288 -37 294 -37 q 271 -36 283 -37 q 261 -35 268 -35 q 233 -27 238 -33 q 208 -5 215 -9 l 200 -20 q 161 2 178 -12 q 132 28 145 16 q 108 63 108 60 q 113 92 108 64 l 111 94 l 109 101 q 81 115 83 113 q 79 119 79 117 l 79 131 l 79 138 q 98 151 98 141 q 83 161 98 161 q 77 161 81 161 q 72 183 72 170 q 79 206 72 189 l 83 221 l 92 237 q 107 272 98 260 q 121 289 120 288 q 131 306 130 305 l 142 313 q 150 323 143 315 q 182 347 159 335 q 196 363 190 351 q 203 379 203 378 l 220 393 q 229 411 227 399 z "},"'":{"ha":296,"x_min":85,"x_max":197,"o":"m 188 805 q 196 793 196 797 q 181 753 196 791 l 134 729 q 191 708 191 711 q 182 695 191 705 q 192 648 192 656 l 191 606 q 193 586 191 600 l 182 572 q 197 492 191 536 q 175 452 187 479 q 157 437 173 448 q 141 439 146 439 l 116 439 q 92 456 109 439 q 102 477 94 463 l 104 480 q 116 494 115 492 q 119 521 117 495 q 122 547 122 542 q 119 573 122 556 l 114 575 l 114 587 l 136 587 l 136 598 q 110 609 125 605 q 143 631 130 623 q 155 643 155 637 q 114 666 155 646 q 108 675 108 669 q 109 679 108 677 q 111 688 111 686 q 109 699 111 692 q 85 739 85 717 q 127 788 85 764 q 166 798 138 793 q 188 805 175 800 z "},"(":{"ha":444,"x_min":95,"x_max":431,"o":"m 212 932 q 241 956 229 941 q 255 973 248 964 l 271 996 l 294 1021 q 312 1055 307 1049 q 344 1089 333 1076 q 358 1099 353 1090 q 383 1124 370 1119 q 410 1131 390 1127 l 415 1126 q 412 1115 412 1119 q 413 1109 412 1113 q 421 1083 421 1086 q 408 1046 421 1081 q 395 1027 402 1031 q 361 1023 393 1027 q 336 1010 351 1020 q 317 988 332 1006 l 298 970 q 283 947 295 968 q 264 922 275 932 q 240 896 242 899 q 232 875 238 892 q 220 848 228 861 q 195 793 205 819 l 187 780 l 183 764 l 177 743 l 176 729 l 165 703 l 157 622 l 151 591 l 156 559 q 157 519 157 522 q 149 492 157 513 l 156 441 l 155 419 l 165 374 l 131 349 q 148 319 144 326 q 160 284 149 315 q 165 259 164 260 l 174 248 l 183 231 l 195 213 l 198 196 l 214 172 l 222 149 l 224 145 l 224 109 q 245 93 224 102 q 259 74 248 83 q 300 9 290 20 q 292 -24 292 -14 q 307 -37 292 -37 q 331 -35 317 -37 q 370 -72 356 -66 q 416 -79 382 -77 q 426 -100 420 -90 q 431 -111 429 -106 l 428 -113 l 413 -113 l 399 -155 q 411 -180 411 -171 q 384 -224 411 -205 q 355 -194 365 -199 l 324 -176 l 306 -159 q 270 -127 278 -140 q 257 -104 258 -104 q 247 -95 257 -103 l 243 -87 l 226 -61 q 218 -47 222 -53 q 205 -21 212 -39 l 213 -12 l 213 -9 q 190 4 197 -3 q 151 115 164 52 l 146 127 l 142 144 l 131 178 q 128 208 131 195 l 134 210 q 119 256 126 226 q 105 322 105 303 q 106 337 105 330 q 108 351 108 347 q 98 374 108 354 l 132 446 q 103 460 132 454 l 98 461 l 95 462 l 100 484 q 97 501 97 499 q 98 513 97 507 q 101 568 100 528 l 104 589 l 107 618 q 119 642 108 621 q 119 644 119 643 l 119 669 q 132 694 119 673 l 134 714 l 169 808 q 174 832 171 815 l 192 868 l 195 884 q 205 906 203 899 q 212 932 208 919 z "},")":{"ha":444,"x_min":15,"x_max":348,"o":"m 15 1021 l 16 1022 l 32 1022 q 37 1039 35 1035 q 44 1060 44 1057 q 33 1082 44 1067 q 62 1131 39 1128 q 88 1103 79 1109 l 112 1090 l 139 1068 q 166 1046 159 1053 q 187 1015 172 1041 l 196 1005 l 204 990 l 218 972 q 229 953 223 961 q 239 930 234 947 l 231 920 q 254 905 249 911 q 269 872 258 901 q 275 859 270 870 q 288 821 287 832 q 299 781 292 792 q 307 754 302 766 q 314 725 314 739 q 313 722 314 723 q 312 713 312 713 q 315 703 315 704 q 315 699 315 701 l 310 692 l 319 688 q 336 616 321 668 q 339 553 338 610 l 347 532 q 345 519 345 522 q 347 461 345 516 l 348 444 q 345 425 348 444 l 347 399 l 344 380 l 342 336 l 338 315 l 338 293 l 325 264 l 326 249 q 319 220 326 246 l 310 215 l 312 201 l 275 96 q 272 87 272 89 l 273 77 l 253 41 l 250 24 q 233 -24 241 7 q 188 -66 205 -39 q 174 -89 177 -86 l 151 -112 l 136 -142 q 94 -184 102 -179 q 78 -203 92 -185 q 35 -223 68 -218 l 29 -218 q 32 -205 32 -210 q 24 -182 32 -202 q 23 -180 23 -180 q 42 -128 23 -158 q 56 -117 50 -118 q 81 -115 56 -117 q 111 -100 106 -102 q 125 -83 115 -97 l 144 -65 q 187 -4 184 -8 q 207 13 193 3 q 213 35 211 32 l 239 88 l 250 117 l 258 130 l 262 146 l 267 166 l 269 181 l 279 212 l 280 243 l 286 270 l 287 290 l 294 320 l 289 345 q 288 391 288 390 q 296 418 288 397 l 288 473 l 289 499 l 279 534 l 279 534 l 281 557 l 281 558 q 272 583 281 564 q 260 649 262 604 q 250 668 254 656 l 239 694 l 235 716 q 225 745 227 735 q 220 763 224 755 q 220 783 220 777 q 221 797 221 792 q 208 813 221 809 q 197 825 199 817 q 185 834 186 832 l 162 877 q 146 905 146 900 q 154 939 146 907 q 151 942 154 939 q 133 945 138 945 q 115 942 127 945 q 75 981 90 974 q 29 987 61 987 q 15 1015 26 996 l 15 1021 z "},"*":{"ha":481,"x_min":55,"x_max":423,"o":"m 74 720 q 93 708 79 718 q 107 696 106 698 q 109 684 109 694 l 149 661 l 159 671 q 212 644 178 652 l 220 652 l 220 655 l 213 657 q 205 692 208 672 q 201 711 201 709 q 211 736 201 719 q 179 776 179 744 q 185 788 179 783 q 192 791 189 791 l 245 790 q 281 802 254 790 l 288 797 q 257 727 258 734 q 256 709 256 724 l 267 706 q 262 688 264 692 q 256 656 256 669 q 264 640 256 649 q 278 655 271 651 q 302 665 284 659 q 322 679 315 680 l 323 679 l 339 675 q 375 716 345 716 q 384 713 378 716 q 395 673 389 699 q 423 621 417 635 q 406 621 414 621 q 374 630 400 621 q 369 631 372 631 q 349 629 363 631 q 330 628 342 629 l 330 612 q 304 614 315 614 q 264 600 288 614 l 264 594 l 266 591 l 282 591 q 323 554 300 569 l 326 532 q 345 536 337 536 q 369 522 358 536 q 373 511 373 517 q 372 498 373 505 q 336 477 344 484 q 308 439 328 470 q 303 436 306 436 q 297 438 300 436 q 291 462 294 456 q 286 475 286 473 q 288 489 286 479 q 288 490 288 490 q 281 510 288 496 q 273 527 277 516 l 259 524 q 245 564 254 549 q 222 581 239 573 l 218 577 l 224 555 q 215 538 216 543 q 196 509 205 518 q 186 503 186 508 q 193 488 186 501 q 195 478 195 484 q 185 455 195 465 q 171 449 179 449 q 148 465 164 449 q 84 495 134 477 q 116 521 96 508 l 119 524 l 131 523 q 162 553 142 525 l 154 558 l 154 562 q 175 576 170 572 q 198 604 198 592 q 191 611 198 611 l 189 611 q 181 610 188 611 q 174 608 176 608 q 146 614 173 608 q 135 615 140 615 q 124 614 130 615 l 111 629 q 92 611 102 613 q 66 608 87 610 q 55 629 55 621 q 66 652 55 632 q 71 686 70 661 q 74 720 71 703 z "},"+":{"ha":797,"x_min":109,"x_max":681,"o":"m 117 446 q 138 445 132 445 q 155 444 151 444 q 169 441 169 441 l 197 443 q 218 435 216 435 q 241 440 220 435 l 256 439 l 273 440 l 283 406 q 306 442 303 442 q 329 408 309 442 l 332 406 q 353 439 349 437 l 353 439 l 365 438 q 368 460 367 455 q 369 471 369 467 q 366 483 369 473 q 366 526 366 486 l 371 546 q 365 568 365 565 q 372 631 365 613 l 360 637 l 361 677 q 374 683 368 683 l 391 682 l 416 683 q 432 680 419 683 q 435 661 435 669 q 429 645 435 655 q 432 635 432 636 l 427 606 l 429 586 l 429 564 l 429 521 q 428 507 428 511 q 431 440 428 467 q 454 441 449 440 q 473 441 467 441 q 499 435 476 441 l 513 439 l 522 406 l 539 439 l 587 439 q 604 443 592 439 l 604 439 l 612 431 q 644 445 627 444 q 663 447 656 446 l 676 448 q 681 393 681 441 q 679 376 681 389 q 660 374 665 374 q 643 372 650 372 q 634 374 639 372 q 618 380 618 380 l 599 377 l 583 408 l 570 378 l 543 413 l 514 379 l 491 388 l 474 380 q 455 415 458 415 q 430 374 448 415 q 431 351 431 361 q 427 322 431 347 q 431 275 431 283 q 425 214 431 234 l 437 203 q 433 156 433 191 q 398 139 432 139 q 361 143 387 139 l 361 168 q 361 172 361 170 q 368 194 361 175 q 368 198 368 196 q 363 214 368 201 q 368 235 368 235 q 364 258 368 237 q 363 267 363 262 q 370 288 363 277 q 365 324 365 306 q 371 377 365 357 q 361 382 363 382 l 338 379 l 317 411 l 284 380 q 256 413 260 413 q 233 378 250 413 l 205 381 l 184 378 l 164 415 l 147 382 q 136 376 143 376 q 127 377 133 376 q 109 380 121 378 q 110 382 110 381 q 109 385 110 382 q 109 388 109 387 q 109 394 109 391 q 111 411 111 405 q 111 412 111 412 q 109 435 109 435 q 117 446 110 439 z "},",":{"ha":296,"x_min":43,"x_max":221,"o":"m 44 -212 q 43 -208 43 -210 q 48 -202 43 -205 q 74 -188 67 -188 q 77 -189 76 -188 l 78 -190 l 92 -190 l 100 -178 q 136 -160 117 -174 q 141 -144 137 -149 q 159 -129 146 -139 q 161 -113 161 -117 q 170 -79 162 -94 l 168 -61 l 174 -45 q 170 -39 174 -45 q 167 -27 168 -37 q 142 24 159 15 q 127 36 132 29 l 119 39 q 112 56 117 48 l 83 53 l 78 58 q 117 100 79 71 q 146 132 130 113 q 183 119 171 129 q 205 94 199 106 l 208 80 l 210 62 l 216 44 l 217 33 q 221 3 221 8 q 212 -18 221 -3 q 210 -28 210 -22 q 210 -37 210 -33 q 214 -62 214 -62 q 199 -100 213 -72 q 179 -125 193 -111 l 179 -131 l 184 -136 l 184 -139 l 186 -141 q 170 -163 173 -158 q 130 -208 153 -189 q 107 -220 115 -220 l 81 -219 q 62 -218 80 -219 q 44 -212 52 -218 z "},"-":{"ha":470,"x_min":0,"x_max":469,"o":"m 188 296 q 186 288 186 291 q 189 283 186 286 q 210 273 199 273 q 220 278 214 273 l 222 288 q 247 296 235 290 q 271 288 260 289 l 302 286 l 332 288 q 347 285 336 288 q 377 278 370 278 q 414 287 395 278 q 429 292 425 292 q 436 291 432 292 l 439 288 q 469 312 455 312 q 459 279 465 290 q 435 256 456 273 q 397 224 426 245 q 352 205 370 205 q 336 208 345 205 q 320 210 321 210 l 272 210 l 258 217 l 232 229 l 210 247 l 149 217 q 134 224 149 217 q 117 233 127 229 q 94 226 102 226 q 79 227 87 226 q 62 218 68 218 q 39 226 55 218 q 17 204 28 204 q 3 206 11 204 l 2 208 q 0 218 0 215 q 9 236 0 224 q 51 267 12 239 l 63 277 l 79 287 q 102 300 99 300 q 134 302 104 301 l 152 304 q 188 296 174 296 z "},".":{"ha":296,"x_min":70,"x_max":226,"o":"m 70 66 l 70 75 q 85 86 81 83 q 121 117 111 105 q 143 134 130 125 q 183 108 166 115 q 213 90 205 98 q 226 69 226 76 q 213 39 226 66 q 159 -3 207 26 q 145 12 149 7 q 113 39 133 24 q 96 62 109 42 q 70 66 78 62 z "},"/":{"ha":823,"x_min":-170,"x_max":850,"o":"m -170 -200 q -135 -161 -153 -180 q -104 -134 -132 -158 q -85 -111 -96 -127 l -64 -114 q -45 -85 -51 -93 q -9 -46 -41 -78 l 8 -26 q 50 21 36 5 q 74 38 58 31 l 74 56 q 129 107 87 66 l 153 130 q 179 159 176 157 q 201 174 201 173 q 205 193 204 178 q 261 256 237 222 q 277 265 266 262 q 297 290 278 266 l 296 298 q 327 332 311 310 q 363 372 337 346 q 387 400 383 397 q 420 418 409 411 l 412 430 l 418 445 q 446 452 441 447 q 450 463 450 455 q 449 479 450 470 q 463 492 459 489 q 482 515 477 507 l 500 512 q 523 560 513 543 q 562 606 530 572 q 580 627 566 610 q 592 631 583 631 q 600 638 595 632 q 611 667 611 656 q 611 674 611 669 q 650 727 621 686 q 686 774 680 762 q 699 802 694 791 l 707 802 l 713 808 l 713 822 l 728 817 q 733 825 733 821 q 730 837 733 830 l 722 843 q 775 872 744 871 q 795 876 785 873 q 825 880 813 880 q 850 867 835 880 q 834 846 838 851 q 809 816 815 823 q 779 786 793 800 q 769 767 778 784 q 728 713 755 743 q 690 675 694 678 l 625 594 q 604 574 606 576 q 582 539 603 573 q 558 519 580 536 q 526 481 551 512 l 502 458 q 475 418 492 449 q 458 401 468 406 q 432 391 452 399 q 433 381 433 386 q 422 361 433 371 q 412 366 414 366 q 389 347 403 366 l 397 332 q 378 313 383 317 q 317 246 342 277 q 299 212 304 231 l 281 217 l 260 199 l 263 183 q 257 177 258 178 q 243 175 256 177 q 227 159 227 173 l 227 159 l 229 148 q 212 126 216 131 q 195 106 203 117 q 163 68 171 75 q 136 57 155 61 q 121 24 130 35 q 73 -26 119 21 l 54 -52 q 22 -92 30 -79 l 7 -90 q -22 -138 -11 -111 l -38 -159 l -47 -174 l -62 -184 q -73 -200 -65 -184 q -111 -210 -86 -202 q -117 -210 -113 -210 q -142 -207 -121 -210 q -170 -200 -155 -206 z "},":":{"ha":296,"x_min":70,"x_max":226,"o":"m 70 66 l 70 75 q 85 86 81 83 q 122 117 111 105 q 144 134 130 125 q 183 108 166 115 q 213 90 204 98 q 226 69 226 76 q 213 39 226 66 q 159 -3 207 26 q 146 12 149 7 q 113 39 133 24 q 96 62 109 41 q 70 66 78 62 m 143 417 q 201 383 156 408 q 222 362 214 376 q 226 351 226 355 q 216 334 226 345 q 211 319 212 323 q 201 313 210 317 q 190 302 199 312 q 163 280 184 298 q 144 298 148 293 q 113 325 134 308 l 96 344 q 75 348 92 347 l 71 352 q 70 355 70 353 q 116 394 70 359 q 143 417 127 407 z "},";":{"ha":296,"x_min":43,"x_max":227,"o":"m 44 -212 q 43 -208 43 -210 q 48 -202 43 -205 q 74 -188 67 -188 q 77 -189 76 -188 l 78 -190 l 92 -190 l 100 -178 q 136 -160 117 -174 q 141 -144 137 -149 q 159 -129 146 -139 q 161 -113 161 -117 q 170 -79 162 -94 l 168 -61 l 174 -45 q 170 -39 174 -45 q 167 -27 168 -37 q 142 24 159 15 q 127 36 132 29 l 119 39 q 112 56 117 48 l 83 53 l 78 58 q 117 100 79 71 q 146 132 130 113 q 183 119 171 129 q 205 94 199 106 l 208 80 l 210 62 l 216 44 l 217 33 q 221 3 221 8 q 212 -18 221 -3 q 210 -28 210 -22 q 210 -37 210 -33 q 214 -62 214 -62 q 199 -100 213 -72 q 179 -125 193 -111 l 179 -131 l 184 -136 l 184 -139 l 186 -141 q 170 -163 173 -158 q 130 -208 153 -189 q 107 -220 115 -220 l 81 -219 q 62 -218 80 -219 q 44 -212 52 -218 m 71 353 l 71 359 q 87 372 83 369 q 142 418 109 388 q 204 381 157 407 q 227 350 225 367 l 227 349 l 218 333 q 200 310 210 317 q 171 288 178 294 q 162 283 165 283 q 136 307 159 283 l 113 325 l 97 344 q 75 348 93 347 l 71 353 z "},"<":{"ha":797,"x_min":55,"x_max":733,"o":"m 55 366 l 55 372 q 94 378 71 378 q 113 386 106 379 q 125 413 119 392 q 192 435 146 418 l 199 463 q 231 473 221 469 q 265 498 237 475 q 300 515 297 513 q 311 534 305 521 l 345 529 q 357 547 354 540 q 365 570 360 557 l 393 570 q 404 593 399 591 l 430 606 l 480 637 l 508 648 l 525 661 q 553 681 549 677 q 568 703 557 685 l 603 699 l 613 740 l 663 736 q 678 765 671 756 q 730 795 690 780 q 726 777 726 780 l 724 702 q 720 691 724 697 q 680 673 715 684 q 647 650 662 667 q 625 625 633 633 l 594 628 l 578 608 l 556 604 l 544 581 l 520 576 l 509 556 l 481 556 q 447 530 470 544 q 433 509 442 528 l 407 512 q 391 479 399 484 q 349 475 386 477 q 321 459 338 469 q 307 450 308 451 q 290 425 307 450 q 261 408 284 415 q 240 389 250 389 q 237 389 239 389 q 219 392 231 391 l 180 350 q 227 340 201 340 q 254 304 233 333 l 282 302 q 296 285 290 294 q 328 268 308 268 l 346 269 l 347 269 q 359 262 357 269 q 370 218 368 225 l 426 227 l 456 176 l 488 179 l 497 153 l 528 156 q 576 121 544 140 q 594 95 583 117 q 624 92 608 92 q 651 64 640 89 q 669 60 665 61 q 698 53 689 57 q 705 26 700 34 l 726 18 q 732 -9 732 -5 q 721 -39 732 -11 q 721 -47 721 -45 q 733 -68 728 -58 q 691 -46 700 -55 q 676 -22 683 -39 q 666 -21 670 -21 q 660 -22 663 -21 q 653 -22 655 -22 q 626 7 650 -22 q 576 24 621 12 q 549 59 568 26 l 543 59 q 522 62 529 60 q 507 81 515 66 l 481 81 l 469 104 q 439 120 445 112 q 422 143 429 136 l 387 136 l 375 165 q 351 169 357 168 q 311 182 315 174 q 303 212 307 187 q 283 211 292 211 q 262 217 269 211 q 237 250 261 218 q 199 258 231 256 l 189 283 q 160 290 170 286 q 130 308 155 292 l 109 319 l 81 348 q 55 366 79 353 z "},"=":{"ha":797,"x_min":112,"x_max":686,"o":"m 113 288 q 114 323 113 302 l 113 342 q 116 357 113 346 q 196 351 142 356 l 196 349 l 205 340 q 227 351 219 352 l 227 351 l 267 349 l 282 349 l 298 346 l 313 352 l 352 322 l 372 352 q 374 349 372 352 q 387 339 378 345 q 417 353 412 353 l 465 349 l 495 351 q 513 348 500 351 q 522 353 522 353 q 538 351 538 351 q 557 352 546 351 q 571 342 567 342 q 599 355 572 342 l 625 355 l 635 355 q 675 357 661 355 q 684 345 684 347 l 682 317 l 686 297 q 682 288 686 295 q 666 289 673 289 q 659 288 663 289 q 637 283 637 283 q 625 298 632 285 q 598 287 608 286 l 597 287 q 566 306 578 286 q 555 324 566 306 l 509 290 l 485 323 l 448 290 q 444 296 447 290 l 437 288 l 400 321 l 385 304 q 370 288 376 288 l 369 288 l 339 296 l 338 296 q 330 293 335 296 q 325 291 326 291 l 296 319 l 269 290 l 245 294 l 233 291 l 210 289 l 189 288 q 170 283 177 288 l 113 288 m 121 534 q 134 534 128 534 q 153 529 150 534 l 175 498 l 203 533 q 206 529 203 533 q 228 518 212 523 l 245 529 l 258 529 l 279 529 l 288 495 l 298 515 q 312 530 307 530 q 317 529 314 530 q 340 527 330 527 q 378 531 341 527 l 412 519 q 431 529 428 528 q 444 529 433 529 l 474 530 l 476 530 q 497 524 481 530 q 498 524 498 524 q 502 524 500 524 q 524 528 516 528 l 551 528 l 556 528 l 563 528 l 570 528 q 594 517 581 528 l 604 530 q 623 531 618 531 q 680 538 660 534 q 686 522 686 530 l 686 512 q 684 462 685 481 l 667 459 q 640 457 651 457 q 621 463 632 457 q 616 460 616 460 l 585 478 l 570 483 l 549 496 l 524 465 l 498 492 l 463 465 q 457 473 461 465 q 431 460 437 460 q 405 488 427 460 l 368 462 q 366 463 368 462 q 354 471 362 465 l 350 464 l 319 496 l 292 464 q 265 498 269 498 q 235 476 262 498 l 214 470 l 189 461 q 175 473 184 462 l 162 458 q 132 497 140 497 q 115 463 120 497 q 115 464 115 463 q 113 469 115 465 q 112 471 112 470 q 113 479 112 474 q 116 494 116 486 q 115 500 116 496 q 113 515 113 515 q 121 534 114 522 z "},">":{"ha":797,"x_min":65,"x_max":742,"o":"m 65 804 q 104 783 95 792 q 120 753 112 775 l 151 753 q 176 719 167 725 q 221 706 180 717 q 233 694 226 705 q 250 668 242 679 l 277 666 l 291 645 l 316 645 q 329 623 323 629 q 349 611 330 621 q 362 595 353 610 q 374 579 365 591 l 410 586 q 425 558 416 564 q 468 550 431 555 q 493 511 492 545 l 528 510 q 547 488 537 502 q 567 466 556 477 l 598 463 l 608 438 q 650 424 628 435 q 688 404 686 404 q 701 390 689 403 q 742 355 724 366 l 742 349 q 701 343 726 344 q 673 309 680 340 q 606 286 652 304 l 599 258 l 576 252 q 564 248 565 249 l 532 224 q 497 205 500 208 q 486 188 492 201 l 453 193 q 440 175 443 182 q 432 152 436 163 l 403 152 q 396 132 398 134 q 372 118 393 129 l 315 83 l 295 77 l 272 61 q 243 41 248 45 q 229 18 238 34 l 195 23 l 182 -18 l 135 -14 q 115 -48 119 -45 q 96 -58 113 -51 q 66 -73 87 -61 q 72 -45 72 -54 q 71 -17 72 -39 q 71 2 71 -9 q 77 31 71 24 q 94 41 82 37 q 136 58 130 54 q 171 97 144 64 l 203 95 q 219 113 214 112 q 241 118 222 117 l 252 141 q 277 149 271 142 q 288 168 283 153 l 316 165 q 343 188 328 180 q 364 212 354 193 l 391 212 q 406 243 396 239 q 448 248 412 246 q 472 261 451 249 q 488 271 488 271 l 506 297 q 515 306 509 303 q 538 317 535 315 q 551 332 541 319 l 577 329 l 617 371 l 617 372 q 575 382 602 378 q 544 416 557 389 l 515 419 q 505 431 507 428 q 479 453 487 454 q 435 459 452 454 l 427 504 l 370 494 q 338 547 351 530 l 309 543 l 300 570 l 269 566 q 220 604 255 581 q 204 630 213 608 q 180 634 186 633 q 156 644 162 636 q 145 665 153 649 q 102 673 119 667 q 98 691 98 686 q 91 705 95 702 q 73 712 85 709 q 66 743 66 730 q 68 751 66 747 q 79 775 79 773 q 75 785 79 777 q 65 804 71 791 z "},"?":{"ha":547,"x_min":23,"x_max":519,"o":"m 283 769 q 293 762 289 762 q 302 766 293 762 q 309 767 305 767 q 331 764 313 767 l 372 766 q 406 757 399 760 q 431 741 414 755 q 480 726 454 734 q 503 689 486 711 q 519 647 519 665 q 482 608 519 612 l 484 590 q 454 556 473 580 l 444 547 q 401 510 418 522 q 386 518 391 518 q 367 507 379 518 l 374 496 l 374 496 q 350 463 373 484 q 314 414 314 430 q 334 374 314 391 l 323 368 q 339 342 327 349 q 304 318 326 318 q 274 324 292 318 q 250 336 254 329 q 245 352 249 338 q 233 372 243 359 q 246 385 237 379 l 243 398 q 267 422 252 410 l 281 444 l 292 458 q 308 480 302 474 q 320 491 313 485 q 373 535 336 507 q 414 567 392 551 q 427 611 416 587 q 429 618 429 614 q 397 677 429 644 l 391 686 l 379 682 q 357 696 367 692 q 328 704 334 703 q 310 709 315 706 l 315 715 q 315 718 315 716 q 305 725 315 725 q 281 710 295 725 q 249 713 262 713 q 214 709 247 713 l 191 711 l 173 705 q 145 693 156 701 q 110 671 132 685 l 122 635 q 94 597 106 618 q 65 585 82 594 q 48 578 54 579 l 46 578 l 29 582 q 23 607 23 591 q 31 636 23 623 q 48 658 32 639 l 59 672 l 80 685 q 117 718 112 713 q 157 736 120 720 l 180 748 l 203 752 l 231 764 q 283 769 267 765 m 214 83 l 215 94 q 233 107 229 104 q 269 130 262 123 q 289 144 276 137 q 340 106 302 132 q 365 68 359 93 q 348 41 358 60 q 327 26 347 40 q 300 5 311 15 q 268 37 285 18 q 240 68 248 58 q 214 83 233 78 z "},"@":{"ha":1090,"x_min":40,"x_max":1047,"o":"m 123 566 l 127 566 l 149 593 q 157 592 155 592 q 175 603 167 592 q 179 614 179 608 q 178 627 179 620 q 214 661 200 654 q 237 671 221 665 q 242 686 239 681 q 273 707 244 688 q 324 734 313 734 q 333 732 327 734 l 342 750 q 381 762 361 751 q 441 786 409 776 q 488 799 475 799 q 526 793 500 799 l 537 809 q 546 802 545 802 l 588 810 q 612 807 609 807 q 633 810 623 807 q 648 813 646 813 l 677 810 l 696 811 q 732 803 720 804 q 773 785 748 800 q 868 739 829 777 l 861 719 l 864 715 l 872 715 q 882 721 880 721 q 897 707 888 721 q 895 690 895 696 q 906 677 895 677 q 921 682 907 677 q 926 682 923 682 q 958 657 945 682 q 979 644 975 650 q 986 625 981 640 q 996 611 987 623 q 1006 595 999 607 q 960 580 978 592 q 954 570 954 576 q 961 560 954 565 q 1000 542 962 559 q 1018 530 1015 535 l 1025 515 q 1042 483 1042 489 q 1031 466 1042 476 l 1041 461 q 1046 418 1044 446 l 1047 403 l 985 365 l 1041 323 q 1030 319 1041 323 l 1029 320 l 1019 320 l 1011 300 q 1024 279 1023 281 q 1025 266 1025 275 q 1005 237 1010 254 q 981 231 992 231 q 960 230 962 230 q 937 222 959 229 q 928 220 932 220 q 902 227 926 220 l 869 229 l 828 239 q 779 246 788 242 q 753 256 766 252 l 753 250 q 732 246 738 248 q 697 241 704 241 q 680 243 692 241 q 661 233 665 235 q 633 229 657 232 q 551 213 579 214 q 501 208 512 208 q 449 216 479 208 l 441 227 l 428 220 l 416 239 l 392 234 q 364 262 382 251 q 366 273 366 269 q 349 300 366 277 q 339 341 339 313 q 344 380 339 368 l 359 416 q 387 454 372 454 q 401 453 393 454 l 404 484 q 419 491 415 488 q 435 509 422 494 q 463 527 450 527 l 490 522 l 491 522 l 503 526 l 505 544 q 581 562 538 556 l 595 547 l 614 559 q 657 548 626 554 q 677 540 672 540 q 692 544 682 540 l 692 547 l 732 551 q 731 541 731 545 q 732 532 731 537 q 724 513 724 515 q 726 500 724 509 q 728 463 727 493 l 729 450 l 731 420 l 732 408 l 732 371 l 738 344 q 743 290 741 304 q 760 292 752 292 q 787 292 769 292 q 804 286 790 291 q 807 285 805 285 q 812 285 809 285 l 813 283 q 822 264 814 271 q 854 279 842 279 q 869 273 856 279 q 920 269 886 271 q 920 278 920 274 q 930 312 920 283 q 936 335 934 331 l 943 335 q 950 372 943 352 q 936 422 936 390 q 941 442 936 426 l 938 471 q 954 498 938 475 q 956 503 956 500 q 926 534 956 530 q 918 551 918 543 q 920 572 918 560 q 895 601 901 591 q 886 629 890 610 q 876 635 880 630 q 859 653 867 644 l 843 674 l 818 691 q 790 711 799 709 q 777 725 781 714 q 745 730 758 726 q 687 760 739 732 l 634 768 l 597 776 l 561 774 l 534 774 l 503 766 q 479 762 483 764 q 454 746 470 759 q 438 751 443 751 q 414 741 429 751 q 361 712 370 716 q 342 708 352 709 q 315 681 320 676 l 298 674 l 273 648 q 212 585 227 606 q 189 549 204 572 l 177 546 q 165 513 165 527 q 165 506 165 509 q 155 488 157 499 l 151 484 q 134 538 138 537 q 129 524 133 538 q 123 503 124 509 q 108 465 119 483 l 110 458 q 129 446 125 452 q 132 429 132 441 l 132 421 l 132 407 l 132 406 q 132 397 132 402 q 131 391 131 391 l 132 374 l 133 363 l 138 342 q 138 320 138 322 q 146 307 140 315 q 155 287 153 298 q 144 275 144 282 q 161 256 144 256 q 173 257 166 256 l 193 233 l 189 212 q 221 187 201 203 l 259 163 q 294 135 294 136 q 304 133 295 135 l 312 131 q 332 127 317 130 q 344 110 338 113 q 427 79 366 100 q 446 64 437 66 q 469 62 448 63 l 566 52 q 604 48 593 48 q 631 56 610 48 l 663 50 l 676 51 q 719 56 706 51 q 783 80 762 74 q 790 73 787 73 l 797 77 l 808 81 q 817 106 816 104 q 827 117 819 109 q 843 130 832 119 q 877 94 877 115 q 860 76 877 87 q 837 62 854 73 l 808 49 l 791 40 l 770 33 q 646 7 708 7 q 606 20 626 7 l 571 2 q 561 18 565 10 q 544 30 558 24 q 522 20 535 22 q 501 16 503 16 q 486 12 489 12 q 431 24 485 12 q 418 30 420 30 q 404 29 412 30 q 381 28 396 28 l 369 40 q 349 37 356 37 q 312 46 342 37 l 286 51 l 256 60 q 234 64 237 62 q 222 75 233 64 q 193 85 214 83 q 180 129 182 117 q 159 184 170 171 q 153 191 153 191 q 136 123 146 189 q 123 146 122 136 l 123 146 l 125 165 q 102 180 109 179 q 75 193 79 189 q 62 213 74 195 q 60 229 62 222 q 47 266 47 264 l 46 283 l 40 321 l 41 338 l 42 369 l 49 398 l 50 422 l 70 474 l 85 512 q 113 550 90 525 q 123 566 120 557 m 410 309 q 425 297 420 306 q 484 254 439 276 q 512 248 492 249 q 521 244 513 248 q 545 240 532 240 q 599 242 552 240 q 660 257 656 254 q 671 273 665 260 q 679 303 679 291 l 677 346 q 674 387 677 372 l 690 393 q 686 411 688 407 q 680 451 682 427 l 677 475 l 680 493 q 675 503 680 496 q 656 499 670 503 q 645 497 650 497 q 614 506 639 497 q 576 513 583 511 q 550 516 561 516 q 521 508 544 516 q 499 507 504 507 q 481 492 492 504 l 467 494 q 448 479 461 487 q 431 465 435 473 q 425 448 430 463 q 408 431 424 447 q 389 390 389 414 q 401 338 389 361 q 410 315 410 321 q 410 309 410 312 z "},"A":{"ha":1352,"x_min":0,"x_max":1356,"o":"m 0 -186 q 6 -176 5 -177 l 26 -163 q 53 -131 33 -158 q 68 -118 55 -128 q 81 -102 76 -113 q 81 -92 81 -96 q 99 -61 81 -77 q 130 -28 125 -37 l 168 39 q 180 43 168 40 l 183 46 q 182 59 182 54 q 184 69 182 67 l 201 92 l 268 196 l 269 203 q 261 207 264 207 q 254 205 260 207 q 247 205 251 205 q 234 205 241 205 q 230 224 230 218 q 239 240 230 228 q 250 267 244 258 q 267 290 260 281 q 286 288 280 290 q 315 278 315 278 q 317 279 315 278 q 319 290 319 287 q 316 306 319 296 q 330 317 328 314 l 343 343 q 370 372 348 353 q 374 392 372 389 q 400 416 376 395 q 416 453 402 419 q 453 511 420 462 l 498 598 l 516 618 q 519 632 517 630 q 538 660 520 634 q 539 665 539 662 q 538 675 539 669 q 551 694 544 681 q 564 718 557 707 l 577 698 q 581 709 581 706 q 575 726 581 715 q 585 746 582 742 q 598 768 598 765 q 599 783 599 769 q 606 798 599 785 q 620 831 609 802 q 627 850 621 836 l 656 852 l 654 861 l 636 869 l 636 880 q 651 899 646 888 l 644 905 l 644 908 q 663 935 654 918 q 679 962 672 951 q 673 977 673 971 l 673 982 l 673 989 l 673 1003 l 728 1041 l 741 1031 q 749 1048 748 1044 q 759 1060 754 1060 q 770 1057 764 1060 q 783 1078 773 1072 q 808 1088 797 1088 q 830 1039 828 1088 q 838 994 838 1006 q 856 947 841 973 q 865 901 865 911 q 865 884 865 893 l 838 870 q 849 853 844 857 q 880 844 852 852 q 907 804 892 840 q 917 773 917 779 q 909 756 917 769 q 923 743 920 745 q 941 724 940 728 l 949 703 l 963 669 q 966 647 965 665 q 990 602 987 625 q 992 583 992 584 l 1007 560 q 1036 503 1010 555 l 1020 494 q 1031 475 1024 481 l 1041 473 l 1039 458 q 1110 330 1108 392 q 1139 267 1113 315 q 1180 186 1176 197 q 1195 157 1185 171 l 1237 64 l 1236 44 q 1276 3 1276 22 q 1257 -16 1276 -7 q 1267 -31 1262 -28 q 1281 -36 1269 -32 q 1301 -61 1291 -39 q 1319 -110 1307 -71 q 1356 -168 1348 -155 q 1343 -190 1343 -178 q 1343 -200 1343 -194 q 1311 -212 1320 -210 q 1287 -214 1308 -214 q 1240 -231 1278 -215 q 1219 -174 1222 -191 q 1206 -143 1216 -159 q 1187 -87 1187 -93 q 1188 -76 1187 -82 q 1174 -56 1176 -64 q 1173 -35 1173 -54 q 1171 -24 1171 -27 q 1178 -2 1171 -16 l 1158 16 q 1169 30 1166 26 q 1176 39 1176 35 q 1175 49 1176 43 l 1142 46 q 1120 81 1126 68 q 1109 123 1116 89 l 1099 147 q 1086 199 1090 191 q 1048 223 1075 223 q 1022 172 1025 223 q 1015 170 1017 170 q 996 180 1008 170 q 956 197 977 193 q 927 208 945 199 q 888 219 903 219 q 850 212 882 219 l 831 216 l 809 214 l 791 214 l 772 211 l 741 210 q 713 210 720 210 q 703 209 703 209 l 661 218 l 641 214 q 617 220 619 220 q 585 213 613 220 q 547 207 564 208 l 528 229 q 485 213 507 224 q 455 208 483 212 q 444 206 445 206 q 424 208 436 206 q 394 212 407 212 q 360 205 385 212 q 330 200 346 201 q 321 184 323 188 q 294 143 311 163 q 262 90 283 125 l 250 92 q 245 82 245 87 q 247 68 245 78 q 248 56 248 64 q 234 38 235 41 l 201 -28 q 182 -59 193 -42 l 176 -68 l 139 -92 q 136 -100 136 -94 q 152 -120 136 -107 l 142 -152 q 119 -163 125 -158 q 100 -193 110 -170 q 75 -205 80 -201 q 60 -212 65 -212 q 47 -205 58 -212 q 38 -203 44 -203 q 28 -203 34 -203 q 0 -186 16 -191 m 374 283 q 393 292 389 292 q 407 283 397 292 l 428 286 l 436 271 q 475 276 450 276 l 535 276 q 581 266 552 275 q 625 261 610 264 q 658 240 639 240 l 701 261 l 701 261 l 724 256 l 762 256 l 777 252 l 797 255 l 815 253 l 833 254 l 850 250 l 890 256 l 922 258 l 982 264 l 1032 260 q 1043 269 1043 260 q 1037 292 1043 272 q 1035 308 1036 297 q 1016 328 1022 317 q 989 376 992 376 q 979 399 982 386 q 968 423 976 410 q 971 453 971 441 q 966 475 971 460 l 942 472 q 933 492 935 488 l 928 509 l 913 530 l 897 560 l 889 573 q 871 623 884 601 q 863 653 862 640 l 876 659 q 859 670 869 670 q 850 669 855 670 q 840 688 843 684 q 824 713 825 711 l 820 739 l 810 757 l 800 781 l 777 808 l 765 848 l 753 868 q 734 902 745 886 q 711 880 717 892 q 700 840 699 858 l 696 840 q 666 794 684 820 l 627 720 q 612 687 616 701 q 597 668 600 680 q 560 631 584 639 l 564 612 l 553 607 l 553 607 q 530 609 540 608 l 525 600 l 543 589 q 519 536 534 563 q 458 457 487 475 q 450 435 452 453 q 444 411 450 422 q 426 377 444 411 l 410 360 l 402 341 q 383 307 387 316 q 374 283 379 295 z "},"B":{"ha":1345,"x_min":63,"x_max":1291,"o":"m 178 147 q 193 151 189 149 l 193 163 l 182 172 q 178 206 180 187 q 177 214 177 210 q 192 244 177 227 l 190 246 q 182 264 189 258 q 176 281 178 269 q 171 313 171 302 l 176 366 l 176 397 l 176 413 l 185 424 q 171 431 171 429 q 175 483 175 482 q 170 528 175 492 l 173 531 l 171 565 q 189 572 179 570 q 201 577 195 573 q 189 596 198 588 q 190 605 190 602 q 184 625 190 612 l 170 616 q 160 652 160 639 q 163 671 160 656 l 162 709 l 162 729 l 159 743 l 161 771 q 151 840 151 834 q 157 860 151 850 q 160 877 159 865 q 167 888 167 883 l 167 890 l 167 892 l 170 910 l 150 908 q 145 941 150 922 l 142 959 q 136 1019 136 998 q 140 1050 136 1033 q 111 1047 132 1048 l 75 1040 q 67 1042 73 1040 q 79 1069 77 1069 q 100 1082 94 1077 l 100 1086 q 117 1090 113 1088 q 138 1095 134 1095 q 157 1091 140 1095 q 168 1090 163 1090 q 210 1105 177 1090 q 240 1105 213 1105 q 287 1111 245 1105 q 292 1112 290 1112 q 323 1105 301 1112 q 343 1102 334 1102 q 369 1105 349 1102 q 385 1086 378 1088 q 408 1085 391 1085 l 413 1094 q 443 1106 430 1098 q 504 1101 477 1102 q 585 1091 538 1100 l 610 1091 l 652 1086 q 671 1085 668 1086 q 689 1073 678 1083 q 708 1075 702 1075 q 794 1047 722 1075 q 832 1031 827 1037 q 846 989 846 1016 q 810 905 846 958 l 791 874 q 741 825 753 841 l 712 825 l 709 823 l 709 802 q 691 792 695 794 q 631 764 656 772 l 607 752 q 575 745 581 747 q 562 736 570 743 q 583 728 576 730 q 629 725 585 728 q 675 714 648 724 q 732 696 713 701 q 762 686 747 694 q 759 667 759 675 q 777 648 759 656 q 794 680 783 654 q 827 672 810 679 q 871 654 860 659 q 884 635 879 653 l 903 627 l 905 620 l 915 625 l 922 617 q 939 626 930 626 q 984 607 954 626 q 1061 556 1038 572 q 1087 528 1072 548 q 1084 519 1084 522 q 1090 507 1084 515 q 1103 515 1098 515 q 1162 474 1106 515 l 1171 461 q 1188 451 1184 454 q 1206 427 1190 449 q 1234 389 1226 403 q 1217 362 1217 375 q 1217 353 1217 359 l 1240 357 q 1261 323 1254 338 q 1275 271 1264 314 q 1291 225 1290 239 l 1291 224 l 1289 199 l 1289 173 q 1264 134 1288 159 q 1274 124 1265 129 q 1274 110 1274 116 q 1274 103 1274 106 q 1276 89 1276 92 q 1233 26 1276 85 l 1218 16 l 1202 1 q 1181 -13 1185 -10 q 1169 -34 1179 -16 q 1098 -79 1152 -58 l 1089 -71 q 1061 -76 1069 -73 q 1042 -96 1053 -80 q 1056 -108 1056 -98 q 1052 -117 1056 -112 q 999 -134 1046 -125 q 937 -158 985 -136 q 918 -165 927 -162 q 886 -178 890 -176 q 874 -182 878 -182 q 861 -176 870 -182 l 841 -183 l 835 -193 q 817 -197 821 -196 q 790 -203 797 -200 q 772 -214 772 -214 q 743 -206 746 -206 q 729 -216 740 -206 q 714 -222 726 -220 q 670 -235 686 -227 l 653 -220 l 649 -220 q 632 -216 641 -219 l 618 -235 l 486 -239 l 456 -232 l 461 -212 l 442 -208 q 422 -220 435 -216 q 397 -227 400 -227 q 346 -216 396 -227 l 334 -210 l 311 -211 q 281 -203 295 -204 q 245 -201 273 -203 l 227 -203 l 201 -201 l 139 -198 l 136 -197 q 98 -201 104 -201 q 63 -186 63 -201 q 66 -180 63 -183 q 93 -163 79 -168 l 145 -142 q 159 -128 152 -140 q 164 -113 164 -118 l 163 -94 l 222 -77 l 173 -64 q 162 -47 162 -61 q 171 -27 162 -44 l 172 12 l 172 22 q 160 53 172 28 l 225 81 l 161 101 q 170 112 170 111 q 174 127 172 114 q 178 147 174 133 m 231 907 l 234 907 l 238 909 q 256 886 245 895 l 256 772 l 252 753 q 275 747 269 749 q 283 746 280 746 l 298 747 l 299 747 q 323 744 300 747 q 381 740 351 743 q 378 722 378 729 q 389 701 378 701 q 420 734 395 701 l 420 745 l 543 770 q 573 786 551 772 l 601 795 l 625 812 q 692 857 675 841 q 720 887 718 882 l 732 921 q 743 953 743 949 q 730 972 743 961 l 739 992 q 730 995 733 995 q 709 987 729 995 l 679 1019 q 669 1019 672 1019 q 643 1023 660 1019 q 635 1034 636 1034 l 567 1047 l 542 1055 l 520 1052 l 507 1053 l 489 1053 l 464 1059 l 437 1061 l 414 1062 l 357 1054 l 305 1049 q 271 1044 284 1044 q 254 1044 267 1044 q 247 1027 248 1029 l 242 949 q 224 924 241 938 l 226 922 q 231 907 230 916 m 240 48 l 246 26 l 267 29 q 275 -4 275 10 l 275 -7 q 274 -26 275 -16 q 272 -37 272 -37 q 281 -90 281 -87 q 265 -121 281 -104 q 253 -119 258 -119 q 243 -125 249 -119 q 281 -140 260 -136 q 314 -150 299 -142 l 317 -163 q 336 -151 328 -161 q 388 -167 359 -161 l 411 -176 l 432 -179 q 562 -191 515 -191 q 672 -176 601 -191 l 686 -187 q 698 -176 694 -176 l 728 -172 q 750 -157 735 -171 q 782 -154 775 -156 l 820 -144 q 872 -127 850 -138 q 892 -120 886 -120 q 903 -123 895 -120 q 921 -111 909 -115 q 1029 -49 998 -78 q 1089 -15 1036 -43 q 1103 7 1093 -13 q 1124 32 1119 26 q 1156 49 1131 40 l 1158 63 q 1220 78 1220 73 q 1156 90 1220 83 q 1169 117 1166 110 q 1177 153 1170 120 q 1182 174 1181 165 l 1179 176 l 1192 186 q 1184 201 1184 197 l 1184 234 l 1171 258 l 1171 278 q 1129 353 1171 298 q 1063 424 1113 374 q 1064 437 1064 431 q 1059 447 1064 442 q 1050 453 1053 453 l 1043 453 q 1017 466 1029 459 q 985 484 991 480 q 975 497 981 486 q 970 500 975 498 q 958 509 964 504 q 930 523 945 519 l 916 532 q 903 540 905 538 q 891 564 901 541 q 886 567 890 567 q 862 557 884 567 q 859 557 860 557 q 839 563 850 557 q 806 578 825 572 l 793 585 l 732 604 l 690 626 q 660 642 671 633 q 633 631 637 631 q 595 644 633 631 l 570 653 l 543 657 l 520 663 l 507 665 l 482 670 q 422 675 425 675 l 387 674 l 331 676 q 269 648 300 676 q 278 597 271 631 q 279 591 279 595 q 273 566 279 584 l 271 566 q 249 562 255 566 q 254 534 252 538 q 268 516 255 530 q 264 494 265 506 l 264 492 q 264 473 264 478 q 264 468 264 469 q 269 431 264 460 q 271 410 271 420 q 269 385 271 401 l 266 345 l 264 330 l 271 304 l 273 271 q 277 235 277 243 q 271 191 277 222 l 260 191 l 264 157 q 281 130 281 143 l 281 84 q 281 64 281 78 l 277 60 l 274 60 l 271 58 l 271 54 q 254 54 261 54 q 240 48 244 54 z "},"C":{"ha":1392,"x_min":83,"x_max":1356,"o":"m 99 436 q 89 450 89 442 q 97 484 89 454 q 114 551 100 503 l 143 553 q 134 580 142 562 q 132 590 132 584 q 149 645 132 598 q 165 696 154 673 q 188 733 174 709 q 200 730 197 732 q 212 727 210 727 q 225 734 216 727 q 237 739 234 736 q 241 749 239 741 l 225 751 l 218 776 l 218 776 q 239 803 218 783 q 250 817 243 808 q 262 835 258 831 q 278 859 273 846 l 283 864 q 302 887 295 882 q 330 906 307 890 l 332 904 l 351 913 l 353 929 l 440 999 q 460 1011 445 1003 l 479 1023 l 496 1028 q 526 1046 522 1046 q 545 1040 532 1046 l 555 1065 l 583 1059 l 585 1072 q 614 1082 607 1079 q 663 1093 639 1091 l 684 1099 q 710 1105 707 1104 q 726 1118 716 1108 q 743 1117 736 1117 q 777 1126 751 1117 q 799 1129 787 1129 q 819 1126 809 1129 q 828 1125 826 1124 l 918 1128 q 966 1103 944 1126 q 984 1086 981 1086 q 1007 1115 996 1086 q 1044 1101 1029 1101 q 1053 1101 1048 1101 q 1072 1105 1072 1105 l 1093 1098 q 1208 1063 1183 1075 l 1208 1043 l 1208 1043 q 1194 1029 1197 1032 q 1161 1002 1169 1002 q 1139 1011 1154 1002 q 1050 1045 1100 1027 l 1041 1067 q 1023 1063 1027 1065 q 1010 1060 1013 1060 q 966 1074 1008 1060 q 951 1084 954 1079 q 945 1093 947 1088 q 916 1084 922 1084 l 878 1084 l 823 1084 l 806 1086 q 760 1075 776 1082 l 718 1070 q 677 1062 692 1065 q 650 1050 669 1061 l 616 1035 l 592 1018 q 492 953 518 987 q 452 934 475 948 q 450 918 452 926 q 414 889 436 911 l 397 874 q 371 843 377 846 q 359 839 365 839 q 351 840 357 839 q 355 830 355 832 q 322 774 355 828 q 292 741 296 747 q 277 705 290 736 l 262 671 l 256 651 q 233 602 237 618 q 224 561 230 591 q 212 517 214 521 q 190 503 210 507 q 205 474 192 486 q 199 451 199 456 q 204 414 199 436 q 205 411 205 412 q 199 402 205 405 l 145 382 q 139 374 139 380 q 142 367 139 372 q 155 344 153 351 q 162 329 161 330 q 193 304 177 317 l 204 273 q 210 248 209 262 l 206 248 l 210 225 l 220 222 q 227 201 227 210 l 229 201 q 232 184 231 188 q 238 158 235 163 l 250 134 q 269 75 269 84 q 256 68 269 68 l 262 52 q 283 50 276 52 q 296 43 290 47 q 322 11 310 27 l 342 -7 l 358 -27 q 395 -50 385 -42 q 406 -74 396 -66 q 439 -90 419 -83 l 469 -109 l 492 -119 l 513 -130 l 536 -139 l 551 -151 q 565 -162 558 -154 q 583 -153 574 -153 q 662 -174 585 -153 q 750 -174 746 -174 q 761 -178 755 -174 q 781 -186 772 -184 q 792 -177 790 -180 q 800 -172 798 -172 l 808 -173 l 813 -174 l 868 -166 q 929 -153 881 -165 q 959 -160 954 -160 q 993 -144 969 -160 l 1025 -137 q 1063 -122 1054 -127 l 1079 -125 q 1137 -111 1088 -127 q 1196 -90 1193 -92 q 1206 -77 1198 -89 l 1232 -64 q 1272 -52 1253 -52 q 1288 -56 1276 -52 q 1294 -35 1289 -39 q 1317 -23 1297 -31 q 1341 -10 1339 -10 q 1356 -16 1346 -10 q 1341 -72 1353 -52 q 1332 -98 1335 -82 q 1324 -109 1330 -104 q 1267 -121 1318 -112 q 1235 -132 1243 -131 q 1198 -141 1230 -134 l 1168 -147 l 1137 -156 l 1108 -160 q 1059 -173 1066 -173 q 1038 -172 1052 -173 q 1010 -172 1029 -172 l 1010 -176 q 994 -189 1010 -189 q 989 -188 991 -189 q 975 -186 976 -186 q 968 -188 975 -186 l 884 -207 q 823 -214 858 -212 l 772 -216 q 769 -216 772 -216 q 752 -227 763 -226 q 699 -228 721 -228 q 653 -216 684 -228 q 636 -213 646 -213 q 618 -225 627 -213 l 585 -224 q 562 -205 572 -205 l 559 -205 q 534 -205 545 -205 q 522 -207 524 -207 q 458 -186 496 -207 q 393 -155 429 -170 q 318 -111 336 -119 l 313 -98 l 328 -98 q 328 -89 328 -93 q 311 -64 328 -66 q 294 -76 301 -76 q 271 -59 291 -76 l 224 -27 l 210 -7 l 203 0 l 180 35 q 109 197 127 107 l 123 205 l 123 218 l 108 228 q 102 257 108 243 l 98 271 q 90 286 90 283 q 89 312 89 289 l 86 342 l 90 355 q 83 381 83 375 q 94 411 83 397 q 99 436 95 412 z "},"D":{"ha":1372,"x_min":63,"x_max":1296,"o":"m 97 1064 q 127 1084 109 1064 q 147 1084 144 1084 q 162 1083 159 1083 l 199 1084 q 232 1072 203 1084 q 235 1071 233 1071 q 249 1077 237 1071 l 256 1077 l 383 1081 q 399 1074 389 1082 q 418 1066 405 1070 l 429 1078 q 506 1072 467 1078 l 508 1074 q 530 1059 519 1059 q 548 1075 539 1059 q 581 1074 567 1074 l 676 1061 l 706 1061 q 745 1054 728 1055 q 753 1039 748 1040 q 781 1035 756 1037 q 796 1050 788 1050 q 810 1046 798 1050 l 833 1045 q 856 1035 840 1045 q 884 1021 878 1021 l 898 1025 l 960 999 q 1029 981 1021 986 q 1039 974 1038 974 l 1053 972 q 1076 956 1068 960 l 1104 933 l 1135 914 q 1176 887 1160 895 q 1172 866 1172 872 q 1183 848 1172 848 q 1204 853 1193 848 q 1240 816 1217 838 q 1255 796 1256 800 l 1259 776 l 1276 729 l 1278 698 l 1289 656 l 1291 604 l 1296 583 l 1293 531 q 1286 471 1291 492 q 1271 422 1282 453 l 1259 422 q 1258 417 1258 419 q 1265 402 1258 416 q 1266 397 1266 400 q 1261 375 1266 387 q 1255 359 1256 361 q 1236 327 1245 327 q 1219 348 1227 327 l 1204 323 l 1208 315 l 1205 302 l 1217 284 q 1188 231 1206 270 l 1171 209 l 1168 201 l 1138 169 l 1133 157 l 1114 134 q 1099 121 1103 121 q 1090 127 1096 121 l 1080 127 l 1071 138 q 1059 117 1059 125 q 1068 100 1059 111 q 1027 68 1052 84 q 1004 48 1013 58 q 961 60 983 57 l 958 52 q 970 31 967 39 q 924 -5 957 18 l 878 -28 q 855 -47 872 -31 q 827 -33 840 -33 q 814 -60 822 -54 q 772 -73 811 -62 q 762 -78 768 -73 q 736 -99 737 -99 l 721 -99 q 702 -111 718 -99 q 672 -123 699 -114 q 660 -128 667 -125 q 603 -150 620 -147 q 558 -159 585 -151 l 493 -182 l 448 -186 l 431 -191 l 420 -193 l 395 -196 l 380 -196 l 351 -203 l 313 -204 l 259 -208 l 247 -208 q 220 -205 229 -207 l 117 -210 q 111 -212 116 -210 q 106 -212 109 -212 q 89 -195 89 -212 q 93 -187 89 -190 q 124 -174 98 -184 q 163 -156 152 -164 q 177 -123 166 -138 q 175 -92 175 -102 l 184 -40 l 184 -39 q 182 -23 184 -32 q 179 -14 179 -14 q 189 29 179 -12 q 190 41 190 35 q 182 66 190 47 l 237 81 l 184 168 q 185 170 184 168 q 211 188 211 176 q 201 209 211 195 q 190 206 195 206 q 180 229 180 206 l 181 245 l 181 337 q 180 353 181 347 q 179 361 179 360 q 191 391 179 372 l 179 399 l 179 418 l 190 429 q 177 460 177 442 l 177 463 l 177 477 q 175 534 177 517 q 174 550 174 544 q 178 565 174 556 q 193 564 186 564 q 201 571 201 564 q 193 581 201 573 q 181 595 187 590 q 163 610 164 596 l 163 610 l 168 648 l 162 782 l 167 787 l 172 787 q 180 816 180 808 q 160 835 180 825 q 147 896 159 850 l 146 920 q 140 957 140 939 q 133 1022 140 975 q 114 1023 118 1022 q 110 1023 110 1023 q 95 1019 106 1023 q 67 1016 87 1016 q 63 1031 63 1025 q 81 1054 63 1046 q 97 1064 93 1059 m 241 911 l 258 911 q 267 867 263 898 l 270 852 l 269 809 l 271 784 q 260 759 260 762 q 266 737 260 756 l 263 688 l 264 673 l 264 651 q 269 625 269 629 q 266 613 269 620 l 248 618 q 244 606 244 610 q 254 591 244 593 q 262 589 256 590 q 278 585 268 589 q 256 566 264 571 q 224 526 224 541 q 279 440 224 524 q 272 388 273 411 l 256 380 l 259 374 l 276 368 l 277 361 l 277 264 q 281 168 277 174 q 281 160 281 163 q 278 138 281 159 q 277 126 277 131 q 285 71 277 114 q 286 62 286 66 q 281 48 286 56 l 253 57 q 245 39 245 46 q 271 17 245 17 q 278 17 274 17 q 282 -13 279 2 q 285 -58 285 -25 q 290 -108 285 -68 q 262 -140 270 -122 l 243 -149 l 243 -153 l 245 -155 q 253 -153 252 -153 l 290 -154 q 315 -155 313 -154 q 328 -161 318 -155 l 338 -148 q 351 -149 347 -149 l 418 -147 q 430 -152 420 -147 q 443 -135 437 -138 q 471 -131 452 -131 l 478 -131 q 526 -127 516 -131 l 545 -119 l 572 -111 q 645 -78 631 -86 l 667 -72 q 707 -55 703 -56 q 723 -54 710 -55 l 759 -35 q 785 -26 783 -29 q 787 -18 786 -24 q 805 -10 800 -12 q 866 24 829 -1 q 895 39 887 35 q 962 95 899 43 l 1000 125 l 1019 154 l 1053 185 q 1065 203 1057 189 q 1109 262 1069 214 q 1116 279 1110 262 q 1131 307 1119 285 q 1139 345 1139 323 q 1154 389 1140 357 q 1166 428 1168 420 l 1166 459 l 1173 496 q 1177 528 1175 518 q 1202 566 1202 534 q 1177 596 1202 585 q 1169 644 1176 614 l 1168 664 q 1160 692 1160 688 q 1162 715 1160 701 q 1136 749 1149 727 q 1115 787 1116 783 q 1112 806 1114 787 l 1105 813 q 1089 814 1094 813 q 1065 830 1082 815 q 1069 848 1069 841 q 1063 861 1069 853 q 1044 863 1053 863 q 1026 860 1042 863 q 1025 860 1025 860 q 983 890 1021 860 l 952 909 l 932 925 l 911 935 l 863 960 l 842 966 l 825 972 l 790 977 l 764 985 l 709 994 l 668 1002 q 610 1014 614 1012 q 597 1025 608 1015 q 587 1031 590 1031 q 570 1026 581 1031 q 557 1022 563 1022 q 534 1025 557 1022 l 507 1026 l 435 1031 l 376 1029 l 345 1029 l 338 1029 l 334 1029 q 317 1032 325 1029 q 297 1040 299 1040 q 286 1036 296 1040 q 269 1032 281 1034 q 263 1018 263 1021 l 265 994 l 260 974 q 252 936 257 950 l 240 940 q 234 924 234 930 q 237 917 234 920 l 241 911 z "},"E":{"ha":1369,"x_min":97,"x_max":1358,"o":"m 97 1006 q 107 1035 99 1025 l 120 1035 q 140 1055 129 1048 q 163 1072 150 1061 q 179 1068 174 1068 q 195 1072 182 1068 q 205 1073 199 1073 q 273 1067 211 1073 q 295 1066 283 1066 q 310 1069 301 1066 q 340 1052 333 1053 l 349 1052 l 363 1050 q 398 1061 382 1061 q 439 1049 405 1061 l 467 1044 l 497 1037 q 508 1040 498 1037 q 524 1043 517 1044 l 663 1042 l 669 1034 l 706 1031 l 716 1043 q 801 1049 760 1044 q 817 1050 809 1050 q 835 1049 825 1050 q 862 1046 857 1046 q 958 1065 867 1046 l 996 1069 q 1027 1074 1025 1074 q 1053 1069 1031 1074 q 1042 1045 1053 1057 q 1035 1037 1035 1037 l 1001 1019 q 982 1004 996 1016 q 959 991 966 991 l 958 991 q 925 994 940 993 q 899 1004 919 995 l 893 1004 l 888 1004 l 855 1004 q 813 1008 846 1004 l 774 1004 l 747 1004 l 705 996 l 655 1001 l 630 1002 l 615 1003 l 574 999 l 538 1000 l 522 994 l 446 998 l 424 995 q 408 1000 423 995 q 349 1003 398 1003 l 336 1003 q 310 1001 330 1003 l 288 1006 q 273 994 283 1006 q 284 955 283 975 q 286 926 285 937 q 262 911 272 911 q 254 914 260 911 q 252 897 252 901 q 254 890 252 892 q 264 880 257 886 q 281 867 271 876 q 277 841 277 846 q 284 798 277 837 q 336 791 298 795 l 380 783 l 412 782 l 439 779 q 492 774 465 779 q 515 773 504 773 q 535 775 526 773 q 562 779 555 779 q 589 773 563 779 q 593 772 591 772 q 629 774 599 772 q 646 775 636 775 q 696 777 664 775 q 773 783 747 778 q 778 784 775 784 q 800 783 784 784 q 822 781 807 782 l 822 791 q 845 796 841 791 l 848 799 l 877 762 q 891 785 888 781 q 906 797 895 789 q 929 808 923 808 q 948 806 937 808 q 943 782 947 784 q 924 767 942 777 l 924 749 q 901 729 909 741 q 878 724 884 724 q 860 733 868 724 q 831 762 834 762 q 806 728 830 762 q 804 728 806 728 q 800 729 802 728 q 780 735 793 732 q 743 728 772 731 q 707 732 711 732 q 665 728 703 732 l 640 733 l 612 734 l 597 735 l 547 728 l 499 736 l 437 734 l 417 739 l 393 739 l 372 739 l 355 734 l 329 733 q 285 730 306 730 q 294 690 292 712 l 296 669 l 296 610 l 300 572 q 291 555 299 567 l 279 552 l 277 554 q 272 533 272 541 q 274 522 272 530 l 279 525 q 295 509 292 515 q 296 488 296 507 q 283 468 296 477 q 295 426 286 453 q 297 405 297 420 q 297 392 297 400 l 282 385 q 281 370 281 376 q 302 345 281 357 q 296 333 296 335 l 302 302 l 304 276 l 307 260 l 304 239 l 304 214 l 301 199 q 299 156 299 156 q 298 138 298 139 q 302 123 298 133 l 277 108 q 284 79 277 96 l 288 79 q 300 85 296 85 q 314 77 305 85 q 305 44 305 52 q 311 22 305 41 l 312 -26 l 316 -82 q 280 -137 316 -109 q 285 -164 280 -156 q 295 -172 286 -168 q 311 -182 300 -174 l 338 -159 l 368 -159 l 420 -149 l 444 -151 q 481 -151 479 -151 q 505 -163 483 -151 q 510 -163 507 -163 q 537 -151 521 -163 l 539 -150 l 541 -149 l 559 -175 l 585 -153 q 595 -144 591 -145 q 598 -144 595 -144 l 675 -150 l 701 -151 q 724 -151 718 -151 q 734 -151 733 -151 q 757 -147 736 -151 q 762 -146 758 -146 q 770 -147 766 -146 q 812 -151 810 -151 q 840 -147 813 -151 l 850 -147 l 972 -145 l 981 -146 l 981 -146 q 989 -144 982 -146 q 996 -144 994 -144 q 1016 -149 998 -144 q 1036 -149 1019 -149 l 1044 -173 l 1064 -176 l 1064 -153 l 1065 -151 l 1072 -148 q 1095 -181 1092 -181 q 1133 -151 1097 -181 q 1150 -144 1141 -144 q 1168 -155 1158 -144 q 1190 -151 1184 -151 q 1207 -145 1202 -149 q 1213 -133 1208 -136 q 1230 -126 1222 -128 q 1258 -125 1246 -125 q 1327 -110 1318 -113 q 1348 -100 1343 -100 q 1358 -116 1358 -100 q 1352 -134 1358 -121 q 1343 -159 1346 -146 q 1331 -168 1332 -164 l 1326 -182 q 1257 -203 1309 -204 l 1235 -208 l 1198 -176 l 1150 -212 l 1123 -207 l 1088 -205 l 1063 -201 l 1031 -201 l 994 -198 q 985 -200 993 -198 l 975 -193 q 947 -203 958 -203 q 899 -195 944 -203 q 857 -194 890 -194 q 823 -195 836 -194 q 797 -198 804 -198 q 738 -189 796 -198 q 726 -190 726 -190 q 713 -189 720 -190 l 702 -200 q 685 -197 687 -197 l 614 -199 l 585 -199 l 545 -201 q 530 -198 541 -201 l 534 -186 q 500 -192 517 -186 l 498 -210 l 486 -210 l 483 -210 l 481 -211 q 480 -211 480 -211 q 477 -210 479 -211 q 448 -203 463 -203 q 430 -205 435 -203 q 429 -206 429 -206 q 408 -182 427 -206 q 395 -175 401 -175 q 346 -202 389 -175 q 323 -209 336 -209 q 291 -202 318 -209 q 284 -201 289 -201 q 241 -208 280 -201 l 205 -209 q 153 -220 157 -220 q 131 -216 146 -220 q 130 -204 130 -209 q 136 -184 130 -197 q 140 -185 139 -185 q 155 -178 149 -185 q 180 -130 161 -172 l 180 -92 q 182 -90 180 -92 q 191 -76 191 -77 q 187 -60 187 -63 q 188 -54 187 -58 q 191 39 191 -14 q 200 88 192 56 q 211 100 202 94 q 217 112 217 103 q 220 134 218 127 l 212 117 l 206 117 q 196 136 203 126 q 196 153 196 147 l 195 182 l 195 183 l 210 203 l 222 239 q 251 256 224 244 q 254 258 254 258 q 201 276 254 263 l 224 286 l 224 295 l 210 302 q 197 321 206 314 q 201 353 197 337 l 193 414 l 247 454 l 193 524 l 234 542 l 191 558 l 208 567 q 212 604 208 586 q 197 615 205 608 q 189 622 193 620 q 186 651 186 644 q 184 682 185 678 q 184 689 184 686 q 194 708 184 696 q 184 715 191 715 q 178 715 182 715 q 176 736 176 727 q 188 760 176 747 q 172 786 172 773 l 172 870 q 168 923 172 886 q 163 963 164 961 q 154 970 162 964 l 154 1001 l 131 998 l 131 1002 l 127 1004 q 115 1004 118 1004 q 97 1006 106 1004 z "},"F":{"ha":1046,"x_min":97,"x_max":1031,"o":"m 97 1048 l 97 1055 q 119 1064 105 1061 q 152 1085 130 1074 q 190 1101 182 1101 q 208 1092 195 1101 q 224 1103 220 1099 q 240 1110 233 1108 q 273 1093 253 1097 q 323 1084 312 1084 q 326 1084 325 1084 q 370 1088 370 1088 l 408 1054 q 435 1083 432 1083 q 456 1074 442 1083 q 464 1072 459 1072 l 480 1072 l 524 1065 l 552 1067 l 581 1062 l 609 1063 l 654 1061 q 673 1067 673 1067 l 712 1065 l 729 1066 l 749 1066 l 814 1076 q 871 1072 862 1072 q 902 1076 894 1072 q 921 1084 912 1082 l 1031 1106 q 1031 1098 1031 1101 q 1027 1086 1031 1095 q 1017 1063 1020 1068 q 1000 1048 1013 1059 q 957 1005 973 1025 q 939 1020 946 1020 l 924 1020 q 903 1044 923 1020 q 902 1045 902 1045 q 888 1018 897 1044 l 888 1007 q 867 1018 870 1014 q 849 1043 859 1030 q 848 1044 848 1044 l 806 1013 q 797 1011 804 1011 q 755 1014 781 1011 q 727 1016 746 1015 q 707 1029 718 1030 l 703 1029 q 686 1030 690 1030 q 655 1023 677 1030 q 619 1019 642 1019 q 578 1031 610 1019 l 560 1029 l 541 1029 q 523 1022 524 1022 q 458 1036 522 1022 l 441 1057 l 420 1027 l 383 1061 q 372 1041 383 1061 q 342 1021 362 1021 l 340 1021 q 323 1033 334 1021 q 292 1057 303 1057 q 273 1021 279 1057 q 275 1019 275 1019 l 212 951 l 271 934 l 271 913 l 271 903 q 259 882 270 896 l 273 869 l 275 803 q 302 804 294 804 q 372 795 317 804 l 455 791 l 472 785 l 494 793 q 530 787 524 787 q 550 794 538 787 q 554 795 552 795 q 569 789 558 795 l 572 796 q 580 798 579 798 l 625 792 q 656 791 655 791 q 671 804 659 791 l 677 779 q 684 774 680 774 q 730 801 688 774 q 743 806 739 806 q 769 799 743 806 q 774 798 772 798 q 798 803 784 798 q 881 818 819 810 q 941 833 924 831 q 941 827 941 829 q 937 808 941 814 q 919 794 934 801 l 922 772 q 886 744 903 760 q 859 745 865 745 q 809 752 824 746 q 778 764 792 759 q 750 750 760 753 q 697 749 746 749 l 682 748 q 650 754 656 754 q 637 753 644 754 q 600 748 604 748 q 572 751 599 748 q 564 752 567 752 q 538 751 556 752 q 526 750 532 750 q 500 755 522 750 l 460 747 l 437 749 l 414 747 l 395 747 l 368 745 q 330 757 345 754 l 328 753 l 326 739 l 290 743 q 286 724 288 741 q 283 707 283 709 q 285 684 283 701 q 288 616 287 635 q 271 610 279 610 q 264 595 264 602 q 284 568 264 579 q 241 545 252 558 q 233 509 233 535 q 255 469 233 479 q 286 450 286 455 q 285 449 286 450 q 274 420 274 430 q 276 405 274 414 l 288 396 l 290 389 l 285 385 q 271 380 275 384 q 283 366 273 373 q 283 356 283 358 l 285 253 q 280 240 285 245 q 260 221 279 239 q 258 214 258 219 q 284 198 258 201 l 286 139 l 287 29 q 291 3 291 5 q 271 -27 291 -12 q 297 -68 279 -71 q 298 -94 297 -88 q 300 -144 300 -136 q 288 -165 300 -165 q 273 -161 281 -165 q 267 -183 272 -179 q 253 -189 266 -184 l 233 -197 l 205 -206 q 181 -214 181 -214 q 163 -204 176 -214 q 166 -195 166 -197 q 157 -176 166 -188 q 174 -142 164 -163 q 185 -122 184 -125 q 186 -104 186 -120 q 195 -16 195 -58 q 193 2 195 -12 q 199 5 197 5 q 215 1 206 5 l 210 14 q 199 16 202 16 q 188 21 190 18 q 185 52 185 24 q 186 97 185 95 q 199 111 187 102 q 197 121 197 116 q 206 130 197 126 l 208 128 l 214 132 l 214 150 l 209 148 l 205 162 q 199 161 202 161 q 187 173 187 161 l 187 174 q 188 195 187 184 q 189 245 189 205 q 196 261 196 259 q 192 274 196 266 q 203 297 203 288 q 192 313 203 304 q 191 339 191 330 q 192 359 191 350 q 193 374 193 370 q 188 397 193 377 q 185 417 185 406 q 199 438 185 432 l 199 452 l 201 452 l 212 462 l 205 485 l 194 488 q 186 510 187 505 q 184 566 184 513 l 180 592 l 178 614 q 176 641 176 637 q 178 677 176 655 q 194 681 193 676 q 198 698 195 683 l 176 742 q 182 764 182 759 q 176 795 182 768 l 172 832 l 164 865 l 161 905 l 156 928 l 159 949 l 159 951 q 146 983 159 958 q 142 1009 142 991 q 142 1030 142 1017 l 118 1026 l 97 1048 z "},"G":{"ha":1413,"x_min":72,"x_max":1327,"o":"m 77 360 l 98 366 q 90 407 94 393 l 73 407 q 79 464 75 421 l 85 483 q 100 546 100 544 q 114 580 104 558 l 144 580 l 149 604 q 126 616 126 604 q 168 695 126 629 l 179 713 l 206 747 l 224 776 q 238 789 227 779 q 255 782 249 782 q 269 787 260 782 l 264 818 q 300 852 292 844 q 350 895 322 875 l 367 911 l 384 922 l 395 935 l 452 971 q 496 1006 483 998 q 517 991 509 994 q 534 1002 532 998 q 538 1018 536 1003 q 583 1039 555 1028 l 608 1051 l 648 1065 l 668 1072 q 709 1079 694 1074 q 796 1100 749 1090 l 813 1105 l 833 1107 l 846 1108 l 871 1109 q 897 1118 872 1109 q 902 1119 900 1119 q 961 1088 905 1119 q 987 1116 982 1116 q 988 1116 987 1116 q 1035 1114 998 1114 q 1095 1111 1037 1114 q 1146 1103 1124 1103 l 1155 1094 l 1158 1094 q 1172 1101 1168 1101 q 1189 1090 1178 1101 q 1181 1078 1187 1081 q 1164 1068 1179 1076 q 1142 1054 1152 1062 q 1112 1036 1120 1036 q 1072 1043 1103 1036 l 1042 1054 l 998 1058 q 965 1073 972 1073 q 959 1070 962 1073 q 947 1062 949 1061 l 940 1065 l 908 1072 l 886 1093 l 861 1066 q 846 1060 854 1060 q 823 1063 845 1060 l 778 1048 q 750 1057 756 1057 q 713 1041 743 1057 q 675 1038 707 1038 q 669 1023 674 1025 q 612 1001 641 1013 q 567 975 595 994 l 531 953 q 519 937 528 951 q 496 941 504 941 q 487 941 493 941 q 471 909 481 918 q 450 894 467 906 q 435 888 446 890 q 427 879 433 888 q 401 853 422 870 l 385 859 l 388 840 q 368 824 374 829 q 349 798 366 822 q 320 758 334 780 q 292 713 306 733 l 275 711 q 263 690 271 698 l 262 692 l 256 692 l 254 685 l 262 684 q 260 672 261 673 q 250 652 260 670 q 223 585 224 587 q 212 572 222 583 q 215 535 215 551 q 202 496 215 526 q 192 450 195 479 q 168 433 172 446 q 191 410 191 420 q 191 409 191 410 q 186 359 186 367 q 190 327 186 353 q 170 300 170 315 q 180 280 170 291 l 193 282 q 201 249 195 268 q 205 232 204 239 q 138 215 180 225 q 134 214 134 214 q 191 206 134 211 l 211 201 q 224 136 212 161 q 225 134 225 134 q 217 90 217 90 q 224 82 217 82 q 241 90 232 82 q 256 68 252 73 q 271 39 270 47 l 277 14 q 291 -1 278 7 q 322 -28 309 -12 q 355 -60 334 -42 q 367 -71 363 -68 q 379 -82 377 -81 q 396 -89 380 -83 q 412 -96 408 -92 l 418 -106 l 422 -100 q 485 -149 448 -129 q 519 -165 496 -154 q 545 -176 543 -176 q 587 -141 562 -176 q 641 -159 608 -159 q 658 -156 651 -159 q 673 -150 673 -150 q 685 -153 673 -150 q 693 -153 688 -153 q 773 -151 698 -153 q 799 -149 794 -149 q 827 -151 804 -149 q 838 -151 831 -151 q 876 -148 850 -151 q 888 -136 882 -139 q 951 -128 889 -135 q 995 -120 991 -120 q 1017 -129 998 -120 q 1021 -130 1019 -130 q 1039 -106 1034 -130 q 1062 -109 1054 -109 q 1112 -99 1070 -109 l 1146 -95 q 1199 -80 1185 -83 q 1198 -73 1198 -75 q 1205 -59 1198 -61 l 1262 -43 l 1204 -7 l 1261 24 l 1202 94 q 1204 98 1202 94 q 1210 137 1210 113 q 1202 186 1210 144 l 1201 261 q 1201 268 1201 268 q 1213 294 1201 290 l 1255 311 q 1257 313 1257 312 q 1255 315 1257 314 q 1207 328 1233 328 q 1196 328 1204 328 q 1171 377 1191 362 q 1159 381 1165 381 q 1143 380 1152 381 l 1133 387 l 1133 387 q 1115 382 1132 387 q 1044 380 1109 380 q 1025 384 1041 380 q 1012 378 1018 378 q 1001 388 1001 378 q 1022 414 1001 398 q 1042 427 1034 424 q 1062 427 1044 427 q 1090 426 1086 427 l 1125 414 q 1130 413 1126 413 q 1154 426 1139 413 q 1193 420 1181 420 q 1203 421 1198 420 q 1222 423 1219 423 l 1248 420 l 1249 420 q 1293 427 1272 424 q 1307 399 1307 405 l 1307 397 q 1302 359 1302 361 q 1303 349 1302 356 q 1307 299 1307 323 q 1305 241 1307 287 q 1299 203 1305 229 q 1295 177 1297 191 l 1279 177 q 1269 144 1269 150 q 1272 119 1269 138 q 1291 130 1289 126 q 1300 146 1294 132 q 1311 138 1306 145 l 1254 116 l 1310 69 q 1308 64 1310 69 q 1303 47 1305 59 l 1289 41 q 1303 20 1298 22 q 1312 18 1305 18 q 1319 2 1318 6 q 1318 -26 1319 1 q 1318 -31 1318 -28 q 1321 -54 1318 -47 q 1327 -67 1327 -66 q 1322 -82 1327 -67 q 1321 -91 1321 -86 q 1322 -102 1321 -96 l 1301 -106 q 1287 -124 1293 -121 q 1230 -125 1285 -125 q 1171 -139 1181 -139 q 1143 -135 1160 -139 l 1135 -143 q 1048 -156 1116 -144 q 1047 -156 1048 -156 q 1039 -155 1044 -156 q 1028 -154 1032 -154 q 988 -168 1019 -154 q 935 -170 979 -170 q 898 -179 935 -170 q 863 -183 884 -182 l 808 -196 l 783 -197 q 669 -212 720 -208 q 652 -201 658 -201 l 640 -203 l 618 -205 l 608 -212 q 532 -213 606 -213 q 511 -211 532 -213 q 461 -208 494 -209 q 441 -193 448 -195 q 417 -189 433 -191 l 413 -201 q 322 -158 342 -180 q 286 -124 298 -134 q 271 -95 281 -106 q 255 -96 261 -96 q 237 -91 243 -96 q 198 -47 225 -82 q 170 -18 189 -37 q 177 16 177 5 q 160 35 177 35 q 143 33 153 35 q 125 65 138 45 l 122 77 l 92 160 q 83 205 83 188 q 83 208 83 205 q 85 222 85 222 q 79 248 85 225 q 77 306 79 250 q 73 332 76 319 q 72 345 72 340 q 77 360 72 350 z "},"H":{"ha":1373,"x_min":120,"x_max":1257,"o":"m 120 1050 q 130 1059 127 1059 l 158 1074 q 207 1099 186 1093 q 261 1128 235 1106 q 264 1130 263 1130 l 264 1130 l 276 1122 q 264 1101 275 1112 l 279 1093 q 250 1065 254 1074 l 233 1013 l 214 994 l 269 977 q 264 972 265 973 q 261 970 262 970 l 260 970 l 245 976 q 248 961 245 961 q 264 951 248 958 l 268 946 l 268 842 l 268 827 q 269 812 269 812 q 264 804 269 811 q 259 786 262 798 q 273 770 273 778 q 270 751 273 762 q 321 763 304 763 q 386 751 352 763 q 410 726 392 748 q 449 714 414 724 l 524 745 q 526 744 524 745 q 541 721 532 728 l 555 732 l 570 729 q 581 735 577 735 q 587 733 583 735 l 598 745 l 598 747 q 612 743 608 745 q 631 737 627 737 q 632 737 631 737 q 659 743 655 743 l 719 741 l 736 741 l 752 743 q 798 744 791 743 q 816 751 802 745 q 836 747 834 747 q 857 751 839 747 l 876 753 q 904 760 903 760 q 922 752 911 760 q 935 752 930 752 q 951 748 944 752 q 972 742 962 742 q 994 765 988 762 q 1046 769 1000 768 l 1074 771 l 1092 768 l 1117 770 l 1137 769 q 1151 779 1147 769 q 1158 807 1153 783 q 1141 842 1141 840 q 1147 864 1141 842 l 1147 894 q 1149 905 1149 902 q 1141 920 1149 911 l 1147 939 l 1147 939 q 1129 955 1147 946 q 1128 958 1128 957 q 1133 979 1128 962 q 1137 1008 1137 990 q 1127 1027 1137 1016 q 1128 1035 1128 1033 q 1128 1051 1128 1042 q 1106 1067 1106 1055 q 1109 1076 1106 1073 q 1131 1090 1112 1078 q 1160 1106 1155 1105 q 1177 1117 1175 1111 q 1200 1123 1194 1120 q 1236 1136 1230 1136 q 1246 1133 1238 1136 q 1242 1044 1243 1114 q 1234 1008 1242 1039 l 1217 1006 q 1212 985 1212 992 q 1215 972 1212 981 q 1231 961 1229 966 l 1235 951 l 1242 937 q 1238 910 1238 912 q 1239 903 1238 907 q 1241 875 1241 880 q 1234 800 1241 823 q 1244 779 1244 789 q 1230 755 1244 773 q 1223 723 1225 748 l 1238 721 l 1238 586 q 1231 564 1238 581 q 1226 545 1226 552 l 1238 534 q 1234 517 1234 524 q 1235 501 1234 510 q 1225 496 1230 496 q 1219 497 1222 496 q 1226 476 1221 478 q 1241 467 1236 471 q 1235 424 1235 435 q 1236 411 1235 418 q 1240 377 1240 383 q 1234 360 1240 372 l 1219 363 l 1219 356 l 1230 349 q 1239 239 1237 282 q 1218 220 1218 230 q 1239 178 1218 194 q 1234 156 1239 172 q 1240 124 1240 125 q 1238 107 1240 119 q 1237 85 1237 97 q 1239 61 1237 69 q 1241 48 1241 52 q 1238 41 1241 42 l 1187 24 l 1240 1 l 1239 -15 q 1243 -27 1239 -16 q 1243 -28 1243 -28 q 1238 -33 1243 -30 q 1185 -72 1185 -56 q 1231 -106 1185 -90 q 1257 -127 1257 -117 q 1237 -139 1242 -136 q 1196 -160 1221 -149 l 1180 -166 q 1145 -192 1152 -189 q 1125 -197 1131 -197 q 1113 -189 1113 -197 l 1114 -146 q 1110 -131 1114 -141 q 1128 -104 1126 -114 q 1130 -68 1130 -94 q 1131 -45 1130 -50 q 1150 -12 1134 -20 l 1190 9 q 1138 31 1138 28 q 1191 58 1138 33 l 1143 108 q 1154 142 1153 123 l 1154 142 q 1150 157 1154 146 q 1147 171 1147 168 l 1149 288 q 1147 298 1149 288 q 1164 317 1164 310 q 1159 332 1164 322 q 1152 351 1156 338 l 1137 355 q 1142 388 1142 385 q 1143 479 1142 463 l 1147 479 q 1154 498 1153 486 q 1158 526 1156 513 q 1145 545 1146 536 q 1145 570 1145 549 q 1146 585 1145 571 l 1143 621 q 1147 650 1143 623 q 1175 683 1152 678 l 1179 699 l 1173 699 q 1152 707 1164 699 q 1090 705 1105 707 q 1066 703 1069 703 q 1022 706 1061 703 q 990 707 1008 707 q 947 706 971 707 l 935 705 q 907 703 911 704 q 878 700 884 700 q 856 709 870 700 q 833 720 839 720 q 814 709 829 720 q 791 701 805 701 q 743 703 786 701 q 728 703 735 703 q 674 696 706 703 q 606 694 608 694 q 582 698 603 694 q 549 682 555 682 q 499 689 547 682 l 479 718 l 451 688 l 419 693 l 402 688 l 382 688 l 345 685 l 328 686 q 291 688 311 686 q 283 689 287 689 q 268 683 277 689 l 268 584 q 270 533 268 543 q 273 510 273 517 q 273 509 273 510 q 272 500 272 505 l 273 464 q 271 460 273 463 q 264 448 264 450 l 269 425 q 264 410 269 422 q 264 409 264 409 q 271 366 271 368 q 256 314 271 349 q 268 298 267 304 l 270 287 q 274 277 271 286 q 277 268 277 271 q 275 243 277 267 l 264 222 l 264 181 q 260 149 260 160 q 262 135 260 138 q 279 124 265 129 q 273 73 275 109 l 271 50 l 274 8 l 274 -117 l 272 -126 l 262 -132 l 270 -147 q 254 -159 258 -156 q 204 -189 231 -178 l 203 -186 l 203 -184 q 176 -189 178 -184 q 166 -205 172 -192 l 142 -208 q 144 -176 144 -184 q 153 -137 144 -161 q 154 -115 153 -117 q 161 -62 159 -104 l 164 21 q 168 37 165 35 q 179 47 168 37 q 182 57 182 50 q 180 80 182 66 l 174 80 q 170 95 170 90 l 173 125 l 173 158 q 180 191 176 172 q 201 199 192 193 l 198 241 l 182 242 q 180 293 180 253 q 173 333 173 324 q 178 383 173 341 q 180 408 180 395 q 178 434 180 420 q 176 466 176 454 q 194 487 176 484 q 193 509 193 504 q 191 529 193 524 q 172 542 186 536 q 178 578 174 557 q 180 593 180 586 q 170 626 180 599 q 173 643 173 641 l 173 646 l 172 717 l 172 724 q 177 739 172 729 l 186 736 q 189 752 189 745 q 174 783 189 758 q 172 793 172 787 q 184 822 172 803 l 169 823 l 165 845 l 176 848 l 178 873 q 162 893 165 882 q 157 931 157 916 q 159 947 157 940 q 163 962 163 958 q 159 982 163 962 l 160 997 l 160 998 q 154 1015 160 1002 q 146 1033 152 1019 q 133 1036 134 1034 q 120 1050 129 1036 z "},"I":{"ha":380,"x_min":106,"x_max":254,"o":"m 106 -208 q 113 -186 109 -197 q 119 -166 117 -171 q 130 -137 130 -142 q 123 -122 130 -133 q 137 -56 131 -104 q 146 -35 138 -47 q 148 -28 148 -32 q 140 -11 148 -24 q 138 -1 138 -8 l 139 25 l 139 113 q 142 134 142 130 q 153 144 144 139 l 153 168 q 168 195 168 182 q 168 207 168 201 l 170 208 q 161 228 163 214 l 155 256 l 156 273 l 155 301 q 162 339 162 334 q 157 371 162 343 l 159 410 q 159 413 159 410 q 159 425 159 420 l 160 499 q 162 505 160 500 q 163 511 163 509 q 157 543 163 521 q 155 551 155 547 q 167 563 155 557 l 167 604 q 153 618 153 611 q 157 680 153 634 q 158 690 158 686 q 158 696 158 692 q 151 798 151 793 q 178 859 151 837 q 168 888 176 878 l 147 885 q 145 899 145 893 q 153 947 145 901 l 149 955 q 144 1011 144 966 q 142 1038 144 1018 l 125 1055 l 113 1055 l 112 1063 l 112 1063 q 115 1073 112 1069 q 134 1084 116 1074 l 152 1098 l 165 1103 q 196 1111 180 1108 l 203 1129 q 248 1141 231 1131 q 254 1116 253 1124 q 253 1103 254 1114 q 252 1085 252 1097 l 248 976 l 248 931 q 238 922 240 925 q 236 909 237 919 q 234 877 236 892 l 252 873 q 250 852 250 858 q 234 755 243 793 l 245 744 q 233 666 244 710 q 232 633 233 661 l 248 629 q 241 572 243 584 l 241 571 l 243 526 q 239 512 243 523 l 224 498 l 231 463 l 248 461 l 244 454 l 244 340 l 249 315 l 249 277 l 250 251 q 222 222 250 240 q 226 202 222 205 q 239 191 226 199 q 243 175 241 179 q 249 163 249 166 q 248 161 249 163 q 247 133 246 154 l 250 -1 l 236 -16 l 250 -24 l 250 -154 l 250 -164 q 239 -166 241 -165 l 215 -184 q 183 -191 210 -186 q 159 -205 171 -199 q 130 -214 144 -214 q 106 -208 121 -214 z "},"J":{"ha":945,"x_min":-3,"x_max":825,"o":"m 45 -75 l 37 -85 q 42 -101 39 -98 l 54 -111 q 66 -132 56 -113 q 122 -189 76 -146 q 132 -190 130 -189 q 141 -205 134 -192 q 153 -218 145 -213 q 170 -231 170 -231 l 237 -205 l 271 -210 q 286 -205 275 -210 l 288 -195 q 320 -184 312 -187 q 339 -179 332 -179 l 375 -182 l 376 -182 q 406 -159 382 -181 l 422 -151 l 437 -143 q 468 -136 458 -141 l 463 -123 q 496 -109 473 -116 q 515 -100 503 -107 q 554 -81 526 -94 l 618 -33 q 637 -24 621 -31 q 643 1 642 -2 q 663 31 644 3 l 668 45 l 701 120 q 718 168 718 165 q 715 184 716 178 q 715 186 715 186 q 735 209 715 197 q 774 253 774 232 q 767 264 774 260 l 736 281 l 721 324 q 713 342 713 342 q 720 352 713 347 q 768 376 727 356 l 722 397 q 711 412 711 403 q 711 415 711 413 q 728 431 720 421 q 739 439 732 437 q 720 455 731 450 q 718 470 718 466 q 717 486 718 482 q 709 494 718 487 q 710 519 710 508 q 709 534 710 528 q 705 564 705 563 q 715 592 706 570 q 724 618 719 601 q 709 643 709 629 q 709 651 709 646 l 696 660 l 698 668 l 698 765 l 697 789 q 689 834 696 818 q 689 835 689 835 l 699 846 l 705 856 q 749 884 749 882 q 688 914 749 886 q 689 941 688 937 q 696 951 690 945 q 691 967 691 960 q 692 970 691 968 q 694 979 694 979 l 694 983 l 692 996 q 684 1026 684 1013 l 659 1038 q 644 1050 656 1045 l 649 1066 q 678 1077 673 1074 q 711 1100 682 1078 l 734 1113 l 751 1126 l 768 1133 q 785 1140 782 1140 q 808 1131 798 1140 q 814 1118 815 1124 l 808 1071 l 804 1021 q 795 1000 804 1016 q 791 988 791 993 q 791 983 791 986 q 806 962 801 974 q 744 917 744 920 q 768 899 744 907 q 805 873 804 887 q 804 871 805 873 q 802 859 803 867 q 783 842 783 853 q 785 833 783 838 l 799 833 q 798 817 798 822 q 802 781 798 801 q 785 740 785 768 q 787 728 785 733 l 803 729 l 806 716 l 810 582 q 800 545 810 577 q 799 542 799 543 q 810 513 799 539 l 814 474 l 818 456 l 817 426 l 821 396 q 825 331 825 337 q 821 307 825 324 q 819 298 819 304 q 821 283 819 292 l 817 283 l 802 270 l 802 237 q 807 235 804 235 q 816 236 811 235 q 823 203 823 214 q 816 170 823 193 q 808 143 810 147 q 800 138 806 138 q 783 142 797 138 q 787 125 787 128 l 786 109 l 784 86 l 773 70 q 756 41 762 47 q 734 23 753 39 q 720 2 734 22 q 686 -34 714 -9 q 645 -72 652 -64 q 603 -104 629 -87 q 574 -125 585 -119 q 530 -144 568 -128 q 492 -163 506 -158 q 451 -183 483 -167 q 414 -198 439 -189 q 376 -216 387 -213 q 339 -221 370 -217 q 302 -236 331 -222 l 283 -239 l 245 -248 l 218 -250 q 170 -257 182 -257 q 110 -249 143 -257 q 81 -240 87 -243 q 44 -213 62 -229 l 35 -205 l 32 -199 q 23 -162 24 -182 l 37 -156 q 15 -127 22 -131 q 3 -119 3 -122 q 2 -91 3 -118 l -1 -75 l -1 -47 l -3 -29 q 13 -16 -2 -16 q 29 -33 24 -16 q 45 -75 41 -62 z "},"K":{"ha":1228,"x_min":103,"x_max":1232,"o":"m 103 1061 l 172 1109 l 178 1108 q 222 1143 205 1126 l 234 1140 l 234 1140 q 243 1141 237 1140 q 247 1141 245 1141 q 260 1135 254 1141 q 265 1122 265 1128 l 264 1099 l 264 1065 q 258 1021 258 1031 q 262 981 258 1008 l 241 955 l 222 958 l 225 940 l 225 919 l 229 907 l 233 907 l 245 916 q 253 900 253 906 q 252 892 253 898 q 250 882 250 886 l 252 745 l 250 717 q 246 666 250 669 l 230 651 q 227 642 227 648 q 241 618 227 631 q 252 586 243 604 l 247 562 l 249 541 l 248 506 q 250 453 250 471 l 260 448 l 260 435 l 264 431 q 300 447 296 444 q 351 482 339 475 l 354 480 l 374 505 l 475 610 l 485 632 l 555 722 q 581 749 566 736 q 615 792 591 760 l 607 804 l 607 805 q 661 880 618 829 l 672 883 q 686 915 674 896 l 700 938 l 711 955 l 730 988 q 764 1032 749 1008 q 787 1070 779 1057 q 809 1076 805 1073 l 824 1088 q 846 1103 844 1102 q 856 1105 847 1105 q 874 1115 863 1105 q 899 1126 888 1126 l 904 1117 l 904 1116 q 890 1092 904 1112 q 876 1063 876 1064 q 854 1044 876 1063 q 819 998 824 1006 q 801 968 810 979 l 760 972 l 758 942 l 769 937 q 761 909 769 920 q 740 886 755 901 q 732 872 738 877 q 718 856 725 864 l 696 840 q 686 813 687 815 q 673 803 684 810 q 670 786 673 790 q 648 765 667 781 q 572 673 614 731 l 536 633 q 494 582 507 595 l 490 563 q 470 550 473 553 q 448 514 467 546 q 426 499 429 502 q 418 481 423 496 l 400 479 q 391 468 393 471 q 381 454 381 456 q 382 452 381 453 l 382 449 l 447 372 q 468 328 468 347 q 467 317 468 323 q 489 316 482 317 q 513 297 496 314 q 536 268 529 281 q 551 262 545 267 q 577 231 577 243 q 571 214 577 224 q 602 193 581 204 l 621 180 l 637 176 q 652 161 639 178 l 667 161 q 726 110 687 138 l 811 49 l 833 37 q 832 26 832 31 q 843 12 832 14 q 861 7 854 10 l 861 -5 q 880 -11 865 -7 q 915 -20 895 -16 q 946 -37 932 -24 q 1023 -85 1021 -83 q 1031 -105 1028 -89 q 1065 -119 1050 -110 l 1080 -106 q 1123 -119 1096 -114 q 1169 -125 1150 -125 q 1172 -125 1170 -125 q 1219 -118 1219 -118 q 1225 -123 1221 -118 l 1227 -129 q 1164 -174 1232 -160 l 1154 -189 q 1128 -193 1134 -190 q 1107 -205 1126 -193 l 1092 -203 q 1070 -200 1073 -201 q 1059 -193 1068 -199 l 1035 -196 q 1006 -174 1015 -180 q 970 -155 1000 -169 q 941 -141 952 -144 q 912 -127 932 -139 q 886 -113 890 -114 q 864 -101 867 -104 l 849 -85 l 838 -79 q 811 -59 824 -65 q 813 -43 813 -50 q 810 -35 813 -38 q 785 -24 802 -24 q 757 -33 782 -24 q 755 -33 755 -33 q 732 -16 742 -33 q 725 9 730 -12 q 716 22 724 16 q 707 26 711 26 q 690 23 707 26 q 688 23 689 23 q 640 50 677 23 q 581 95 629 59 l 550 127 q 537 141 538 139 q 517 154 531 149 q 454 194 492 172 q 464 224 458 211 q 431 236 437 236 q 421 235 427 236 q 393 259 411 245 l 365 291 q 348 309 351 305 q 338 332 344 316 q 317 334 323 332 q 283 363 309 338 q 261 372 273 372 q 245 366 252 372 q 239 351 239 360 q 239 347 239 349 l 255 348 q 255 335 255 340 q 252 311 255 329 q 252 300 252 305 q 256 256 252 295 l 256 231 l 256 209 q 252 199 256 203 q 245 189 245 193 q 239 170 243 181 q 259 161 253 168 q 252 62 252 134 q 244 50 252 50 q 228 60 237 50 l 222 60 q 218 53 218 56 q 250 27 218 28 q 254 -7 253 20 l 254 -20 q 245 -40 254 -27 l 231 -48 l 237 -66 q 253 -57 248 -57 q 260 -89 260 -57 q 263 -104 260 -94 q 266 -120 266 -115 q 265 -125 266 -121 q 241 -150 246 -136 q 205 -163 218 -150 l 208 -172 q 168 -189 180 -180 q 141 -206 147 -206 q 123 -202 134 -206 q 127 -178 127 -184 l 127 -176 q 127 -169 127 -172 q 126 -165 126 -165 l 197 -124 l 132 -88 q 138 -83 132 -88 q 151 -62 151 -73 l 149 -35 l 205 -5 l 154 22 l 156 47 l 155 113 l 157 128 q 149 150 149 146 q 150 161 149 155 q 160 203 160 199 l 164 306 l 201 346 q 161 375 173 361 l 165 380 l 171 380 l 176 375 l 178 375 l 178 380 q 191 404 189 391 l 170 401 q 163 484 163 453 l 166 522 l 166 522 l 165 547 l 167 559 q 170 595 167 590 q 176 612 176 604 l 156 623 q 162 660 161 635 l 163 679 l 161 701 q 159 749 161 739 q 149 772 157 760 q 155 787 153 783 q 161 801 157 795 q 157 820 157 809 q 174 828 165 826 l 174 857 q 156 848 164 848 q 152 892 153 858 q 145 963 149 937 q 157 981 154 972 q 138 1014 138 998 q 142 1040 138 1023 q 104 1057 105 1044 l 103 1061 z "},"L":{"ha":1035,"x_min":97,"x_max":1036,"o":"m 97 -211 q 114 -194 103 -202 q 146 -169 123 -187 q 144 -157 144 -163 q 149 -150 144 -154 q 195 -89 171 -119 q 223 -58 201 -79 l 166 -45 l 224 -7 l 168 48 l 170 71 l 171 91 q 181 126 181 116 l 181 127 l 181 148 q 194 165 181 159 l 201 169 l 212 167 q 214 168 212 167 q 216 174 216 172 q 200 194 216 180 l 200 212 l 180 208 l 175 213 q 180 233 180 229 l 178 264 l 181 324 q 175 357 181 328 q 180 387 180 374 l 190 387 q 198 422 190 404 q 176 435 176 425 q 178 449 176 439 q 180 477 180 456 q 180 498 180 486 q 180 515 180 509 q 179 528 180 522 q 176 538 176 535 q 180 547 176 541 l 193 547 l 195 558 l 184 561 l 184 566 q 190 582 185 574 l 199 594 q 207 597 199 595 l 209 606 l 193 613 l 199 632 q 182 626 189 626 q 172 640 172 626 q 175 669 172 642 l 175 669 l 172 724 l 172 752 q 171 772 172 760 q 171 781 171 779 q 177 820 171 796 l 169 829 l 169 888 q 173 890 173 889 q 174 907 174 891 q 165 930 165 924 q 165 939 165 934 q 155 954 155 950 l 155 980 q 152 1006 153 1000 q 141 1027 151 1015 l 129 1030 l 122 1050 q 142 1061 137 1058 q 174 1070 158 1069 l 186 1076 l 199 1082 l 210 1093 l 218 1096 q 270 1111 252 1111 q 285 1098 285 1111 l 285 1078 l 289 1061 q 280 1040 280 1048 q 281 1020 280 1032 q 283 984 282 1008 l 286 984 l 286 979 q 271 977 276 977 q 260 978 267 977 l 257 975 q 241 956 256 963 l 256 932 l 273 935 l 283 918 l 290 918 l 292 916 q 260 878 283 900 l 252 833 l 220 798 l 230 772 l 236 682 q 259 669 238 677 q 279 652 279 661 q 278 650 279 652 q 275 640 277 647 l 264 637 q 280 587 280 623 q 259 562 280 574 q 270 542 267 547 q 280 511 280 523 q 274 489 280 511 l 275 484 q 275 483 275 484 q 274 471 274 481 q 273 395 275 414 q 273 378 273 389 q 274 342 273 360 q 275 332 275 336 q 273 323 275 328 l 272 326 l 258 316 q 275 281 260 295 l 273 273 l 276 177 l 277 166 q 277 154 277 159 q 267 100 277 146 l 264 64 l 258 54 q 256 41 257 53 q 252 10 253 22 l 267 12 q 274 -10 274 -7 l 273 -117 q 288 -135 273 -131 q 308 -145 299 -138 q 319 -144 315 -144 q 341 -149 324 -144 l 368 -152 l 413 -162 l 453 -162 l 475 -193 l 531 -165 l 555 -170 l 573 -172 l 591 -178 q 616 -174 592 -178 q 624 -173 621 -173 q 654 -179 629 -173 q 689 -174 687 -174 q 723 -176 699 -174 q 739 -177 732 -177 q 770 -172 748 -177 l 803 -170 q 871 -161 835 -163 q 891 -157 886 -160 q 905 -154 901 -154 q 924 -186 907 -154 q 926 -186 925 -186 q 945 -169 936 -186 q 950 -138 950 -160 q 981 -129 973 -132 q 1033 -110 1023 -110 q 1036 -111 1033 -110 q 1031 -136 1036 -131 l 1021 -151 l 997 -185 q 974 -210 983 -199 l 958 -210 l 950 -224 l 907 -191 l 817 -224 q 811 -222 817 -224 q 765 -219 800 -219 l 763 -219 q 652 -227 758 -219 l 608 -220 q 583 -224 583 -224 q 555 -212 568 -224 q 532 -192 532 -192 l 461 -219 l 444 -216 l 428 -214 l 411 -212 q 356 -210 366 -211 l 363 -205 l 335 -205 l 331 -219 q 314 -209 318 -212 q 290 -201 304 -203 q 241 -219 269 -219 q 203 -215 226 -219 q 168 -227 186 -227 q 144 -222 162 -227 q 97 -211 117 -217 z "},"M":{"ha":1430,"x_min":103,"x_max":1344,"o":"m 157 186 q 176 210 176 197 q 164 222 176 217 q 163 273 163 252 q 164 299 163 286 q 169 342 169 337 q 167 359 169 347 l 185 363 q 186 370 186 368 q 180 384 186 373 q 170 408 174 396 q 184 419 181 414 q 189 440 188 425 q 175 461 178 454 l 214 488 l 212 489 l 172 503 l 190 556 q 164 577 185 578 q 172 614 172 608 q 170 629 172 616 l 170 650 q 168 695 168 677 q 178 725 168 713 q 163 766 163 748 q 170 789 163 775 q 160 806 160 800 q 162 817 160 810 q 165 854 164 823 q 166 871 165 858 l 157 871 q 159 922 159 884 q 168 951 168 948 q 156 986 168 959 q 135 993 142 987 q 143 1010 136 1002 q 190 1051 162 1035 q 240 1085 227 1072 l 252 1085 q 284 1036 278 1053 q 294 1015 290 1018 l 304 1006 q 307 984 306 1004 q 318 947 314 962 q 279 932 279 942 q 302 911 279 921 q 330 924 317 920 l 332 922 q 345 869 334 888 q 354 849 354 856 q 354 848 354 849 q 352 827 352 836 q 374 803 352 814 q 380 777 376 789 q 382 770 382 774 q 380 755 382 763 q 404 729 404 740 q 380 703 404 718 l 390 669 l 395 668 q 418 687 410 687 q 433 685 424 687 q 435 679 433 685 q 436 669 436 677 q 436 666 436 668 q 435 663 435 663 q 441 648 435 657 q 472 583 469 600 q 480 553 475 570 q 481 549 481 551 q 478 531 481 541 l 468 531 q 467 528 467 528 q 474 511 467 522 l 484 515 l 484 515 q 493 510 490 515 q 499 485 496 506 l 516 479 q 530 445 519 462 q 562 375 545 421 q 573 355 562 373 q 590 304 585 333 l 592 296 l 590 278 q 602 264 590 275 q 613 250 607 260 l 629 246 q 641 205 635 217 l 654 201 q 684 138 661 178 l 714 71 l 728 50 q 745 23 740 26 q 753 22 747 22 q 777 60 764 35 l 798 98 l 805 113 l 817 134 l 822 155 q 846 195 844 192 q 866 210 848 198 q 875 222 875 216 q 874 226 875 224 q 867 252 867 251 q 879 269 867 252 q 888 288 883 274 l 906 286 q 913 300 913 295 q 911 314 913 305 q 911 326 911 321 q 914 347 911 339 l 946 429 q 959 471 956 466 q 980 491 964 479 q 975 512 975 507 q 1005 587 975 521 l 1019 630 q 1040 675 1038 670 q 1064 685 1045 684 q 1055 716 1057 699 l 1054 723 l 1060 749 l 1059 762 l 1129 867 q 1134 897 1132 893 q 1154 925 1149 920 q 1186 947 1156 926 l 1193 956 l 1194 957 q 1135 970 1192 965 l 1118 970 l 1096 1001 q 1107 1024 1107 1024 q 1119 1030 1107 1025 l 1141 1044 l 1162 1053 q 1199 1072 1189 1068 q 1238 1080 1207 1074 q 1244 1033 1244 1054 l 1246 1016 l 1247 1006 l 1250 987 l 1247 949 l 1247 926 l 1244 902 l 1245 882 l 1244 872 q 1249 860 1244 869 q 1234 861 1241 861 q 1223 852 1223 861 q 1246 838 1223 842 l 1236 815 l 1238 812 l 1246 812 l 1251 808 q 1251 787 1251 792 q 1250 766 1250 771 q 1255 712 1250 764 q 1255 709 1255 711 q 1240 677 1255 701 q 1239 655 1239 674 q 1244 641 1239 648 l 1262 643 l 1270 635 q 1264 599 1264 619 q 1268 557 1264 587 l 1272 435 q 1274 419 1272 429 q 1276 391 1276 402 q 1273 378 1276 386 l 1255 380 q 1255 373 1255 376 q 1248 352 1255 366 q 1275 337 1261 339 q 1280 308 1280 324 l 1289 256 l 1293 224 l 1298 216 q 1289 184 1289 186 q 1284 166 1287 177 l 1310 147 q 1310 123 1310 134 q 1310 113 1310 118 q 1307 97 1307 98 q 1314 75 1307 90 l 1293 71 l 1284 44 q 1301 35 1291 39 q 1315 11 1311 32 q 1319 -10 1318 -10 l 1327 -26 q 1338 -74 1329 -32 q 1344 -140 1339 -105 q 1313 -173 1335 -150 q 1235 -201 1274 -202 q 1221 -205 1232 -201 q 1209 -208 1214 -208 q 1198 -203 1206 -208 q 1208 -157 1206 -182 l 1211 -142 q 1204 -121 1204 -122 q 1223 -101 1204 -110 l 1221 -83 q 1201 -52 1201 -65 q 1203 -37 1201 -45 q 1215 11 1215 9 l 1200 55 l 1200 56 l 1203 109 l 1203 110 q 1196 163 1204 123 q 1194 182 1194 176 l 1209 183 q 1205 210 1206 206 q 1190 218 1204 216 q 1181 253 1187 233 q 1178 294 1178 266 q 1179 317 1178 297 l 1179 317 q 1179 325 1179 322 q 1178 327 1178 327 q 1186 351 1186 350 q 1182 371 1186 353 l 1179 387 l 1173 399 l 1168 469 l 1164 496 l 1168 554 l 1165 576 l 1215 595 l 1165 608 q 1172 623 1172 619 q 1151 654 1172 648 q 1150 656 1150 656 q 1174 674 1150 670 l 1206 680 l 1152 709 l 1152 743 q 1140 761 1151 749 l 1134 761 q 1128 743 1130 747 q 1116 715 1117 716 q 1115 695 1115 715 l 1098 681 q 1098 673 1098 676 q 1082 637 1098 665 l 1074 613 l 1064 590 l 1057 566 l 1042 545 l 1038 523 l 1033 513 l 1029 487 l 1000 418 l 987 378 q 972 366 983 374 l 970 346 l 953 336 q 942 283 952 321 l 924 274 q 926 254 926 262 q 897 199 926 221 q 899 189 899 193 q 895 180 899 186 q 882 154 892 177 l 865 123 l 848 75 l 838 54 l 829 32 l 818 14 l 810 -3 q 796 -38 801 -18 q 760 -134 771 -101 q 746 -134 751 -134 q 740 -134 743 -134 q 724 -134 726 -134 q 712 -129 717 -134 q 685 -71 707 -123 q 659 -37 682 -65 q 648 -7 652 -26 q 640 20 644 5 l 627 22 q 609 75 620 41 q 578 131 604 90 q 569 164 569 146 q 576 186 569 167 q 576 189 576 187 q 567 207 576 196 l 545 199 q 528 235 532 227 q 513 262 518 252 l 507 273 l 502 292 q 479 340 486 321 q 470 348 471 347 q 447 404 458 376 q 414 468 420 451 l 416 470 l 427 473 q 417 494 420 489 q 407 515 409 509 q 395 547 399 545 q 389 549 391 549 q 374 546 382 549 q 338 629 338 614 q 339 642 338 634 q 322 661 327 656 q 314 675 315 668 q 313 701 313 678 q 298 730 301 714 q 289 756 296 742 l 280 758 q 242 802 262 802 q 233 800 238 802 q 239 764 239 784 l 243 739 l 243 707 q 248 669 248 670 q 247 656 248 665 q 246 640 246 648 q 249 595 246 633 l 249 594 l 245 574 l 236 567 l 239 544 l 230 540 l 230 523 q 252 511 252 522 q 252 492 252 511 l 250 479 l 250 422 l 248 397 l 249 372 q 239 355 249 366 l 244 319 l 234 315 q 231 298 231 305 q 242 267 231 296 q 242 265 242 267 q 240 249 242 260 q 238 224 238 239 q 239 208 238 216 q 239 178 239 187 q 234 144 239 172 q 230 98 230 122 q 237 62 230 79 q 224 48 233 54 q 196 19 196 31 q 208 -3 196 11 l 221 14 l 227 14 l 231 9 q 229 -5 229 1 q 237 -26 229 -10 q 237 -28 237 -28 q 208 -47 237 -37 q 181 -68 181 -57 q 202 -84 181 -77 l 239 -97 q 235 -116 235 -113 q 236 -130 235 -122 l 219 -140 q 222 -155 222 -149 q 220 -161 222 -158 q 178 -176 218 -163 l 156 -189 q 112 -203 113 -203 q 104 -201 110 -203 q 104 -199 104 -199 l 103 -193 l 103 -193 q 117 -174 103 -190 q 145 -152 121 -168 q 165 -134 161 -141 l 176 -114 l 186 -100 l 132 -67 q 137 -60 132 -67 q 147 -29 146 -51 q 148 11 148 9 l 153 31 q 155 41 155 35 q 151 57 155 45 l 156 73 l 150 96 q 163 149 163 144 q 157 186 163 159 z "},"N":{"ha":1303,"x_min":121,"x_max":1183,"o":"m 243 1100 l 250 1078 l 270 1078 q 269 1064 269 1070 q 289 1029 269 1053 q 286 1006 286 1014 q 286 994 286 1002 q 294 994 291 994 q 311 987 303 994 q 324 977 317 981 l 335 949 q 352 930 346 940 q 368 908 359 918 l 385 913 q 418 857 391 896 q 465 798 448 814 q 486 763 481 780 q 501 737 488 754 l 568 648 q 581 627 581 631 q 576 614 581 621 q 586 596 583 602 q 600 578 595 580 q 614 574 601 576 l 625 560 l 632 560 l 634 562 q 648 543 645 548 q 682 498 676 504 l 703 481 q 721 450 709 475 l 738 429 l 758 401 l 785 367 q 792 341 791 342 q 819 331 797 336 l 846 297 l 854 295 l 854 292 q 874 276 868 282 q 916 217 877 275 l 966 162 q 996 127 981 139 q 990 109 990 116 q 1013 82 990 104 q 1076 10 1067 19 q 1102 -10 1086 1 l 1107 -1 l 1107 0 q 1105 7 1107 1 q 1102 33 1102 23 q 1109 114 1102 58 q 1112 149 1112 134 q 1111 162 1112 155 q 1105 210 1105 207 q 1122 241 1105 222 q 1099 299 1099 274 q 1103 321 1099 302 q 1103 325 1103 323 q 1097 364 1103 327 l 1099 418 q 1093 450 1093 446 q 1099 481 1093 453 q 1099 484 1099 482 q 1097 503 1099 490 q 1095 523 1095 513 q 1097 538 1095 530 q 1102 556 1102 554 q 1099 569 1102 556 q 1099 572 1099 571 q 1099 576 1099 574 q 1103 591 1103 590 q 1103 592 1103 591 q 1102 595 1102 594 l 1104 681 l 1102 737 l 1101 795 q 1093 844 1093 842 q 1101 866 1093 848 q 1101 868 1101 867 q 1086 886 1101 876 q 1090 908 1090 899 q 1084 934 1090 911 q 1082 961 1084 954 q 1076 985 1079 974 l 1090 999 l 1090 1006 l 1066 1023 q 1072 1037 1068 1033 q 1120 1066 1074 1040 q 1160 1089 1155 1089 q 1172 1075 1168 1089 q 1180 1041 1180 1049 q 1165 960 1180 1038 l 1169 852 q 1158 795 1158 812 q 1168 768 1158 783 l 1165 756 l 1163 643 l 1168 628 q 1152 610 1152 624 l 1167 557 l 1167 556 q 1148 547 1167 552 q 1128 530 1128 543 l 1166 458 l 1166 457 l 1161 410 l 1161 357 l 1161 356 q 1159 343 1159 343 l 1164 319 l 1166 284 l 1173 243 q 1171 234 1173 241 l 1155 231 q 1155 220 1155 223 q 1166 198 1155 208 q 1168 184 1168 186 l 1167 154 l 1171 125 l 1172 102 l 1177 82 l 1140 16 l 1179 -7 l 1081 -33 l 1183 -76 q 1175 -117 1175 -97 q 1181 -149 1175 -121 q 1181 -151 1181 -150 q 1153 -184 1181 -163 q 1103 -208 1125 -205 q 1099 -184 1100 -191 q 1085 -159 1097 -159 q 1056 -172 1076 -159 q 1036 -146 1045 -168 l 1019 -118 l 1013 -103 q 992 -65 992 -73 q 994 -47 992 -60 q 958 -33 983 -41 q 930 15 939 1 q 903 45 922 28 q 909 66 909 60 q 893 91 909 69 q 865 118 869 112 q 844 143 857 129 q 852 160 846 149 q 853 164 853 161 q 853 168 853 166 l 841 168 q 833 184 838 182 q 823 193 829 189 l 813 205 q 783 231 783 212 q 785 250 783 239 l 768 254 l 763 268 l 683 368 l 682 374 l 711 393 l 711 398 q 696 404 701 404 q 676 395 689 404 q 643 431 665 405 q 612 462 619 450 q 585 498 602 479 q 576 511 584 498 q 564 535 566 528 q 553 560 557 557 q 543 562 549 562 q 533 562 538 562 q 522 578 527 570 q 496 617 506 599 q 484 623 483 621 q 460 654 475 636 q 410 720 422 707 l 410 725 l 412 727 l 425 731 q 391 762 410 754 l 385 753 q 363 775 364 767 q 361 789 361 779 q 317 826 335 808 q 258 886 271 874 l 253 881 q 237 861 240 858 l 197 842 l 235 826 q 253 801 253 817 q 251 791 253 798 q 240 739 240 753 q 237 703 239 710 q 227 686 235 698 q 239 661 235 673 q 248 629 241 654 l 245 578 q 251 532 251 533 q 244 507 251 528 l 233 505 l 239 484 l 239 475 q 254 451 239 464 q 250 416 250 430 q 250 404 250 410 q 254 325 254 328 q 250 309 254 321 l 231 309 q 235 291 235 295 q 239 273 238 277 q 244 258 244 258 l 243 236 l 248 218 l 245 183 q 249 166 245 178 q 234 160 243 160 l 231 157 l 234 113 l 249 115 q 255 80 254 92 q 256 19 256 73 l 259 -9 q 264 -71 260 -50 q 266 -92 266 -83 q 264 -104 266 -94 l 269 -133 l 269 -133 q 259 -159 270 -139 q 252 -152 253 -152 q 176 -196 252 -152 q 156 -205 170 -200 q 153 -191 153 -195 q 161 -142 153 -187 l 162 -118 l 165 -93 q 165 -58 165 -58 q 170 -50 165 -58 q 180 -31 177 -35 q 209 -12 180 -30 q 220 16 220 12 q 218 21 220 18 q 183 43 217 22 q 172 60 172 50 q 172 62 172 60 q 173 76 173 67 q 172 90 173 84 q 170 115 170 111 q 183 144 170 125 l 165 153 q 172 224 166 168 l 173 259 q 176 279 176 275 q 175 286 176 281 q 170 342 170 309 q 166 389 168 379 q 165 401 165 397 q 180 420 165 408 q 174 434 174 429 q 174 439 174 436 q 176 455 176 449 l 166 492 l 166 520 q 165 531 166 522 q 165 562 165 549 q 167 595 165 570 q 171 623 170 621 q 180 648 180 648 q 178 652 180 648 q 152 671 152 653 q 153 683 152 675 q 153 696 153 688 q 151 736 153 709 l 161 744 l 163 755 q 183 767 180 760 q 184 778 184 770 q 174 810 184 791 l 160 801 l 153 808 q 204 831 204 825 q 147 853 204 831 l 151 911 q 143 966 143 958 q 143 975 143 969 l 123 979 q 122 991 123 987 q 121 997 121 994 q 125 1006 121 1002 q 148 1021 125 1008 l 155 1032 l 168 1043 q 210 1081 208 1079 q 243 1100 221 1089 z "},"O":{"ha":1525,"x_min":72,"x_max":1454,"o":"m 89 485 q 105 480 98 480 q 112 491 112 480 q 93 517 112 500 q 96 536 94 532 l 109 568 q 168 702 130 644 q 201 764 193 753 q 250 830 232 809 l 256 827 l 267 838 q 267 845 267 842 q 281 873 267 857 q 328 913 293 886 q 340 932 338 931 q 347 935 342 935 l 347 935 l 363 928 l 375 948 l 372 956 q 412 972 393 970 q 422 998 416 991 q 465 1019 427 1003 q 491 1034 485 1027 q 513 1044 502 1044 q 526 1058 523 1057 l 559 1074 l 586 1086 l 606 1093 q 657 1114 632 1107 q 726 1120 681 1118 l 759 1124 l 787 1127 q 811 1131 808 1131 q 833 1130 819 1131 q 846 1129 840 1129 q 894 1125 885 1128 q 928 1116 928 1116 l 991 1122 q 996 1118 991 1122 q 1012 1100 1006 1104 q 1046 1095 1016 1097 q 1079 1083 1055 1095 l 1095 1080 l 1108 1076 l 1118 1072 q 1130 1052 1124 1070 q 1142 1060 1137 1055 q 1176 1047 1167 1053 q 1192 1019 1184 1042 q 1209 1028 1202 1028 q 1268 987 1213 1028 q 1292 966 1288 972 q 1299 955 1295 961 q 1310 939 1303 949 l 1298 918 l 1303 918 l 1303 897 q 1318 905 1314 905 q 1343 888 1328 905 l 1355 888 q 1367 867 1363 871 q 1382 835 1378 849 q 1402 803 1399 813 q 1391 782 1391 792 q 1391 777 1391 780 q 1424 741 1416 756 q 1428 686 1428 732 l 1438 649 l 1438 627 q 1443 591 1443 597 q 1440 581 1443 584 q 1426 566 1440 580 q 1422 540 1422 563 q 1429 519 1422 527 q 1443 507 1430 517 q 1449 494 1443 507 q 1454 483 1454 485 q 1451 469 1454 481 q 1449 454 1449 463 q 1449 446 1449 450 q 1450 402 1450 414 q 1437 351 1450 393 l 1434 339 l 1426 319 q 1415 279 1419 286 q 1401 262 1411 272 l 1405 249 q 1391 235 1392 241 l 1391 227 q 1371 190 1392 220 q 1293 97 1329 132 q 1255 50 1260 55 q 1228 30 1252 46 q 1199 1 1223 27 q 1175 -18 1185 -12 l 1066 -86 l 1046 -94 l 871 -176 l 849 -180 l 711 -217 l 705 -218 l 595 -231 l 564 -222 l 541 -218 l 519 -212 q 494 -210 498 -212 q 486 -199 490 -208 l 488 -197 l 479 -184 q 451 -190 467 -185 q 449 -191 449 -191 q 436 -176 440 -191 q 425 -130 435 -175 q 419 -114 425 -128 q 417 -109 417 -109 q 404 -177 412 -110 q 349 -143 388 -165 q 295 -111 311 -120 q 292 -96 294 -100 q 279 -87 290 -92 q 274 -67 277 -75 q 264 -45 269 -58 q 238 -37 251 -45 q 225 -41 227 -41 q 203 -20 219 -41 q 180 8 186 2 q 177 34 180 29 q 163 46 176 36 q 159 52 161 49 q 145 78 157 55 l 115 127 q 101 168 101 162 q 111 183 101 173 l 121 183 l 119 203 q 102 212 113 208 q 85 248 87 216 q 80 289 85 273 q 72 382 73 312 l 72 384 q 74 408 72 386 q 75 449 75 410 q 89 485 77 471 m 219 180 l 227 170 l 221 169 l 239 164 q 260 128 248 140 q 268 111 267 121 q 281 94 276 98 q 269 72 269 79 q 277 59 269 65 q 290 53 283 53 q 314 60 294 53 q 323 45 320 47 l 340 32 q 384 -2 359 13 q 380 -26 380 -16 q 387 -40 380 -35 q 411 -49 397 -49 q 420 -46 414 -49 q 450 -69 432 -58 q 455 -85 452 -83 q 465 -90 456 -86 q 492 -102 475 -92 q 515 -115 511 -114 q 544 -132 529 -120 q 595 -142 557 -132 q 640 -151 632 -149 q 661 -158 657 -158 q 672 -156 661 -158 q 683 -155 677 -155 q 697 -156 690 -155 q 707 -157 703 -157 q 723 -152 712 -157 q 743 -166 734 -166 q 782 -154 749 -166 l 805 -151 q 842 -136 836 -138 q 887 -136 845 -136 l 907 -123 q 964 -94 951 -102 q 985 -102 978 -102 q 1003 -87 994 -102 q 995 -71 995 -78 q 1017 -57 995 -65 q 1043 -41 1023 -55 q 1082 -20 1050 -34 l 1096 -31 q 1123 -3 1107 -11 l 1125 12 q 1189 61 1141 21 l 1211 79 l 1235 111 l 1257 135 l 1274 168 l 1293 197 q 1318 249 1308 235 q 1316 264 1316 258 q 1327 279 1316 279 q 1336 272 1330 279 q 1345 261 1343 263 l 1359 277 q 1364 277 1362 277 q 1377 284 1377 277 q 1372 303 1377 292 q 1345 292 1356 294 q 1338 310 1338 302 q 1343 346 1338 312 l 1343 372 l 1400 385 l 1337 410 l 1368 414 q 1399 473 1399 473 q 1398 475 1399 474 q 1364 488 1385 488 q 1335 486 1351 488 q 1359 507 1359 491 q 1331 538 1359 525 q 1333 559 1333 552 q 1327 603 1333 566 q 1322 644 1323 627 q 1311 659 1311 656 l 1299 727 l 1288 745 l 1277 768 l 1262 789 q 1221 854 1244 835 q 1222 878 1222 872 q 1217 897 1222 886 l 1192 890 q 1160 926 1182 905 q 1137 947 1140 945 q 1086 975 1133 949 q 1055 1006 1067 987 q 1043 1001 1046 1001 q 1026 1011 1037 1001 q 1014 1011 1019 1011 q 962 1031 998 1011 q 965 1053 965 1044 q 941 1072 965 1064 q 929 1057 935 1066 q 919 1046 925 1050 q 880 1054 904 1051 q 840 1067 844 1067 q 814 1063 838 1067 l 807 1094 l 805 1062 q 786 1068 788 1068 q 744 1061 783 1068 q 728 1059 738 1059 q 705 1061 719 1059 q 678 1063 688 1063 q 650 1059 675 1063 l 616 1053 l 576 1034 l 545 1029 q 530 1013 540 1027 l 516 1015 l 513 1000 q 475 981 488 991 l 475 969 q 414 932 444 958 q 349 884 373 895 q 336 862 341 868 q 290 812 334 858 q 277 787 286 798 q 237 724 269 778 q 210 653 231 712 l 197 637 l 190 603 l 182 591 q 180 564 182 568 q 167 533 180 561 q 166 529 166 532 l 168 524 l 168 498 l 168 395 l 168 390 l 168 386 q 170 372 168 380 q 172 363 172 363 l 170 329 q 178 315 170 326 q 193 281 190 299 l 198 257 l 197 238 q 220 203 197 235 q 221 196 221 201 q 219 180 221 189 m 199 175 l 203 175 l 213 172 l 217 172 l 217 172 l 216 173 l 206 176 l 199 176 l 199 175 z "},"P":{"ha":922,"x_min":97,"x_max":890,"o":"m 251 1124 q 292 1139 274 1137 q 347 1141 315 1141 q 414 1128 368 1141 l 460 1126 l 501 1115 q 534 1113 502 1113 q 557 1086 541 1086 q 578 1101 567 1086 q 588 1101 584 1101 q 616 1090 591 1101 q 661 1082 635 1085 l 691 1075 l 711 1072 q 750 1064 734 1067 q 789 1047 758 1062 l 804 1049 q 829 1034 825 1036 q 846 1033 834 1033 q 854 1018 851 1020 l 877 1002 q 885 989 880 1000 q 890 976 890 981 q 884 943 890 975 l 873 920 q 863 890 866 894 q 854 885 861 887 q 854 888 854 886 q 851 894 854 891 q 834 882 839 888 q 825 878 832 880 q 802 863 802 873 q 812 842 802 855 q 798 830 801 833 q 777 812 780 814 l 752 805 q 725 778 743 802 q 697 773 707 777 q 659 754 692 772 l 628 747 l 597 737 l 574 737 q 562 735 565 735 q 555 735 559 735 q 543 721 551 724 q 505 714 538 720 l 490 710 l 463 713 l 437 703 q 370 699 379 701 q 339 685 363 696 q 318 682 337 684 q 267 670 298 681 q 277 651 278 660 l 274 623 q 269 528 272 545 l 263 528 l 261 530 l 258 527 q 260 509 260 513 q 267 419 267 469 l 274 385 l 271 294 l 271 269 l 271 221 l 273 174 q 269 163 273 172 l 256 161 l 258 135 l 276 135 q 277 129 277 131 q 274 113 277 124 q 272 94 272 102 l 275 68 l 275 67 l 271 59 l 258 54 q 256 39 256 45 q 263 17 256 31 q 282 0 282 17 q 278 -66 282 -26 q 277 -76 277 -72 q 292 -130 277 -82 q 293 -141 293 -135 q 285 -160 293 -155 q 247 -172 281 -162 q 241 -190 244 -184 q 215 -202 237 -197 q 158 -220 172 -216 q 147 -199 147 -206 q 160 -159 147 -197 l 158 -134 q 164 -100 158 -134 q 181 -76 166 -89 q 170 -43 170 -50 l 170 -43 l 176 -5 l 180 25 q 191 39 182 29 q 172 73 183 62 q 176 91 176 89 l 176 176 q 180 198 180 196 q 174 219 180 203 l 196 235 q 193 254 193 249 q 190 271 191 267 q 180 281 190 273 q 182 301 182 296 l 180 357 q 196 387 180 367 q 185 412 195 394 q 184 416 184 413 q 189 434 184 417 l 189 470 l 191 499 q 172 536 191 521 q 174 554 172 550 q 176 574 176 571 q 173 591 176 575 l 172 619 q 165 646 165 644 q 173 671 165 650 q 174 684 174 675 q 173 704 174 693 q 171 728 172 721 q 166 770 170 745 q 165 797 165 795 q 160 805 165 798 l 157 805 l 151 845 q 165 869 165 857 q 154 893 165 883 q 172 911 172 902 q 149 953 172 916 q 140 985 144 973 l 150 1002 q 134 1027 134 1023 q 136 1040 134 1032 q 141 1057 138 1045 q 123 1065 130 1065 q 101 1061 113 1065 q 97 1076 97 1068 q 110 1095 97 1087 q 161 1114 123 1102 l 182 1128 l 195 1133 q 230 1144 224 1144 q 251 1124 244 1144 m 247 933 l 259 933 q 258 914 258 918 q 256 842 256 906 q 255 812 255 831 l 269 805 q 266 782 266 789 l 266 781 q 267 767 266 774 q 267 760 267 762 q 265 744 267 755 q 275 741 272 741 q 292 743 275 741 q 296 743 294 743 q 319 742 305 743 l 319 726 q 325 726 322 726 q 343 730 333 726 q 351 738 347 736 q 438 749 355 739 q 499 755 478 751 q 518 758 513 757 q 531 766 526 763 l 551 767 q 574 773 572 773 q 589 770 581 773 q 606 779 598 778 q 661 800 620 783 q 731 840 696 800 q 751 869 738 848 q 763 901 755 876 q 774 926 774 921 q 750 970 774 953 q 707 997 746 974 q 658 1013 705 998 q 640 1019 652 1015 l 644 1034 l 620 1042 q 595 1028 605 1028 q 573 1034 593 1028 q 528 1039 534 1037 q 509 1057 519 1042 q 486 1055 492 1056 q 476 1048 485 1054 l 471 1048 q 435 1052 446 1048 q 398 1063 427 1053 q 386 1111 399 1094 q 380 1114 383 1114 q 349 1067 370 1114 q 282 1073 331 1073 q 269 1069 277 1073 q 266 1047 266 1053 q 257 989 262 1002 q 256 983 256 987 q 257 970 256 977 q 246 949 245 956 l 247 945 l 247 940 l 247 933 z "},"Q":{"ha":1563,"x_min":75,"x_max":1798,"o":"m 450 958 q 460 979 455 973 q 479 988 462 980 l 498 998 l 520 1008 q 568 1034 554 1030 l 577 1029 q 618 1059 603 1049 q 658 1074 633 1067 q 693 1084 674 1078 q 759 1095 721 1092 l 779 1098 q 814 1086 782 1098 q 817 1086 815 1086 q 842 1101 829 1086 q 929 1092 859 1097 l 971 1083 q 1020 1072 1013 1075 q 1051 1061 1042 1061 l 1051 1061 q 1061 1062 1053 1061 q 1069 1063 1065 1063 q 1112 1035 1097 1063 q 1158 1024 1127 1029 l 1183 1008 q 1206 997 1204 999 q 1215 971 1210 993 q 1227 917 1223 918 q 1227 918 1227 917 q 1241 977 1237 940 q 1263 964 1259 970 l 1277 949 q 1291 941 1278 947 q 1359 880 1312 928 q 1372 864 1369 868 q 1377 848 1375 856 q 1407 816 1383 831 q 1393 783 1393 791 q 1394 774 1393 781 q 1398 773 1398 773 q 1414 776 1399 773 q 1425 777 1417 777 q 1427 762 1427 766 q 1423 740 1427 754 q 1432 732 1428 733 q 1438 726 1438 730 q 1446 715 1438 725 q 1451 705 1449 711 q 1465 661 1465 662 q 1456 637 1465 661 q 1454 626 1454 632 q 1469 600 1454 614 q 1465 594 1465 595 l 1472 524 q 1470 522 1472 524 q 1463 518 1465 518 q 1449 507 1449 513 q 1467 480 1449 498 l 1465 474 l 1460 382 q 1451 332 1458 345 q 1442 322 1450 329 q 1424 296 1428 310 l 1444 280 q 1438 258 1442 263 l 1423 238 q 1421 220 1421 235 q 1408 195 1412 210 q 1395 166 1404 181 l 1376 174 q 1365 146 1366 157 q 1365 142 1365 146 q 1366 131 1366 138 l 1366 131 q 1328 83 1361 98 q 1312 58 1322 68 q 1251 9 1307 53 q 1200 -38 1206 -35 q 1172 -54 1197 -40 q 1143 -75 1168 -56 l 1143 -82 q 1073 -123 1086 -123 q 1057 -116 1069 -123 q 1034 -140 1041 -133 q 1004 -154 1024 -148 q 1019 -165 1006 -161 q 1076 -178 1025 -166 l 1106 -182 l 1126 -193 l 1166 -206 q 1187 -215 1182 -215 q 1197 -213 1190 -215 l 1211 -235 q 1230 -235 1218 -235 l 1241 -235 l 1242 -235 q 1251 -235 1246 -235 q 1257 -235 1256 -235 q 1286 -241 1273 -235 q 1305 -264 1295 -245 q 1324 -254 1318 -254 l 1339 -256 q 1381 -259 1371 -257 q 1409 -272 1390 -261 q 1433 -284 1430 -283 q 1474 -294 1436 -286 l 1518 -311 l 1543 -300 q 1584 -298 1544 -300 q 1657 -273 1613 -298 q 1714 -232 1699 -239 q 1734 -205 1722 -219 l 1746 -202 q 1763 -180 1751 -193 q 1780 -157 1773 -170 l 1788 -157 q 1798 -185 1798 -170 q 1782 -232 1798 -213 q 1752 -253 1780 -235 q 1710 -281 1728 -273 q 1653 -294 1697 -285 q 1594 -309 1611 -306 q 1541 -330 1575 -312 l 1511 -334 l 1493 -337 l 1469 -333 q 1396 -340 1417 -340 q 1352 -329 1370 -340 q 1348 -315 1350 -318 q 1327 -307 1344 -310 l 1317 -325 l 1300 -292 l 1257 -325 q 1237 -310 1248 -315 q 1200 -303 1225 -306 q 1158 -288 1173 -299 q 1153 -273 1158 -279 q 1139 -267 1147 -267 q 1119 -279 1131 -267 q 1069 -268 1101 -273 q 1044 -259 1053 -262 q 1032 -248 1039 -258 q 1009 -228 1015 -233 l 994 -228 l 992 -241 q 964 -235 967 -238 l 884 -179 q 861 -170 871 -170 q 785 -222 834 -170 l 780 -208 l 762 -208 l 637 -222 q 631 -223 632 -223 l 610 -220 l 574 -215 l 554 -211 q 487 -191 512 -206 q 450 -184 463 -191 q 422 -168 424 -170 l 418 -154 q 407 -144 416 -149 q 391 -138 398 -138 q 363 -144 388 -138 q 350 -116 357 -121 q 310 -108 347 -114 l 292 -90 q 231 -47 237 -54 q 213 -24 219 -33 l 208 -1 q 183 22 192 9 q 160 45 176 33 l 170 75 q 149 81 161 80 q 130 106 146 89 l 123 128 l 106 156 l 96 182 q 86 212 88 198 q 106 235 106 224 q 104 250 106 241 l 80 262 q 76 298 80 274 q 76 300 76 299 q 79 317 76 308 q 83 336 83 330 q 76 372 83 337 q 75 380 75 375 q 83 441 75 384 q 90 488 83 456 q 104 519 92 498 l 100 539 l 111 562 l 128 608 l 146 640 q 174 693 156 665 q 197 730 190 718 q 222 764 204 743 q 251 807 244 798 q 301 854 256 813 l 325 878 l 361 904 l 413 947 q 450 958 433 952 m 170 390 l 180 390 q 181 371 181 375 q 184 319 183 323 l 200 248 q 194 234 201 246 q 211 216 209 221 q 220 189 215 212 q 232 174 231 179 l 235 156 l 245 143 q 266 111 255 121 q 259 93 259 100 q 266 77 259 88 q 287 69 269 74 q 315 44 293 68 q 340 18 332 27 l 336 -13 q 350 -16 345 -16 q 364 -12 355 -16 q 375 -28 372 -26 l 401 -50 q 443 -92 427 -81 q 457 -90 451 -90 q 498 -119 458 -90 q 541 -159 528 -151 q 585 -186 548 -164 l 609 -191 l 630 -197 q 652 -163 642 -195 q 667 -175 657 -175 q 699 -166 682 -175 q 726 -144 702 -164 q 761 -142 730 -142 q 798 -127 771 -141 l 817 -125 q 832 -123 831 -123 q 862 -128 849 -123 q 909 -144 892 -141 q 1004 -110 923 -126 l 1021 -104 l 1034 -100 l 1069 -77 q 1118 -52 1110 -57 q 1138 -36 1131 -41 q 1176 7 1141 -33 q 1198 30 1187 20 q 1221 49 1220 47 l 1242 79 q 1272 117 1265 103 q 1294 151 1283 138 q 1311 191 1299 171 q 1341 280 1340 271 l 1341 281 l 1339 302 q 1351 367 1346 356 q 1368 376 1356 376 l 1369 376 l 1388 369 q 1395 389 1395 382 q 1385 412 1395 397 l 1384 412 l 1377 405 l 1348 414 l 1348 422 l 1361 435 l 1352 444 q 1356 514 1356 461 q 1362 543 1356 516 q 1347 560 1350 553 l 1409 596 q 1407 623 1409 606 q 1392 648 1407 630 l 1379 671 l 1360 692 q 1337 734 1343 728 q 1275 793 1333 739 q 1264 810 1264 803 q 1275 827 1264 817 l 1275 832 q 1256 868 1260 846 q 1243 875 1249 875 q 1231 871 1239 875 q 1223 869 1228 869 q 1196 895 1203 869 q 1172 903 1177 900 q 1156 918 1169 904 q 1136 930 1149 925 l 1120 949 q 1089 955 1100 951 q 1055 977 1084 958 l 1040 985 q 1008 1003 1018 999 q 975 1013 1002 1006 l 943 1029 l 905 1032 l 884 1040 l 837 1038 q 813 1040 836 1038 q 779 1050 783 1050 q 760 1048 772 1050 q 745 1047 752 1047 q 735 1048 744 1047 l 718 1040 l 705 1038 q 689 1033 690 1033 q 677 1042 684 1033 q 614 1012 663 1031 l 593 998 l 567 989 l 552 979 q 508 953 522 964 q 491 958 496 958 q 475 954 486 958 l 478 937 q 462 928 466 930 q 427 905 430 910 q 418 889 426 905 q 370 848 414 884 l 307 784 l 294 779 q 283 766 291 778 q 285 755 285 759 q 271 717 285 743 q 241 685 254 687 q 242 672 242 677 q 224 618 242 661 l 209 618 l 191 594 q 196 576 196 581 q 203 557 197 567 q 204 553 204 555 q 193 524 204 550 q 184 490 184 490 l 185 439 q 174 422 185 439 q 168 401 168 411 q 170 393 168 398 l 170 390 z "},"R":{"ha":1103,"x_min":112,"x_max":1106,"o":"m 112 -218 l 115 -212 q 138 -165 136 -170 q 140 -132 139 -161 q 155 -34 153 -63 l 145 -28 l 143 -24 q 199 4 191 -1 q 208 18 208 10 q 149 68 208 36 l 164 74 q 166 98 164 92 q 166 100 166 100 q 161 115 166 102 q 155 148 155 128 l 165 236 l 165 330 q 174 348 165 336 q 187 370 182 357 l 165 380 q 160 429 160 412 q 161 443 160 436 q 164 492 164 488 q 164 494 164 492 q 157 555 157 555 q 163 562 157 557 q 178 574 168 566 l 178 584 l 159 597 q 161 622 161 612 q 158 672 161 644 l 172 688 q 161 709 161 702 q 163 722 161 715 l 151 724 q 150 727 150 726 l 186 786 l 189 842 l 208 863 l 149 920 l 150 966 q 136 983 150 983 q 120 980 129 983 q 113 991 113 985 q 123 1010 113 1003 q 135 1015 127 1015 q 151 1013 141 1015 q 181 1033 165 1025 q 217 1048 213 1048 q 233 1033 224 1048 q 241 1034 238 1034 q 262 1028 248 1034 l 276 1040 q 312 1037 303 1038 q 338 1035 330 1035 q 406 1042 339 1035 l 406 1042 q 419 1040 408 1042 q 549 1034 446 1036 l 566 1031 l 597 1029 q 608 1028 606 1028 q 628 1038 615 1028 q 675 1032 645 1034 l 711 1027 l 735 1024 l 752 1019 l 777 1019 l 799 1016 q 856 1000 825 1013 q 874 980 871 994 l 871 977 l 861 977 l 861 959 q 875 953 867 954 l 878 956 q 878 964 878 960 q 886 978 878 970 q 897 971 891 977 q 903 966 900 968 q 924 943 924 953 q 918 891 924 922 q 932 882 932 890 q 920 857 932 877 q 892 829 907 838 q 884 820 891 829 q 835 772 878 814 q 802 749 804 751 q 793 731 798 745 l 770 716 l 758 719 q 740 707 749 711 q 713 687 726 702 q 692 665 697 669 q 671 661 687 663 l 660 650 l 642 656 q 633 635 637 644 q 594 620 608 630 l 597 617 q 569 591 582 599 q 541 583 561 587 q 529 571 534 582 q 494 547 505 556 q 509 543 509 545 l 535 491 l 559 465 q 569 449 563 462 l 557 444 l 567 434 q 574 434 572 434 q 602 420 587 434 q 616 402 606 416 q 631 381 623 392 q 617 361 619 370 l 625 355 l 652 352 q 663 336 657 347 q 679 318 663 334 q 703 274 682 315 q 761 199 713 256 l 783 169 q 808 135 806 142 q 817 109 817 116 l 817 100 l 817 98 q 819 87 817 92 q 854 65 821 83 q 886 35 870 56 q 939 -34 936 -28 q 944 -64 944 -45 q 976 -84 954 -74 l 985 -82 l 986 -82 q 993 -84 991 -82 q 1004 -104 994 -85 q 1029 -121 1007 -109 q 1043 -133 1039 -133 q 1067 -123 1047 -133 l 1090 -125 q 1100 -122 1093 -125 q 1106 -133 1106 -127 q 1102 -143 1106 -138 q 1073 -157 1101 -144 l 1050 -170 q 1029 -176 1046 -172 q 987 -189 1015 -178 l 966 -196 q 949 -208 949 -208 q 932 -195 946 -208 q 913 -184 926 -189 q 881 -130 906 -168 q 876 -103 877 -123 l 835 -78 l 846 -53 q 817 -26 832 -36 q 777 30 804 -13 l 779 47 q 745 70 759 56 q 705 146 710 104 q 673 172 697 161 q 633 225 659 181 q 611 239 618 229 q 586 267 600 253 q 580 295 587 286 q 557 316 565 316 q 543 315 551 316 q 522 349 537 322 l 473 412 q 433 459 452 441 q 376 499 389 499 q 288 467 374 499 q 286 467 288 467 q 267 468 278 467 q 259 442 265 457 q 257 435 257 437 l 258 418 l 258 399 q 262 369 262 369 q 259 348 262 365 q 258 332 258 341 q 259 303 258 318 q 260 245 260 292 l 265 226 l 265 171 q 268 140 268 142 q 263 126 268 134 q 257 106 258 117 l 239 100 l 244 66 q 261 61 254 66 q 257 42 257 50 q 262 21 257 40 q 263 15 263 19 q 262 -1 263 11 q 262 -12 262 -5 q 263 -39 262 -24 q 247 -62 247 -47 q 265 -78 247 -76 q 262 -89 262 -87 l 264 -130 q 254 -157 264 -140 q 235 -173 250 -165 q 218 -184 220 -182 q 208 -197 214 -189 l 184 -194 q 132 -224 163 -224 q 112 -218 125 -224 m 227 719 l 239 726 l 255 710 q 257 649 255 682 l 257 623 l 259 588 q 255 535 255 568 l 243 531 l 243 519 q 246 519 245 519 q 263 515 253 519 q 282 526 274 524 q 305 532 287 528 q 318 527 314 527 q 331 531 322 527 l 334 537 q 385 551 349 538 l 403 555 l 441 578 q 484 603 460 588 l 618 675 q 673 703 658 693 q 703 731 683 710 l 730 751 q 753 774 748 770 q 773 783 758 777 q 795 810 778 785 q 812 825 809 821 q 818 849 818 838 q 817 859 818 854 q 813 873 813 869 q 814 880 813 874 l 828 888 l 828 892 l 804 901 q 792 920 795 915 l 792 929 q 790 932 792 930 q 786 943 786 937 q 787 951 786 947 l 766 958 l 764 947 q 743 954 748 952 q 709 965 726 961 q 686 977 696 968 q 672 973 675 973 l 634 985 l 582 985 q 562 995 574 985 q 519 991 551 991 q 496 985 498 985 q 465 996 492 985 q 439 1001 464 996 q 381 980 420 1001 q 358 973 369 973 q 352 975 353 973 l 329 1008 l 305 999 q 269 994 273 997 q 254 976 257 987 q 252 924 254 974 q 243 895 252 918 l 233 898 l 230 887 l 230 886 q 236 871 229 880 q 256 848 254 853 q 256 809 256 816 q 257 798 257 802 q 253 785 257 793 q 248 762 248 776 l 235 749 q 224 722 235 733 l 227 719 z "},"S":{"ha":1341,"x_min":26,"x_max":1293,"o":"m 26 22 q 45 58 27 27 l 53 78 q 78 109 77 107 q 81 125 79 111 q 90 125 86 125 q 99 122 96 125 q 111 108 105 116 q 121 90 121 90 l 118 69 l 123 51 l 121 31 q 143 -16 130 0 l 157 -11 l 157 -11 q 162 -13 159 -11 q 175 -47 165 -14 q 189 -67 178 -58 q 238 -105 229 -100 l 324 -139 l 349 -154 q 378 -159 373 -157 q 410 -173 381 -160 q 507 -191 493 -190 l 582 -194 q 617 -195 595 -195 q 631 -193 627 -195 q 640 -191 639 -191 l 659 -197 q 720 -185 671 -192 q 743 -193 726 -186 q 752 -193 750 -193 q 770 -176 759 -193 q 779 -172 774 -172 q 789 -173 783 -172 q 798 -174 794 -174 q 847 -158 800 -174 l 864 -157 l 890 -144 q 951 -123 941 -129 q 1000 -92 959 -118 q 1032 -64 1027 -68 q 1059 -26 1036 -59 l 1074 -14 l 1087 8 q 1100 26 1098 22 q 1103 41 1101 28 q 1124 81 1101 47 q 1131 102 1128 88 q 1154 106 1148 103 q 1163 125 1160 110 l 1160 127 l 1146 127 l 1155 156 q 1146 172 1146 166 q 1155 190 1146 175 q 1163 227 1159 199 q 1177 277 1177 269 q 1180 314 1178 295 l 1195 314 l 1195 324 l 1173 321 q 1144 411 1168 343 l 1155 424 l 1152 431 q 1177 430 1169 430 q 1227 441 1227 430 q 1148 455 1227 454 q 1133 441 1142 441 q 1118 450 1129 441 q 1065 474 1114 454 q 1038 488 1047 486 q 983 499 1017 494 l 967 505 q 929 517 932 517 q 927 517 928 517 l 927 518 l 924 520 l 923 517 q 920 513 920 513 l 867 525 l 856 522 q 823 517 827 517 q 813 523 819 517 q 798 536 811 536 q 777 524 791 536 q 762 519 772 519 l 762 519 q 742 521 755 519 q 725 522 728 522 q 680 523 680 522 l 649 573 q 638 581 644 581 q 604 524 622 581 q 589 589 602 575 q 581 594 586 592 q 572 599 572 599 q 517 526 521 526 q 490 535 517 526 q 442 545 456 539 q 423 555 424 555 l 406 557 l 398 558 l 380 558 l 362 567 q 309 594 321 585 q 255 658 282 615 q 240 698 240 682 q 242 717 240 705 q 229 748 229 733 q 241 763 240 760 l 246 804 q 264 841 261 839 q 321 905 293 873 l 350 926 l 385 954 l 407 964 l 431 977 l 537 1022 q 585 1044 572 1040 q 651 1065 627 1059 l 738 1088 l 762 1093 l 886 1104 l 943 1109 q 971 1107 943 1109 l 1006 1105 l 1024 1100 q 1105 1082 1053 1096 l 1110 1057 q 1088 1042 1094 1045 q 1076 1032 1078 1034 q 1057 1020 1064 1023 q 1037 1029 1042 1028 l 1016 1029 l 977 1042 l 953 1040 q 934 1062 951 1040 q 888 1083 918 1083 q 849 1072 862 1083 q 831 1045 841 1065 q 819 1055 823 1055 l 809 1055 q 755 1044 781 1055 l 692 1033 l 636 1015 q 608 1021 610 1021 q 582 1013 601 1021 l 582 997 l 512 970 l 505 958 q 441 922 464 951 q 423 926 431 926 q 399 903 410 926 q 351 868 371 895 q 321 797 321 829 q 326 749 321 781 q 343 720 328 734 q 395 682 381 686 l 427 673 q 473 631 462 661 q 481 626 473 629 q 495 622 488 622 q 509 627 497 622 q 515 627 511 627 q 524 627 519 627 q 530 646 525 639 q 543 642 541 642 l 574 646 l 626 635 q 643 637 626 635 q 650 638 647 638 q 699 629 664 638 l 701 610 q 720 608 713 608 q 729 608 722 608 q 722 621 722 616 q 734 629 722 629 l 758 627 l 913 627 q 918 618 918 623 q 913 603 918 612 q 928 592 924 592 q 947 609 935 592 q 961 606 956 606 q 996 620 963 606 q 1010 616 1008 616 q 1067 604 1054 610 l 1092 591 l 1176 564 q 1189 555 1178 563 q 1205 545 1199 548 q 1241 519 1235 528 q 1249 503 1244 516 q 1243 486 1243 492 q 1244 478 1243 483 l 1265 476 q 1282 411 1284 445 q 1293 354 1293 366 l 1293 333 l 1293 324 q 1293 299 1293 304 q 1293 290 1293 294 q 1282 260 1293 279 q 1280 255 1280 258 q 1284 236 1280 250 q 1274 220 1275 225 l 1273 204 q 1246 153 1254 161 l 1246 134 l 1228 108 l 1227 104 q 1225 98 1225 100 q 1229 84 1225 92 q 1208 56 1213 64 q 1176 15 1196 37 l 1153 -19 l 1137 -33 l 1110 -61 q 1078 -95 1086 -85 q 1068 -102 1073 -102 l 1068 -102 l 1055 -96 l 1061 -87 l 1026 -109 l 1031 -127 q 941 -177 996 -151 q 878 -203 892 -201 l 838 -208 q 754 -228 778 -220 l 713 -234 l 694 -237 l 671 -237 l 643 -239 q 616 -232 620 -233 q 593 -232 609 -231 q 565 -223 577 -233 q 532 -239 550 -239 q 511 -229 530 -239 q 500 -227 507 -227 l 455 -227 q 441 -227 450 -227 q 410 -203 431 -203 q 393 -218 400 -203 q 364 -205 380 -212 q 332 -199 349 -199 q 302 -186 310 -189 q 275 -180 288 -183 l 275 -162 q 254 -153 256 -157 q 245 -134 251 -153 l 234 -136 l 232 -156 q 182 -141 226 -155 l 101 -75 l 99 -75 q 96 -61 98 -64 q 81 -45 94 -58 q 53 -10 77 -43 q 26 22 39 11 z "},"T":{"ha":1322,"x_min":8,"x_max":1316,"o":"m 29 1043 q 98 1079 46 1048 q 142 1088 115 1088 q 203 1067 170 1088 l 229 1063 q 289 1056 265 1058 l 370 1050 l 399 1046 l 400 1046 q 414 1047 404 1046 q 471 1051 452 1051 q 500 1050 480 1051 l 595 1044 q 622 1052 597 1044 q 631 1054 627 1054 q 649 1049 632 1054 q 690 1044 680 1047 q 717 1034 696 1042 q 760 1050 744 1050 q 810 1041 765 1050 l 831 1045 q 856 1040 853 1040 l 875 1041 l 923 1040 l 960 1042 l 972 1042 q 998 1040 996 1041 l 1027 1031 q 1031 1033 1027 1031 l 1040 1051 q 1071 1048 1061 1048 l 1116 1057 l 1117 1057 q 1132 1024 1119 1053 l 1143 1044 q 1168 1046 1144 1046 q 1205 1063 1170 1046 q 1210 1065 1208 1065 q 1218 1060 1216 1065 l 1233 1027 l 1268 1065 l 1283 1069 l 1300 1076 l 1300 1076 q 1316 1063 1312 1074 l 1302 1051 l 1299 1040 q 1282 1030 1285 1034 l 1266 1008 q 1249 998 1263 1005 q 1217 990 1233 990 q 1203 991 1212 990 q 1175 996 1180 996 q 1162 996 1168 996 q 1140 993 1143 993 q 1112 998 1132 993 q 1080 1001 1094 1001 q 1028 995 1077 1001 q 1005 994 1016 994 q 930 998 1002 994 l 903 994 l 860 1019 l 840 994 l 827 998 l 808 1000 l 777 1002 q 768 1000 777 1002 q 751 997 760 997 l 751 997 q 707 1000 746 997 q 690 1001 698 1001 q 671 996 680 1001 q 675 990 675 991 q 651 965 675 985 q 630 932 648 962 q 612 909 627 927 q 601 890 601 895 q 643 856 601 871 q 663 843 663 848 q 655 829 663 842 q 649 810 651 823 l 637 810 l 639 789 l 655 780 q 662 761 662 767 q 659 735 662 754 q 658 715 658 726 q 663 650 658 703 l 665 616 q 667 581 665 595 q 668 562 668 564 q 660 545 668 548 q 650 541 659 544 q 637 533 645 540 l 637 529 l 635 527 l 650 514 l 650 492 l 669 483 q 610 421 610 452 q 667 372 610 393 q 659 355 659 362 q 661 326 659 349 q 662 311 662 319 q 661 297 662 307 l 669 294 q 664 254 664 265 l 664 254 l 666 227 q 668 186 667 191 q 675 163 669 182 q 665 131 665 138 q 665 117 665 125 l 663 115 q 639 98 639 111 l 639 98 l 643 83 l 665 89 q 668 71 666 75 q 672 56 672 58 q 669 44 672 56 q 669 35 669 40 q 672 -22 669 30 q 665 -85 673 -31 q 664 -106 664 -96 q 673 -144 664 -113 q 666 -172 669 -170 q 642 -180 662 -175 q 624 -189 629 -184 l 614 -200 q 595 -201 597 -200 q 544 -231 556 -226 q 532 -209 532 -218 q 538 -184 532 -206 l 538 -165 l 543 -146 l 545 -110 l 548 -90 q 551 -58 548 -65 q 571 -35 555 -49 q 557 -12 557 -21 l 557 -11 l 559 19 l 559 54 q 562 96 562 81 l 572 108 q 571 119 571 115 q 573 138 571 125 l 562 148 l 559 148 l 564 162 l 564 273 q 566 296 563 278 q 570 325 570 313 q 566 351 570 329 l 562 382 q 561 397 561 395 q 570 424 561 398 q 572 441 570 439 q 590 450 574 447 l 590 462 l 568 457 q 564 479 564 474 q 567 500 564 486 q 570 519 568 507 q 555 526 561 523 l 557 543 l 557 673 q 583 696 557 684 q 608 714 608 708 q 582 732 608 718 q 555 753 570 739 q 570 767 570 760 q 563 792 570 768 q 562 798 562 794 q 564 814 562 805 q 545 863 545 835 q 555 886 545 870 q 548 909 550 903 q 547 912 547 912 q 607 957 547 930 q 613 962 613 960 q 550 978 613 964 q 543 987 543 979 q 545 996 543 990 q 479 1006 524 1005 q 439 1008 466 1006 q 437 1008 438 1008 q 405 1004 435 1008 l 353 1008 q 338 1003 350 1008 q 319 1011 328 1011 l 317 1011 q 302 1011 302 1011 l 266 1023 l 255 1019 l 242 1013 l 219 1002 q 187 1008 191 1008 q 151 1004 181 1008 l 119 1004 l 94 1004 q 59 1010 88 1004 q 51 1011 57 1011 q 11 1008 39 1011 q 9 1011 10 1009 q 8 1013 8 1013 q 18 1027 8 1018 q 29 1043 23 1032 z "},"U":{"ha":1423,"x_min":79,"x_max":1303,"o":"m 85 260 q 90 304 88 277 q 112 344 91 325 l 115 360 l 127 360 l 132 365 q 105 394 120 382 q 154 429 142 416 q 175 446 165 441 q 115 463 115 459 q 128 482 115 464 q 127 502 127 493 q 139 534 127 508 l 143 550 q 161 582 156 569 l 182 578 q 186 600 186 591 q 174 640 186 603 l 186 664 l 197 703 q 205 718 201 710 q 231 785 212 729 l 236 798 l 241 812 l 257 841 l 269 869 l 299 930 l 305 949 q 311 966 311 961 q 311 978 311 971 l 314 982 q 298 985 309 983 q 285 991 288 985 l 279 1003 q 364 1050 317 1031 q 441 1074 418 1074 q 452 1070 446 1074 q 427 999 455 1051 l 385 927 l 380 911 q 360 903 377 906 q 375 891 375 899 q 368 869 375 882 q 343 840 366 866 q 333 815 339 836 q 320 785 328 800 q 318 785 318 785 q 304 792 313 785 l 302 792 l 294 774 l 277 766 q 286 736 278 749 l 302 745 l 306 741 q 302 726 304 730 q 296 702 296 705 q 300 688 296 698 l 277 658 l 239 534 q 220 490 229 500 l 208 490 q 213 471 210 473 q 224 462 213 469 q 224 455 224 458 q 216 438 224 449 q 210 426 212 432 q 210 401 210 425 q 205 356 205 375 q 193 286 204 344 q 191 275 191 278 l 191 274 q 192 251 191 262 q 193 241 193 243 q 188 212 193 231 l 180 207 q 182 194 182 198 q 178 165 182 191 l 184 158 l 201 158 q 205 140 205 146 q 204 129 205 137 q 203 111 203 122 q 210 61 203 82 l 222 21 q 224 7 224 15 q 220 -26 224 -3 q 240 -32 229 -31 l 248 -47 l 264 -50 q 309 -125 282 -100 q 361 -161 327 -142 q 381 -178 375 -176 q 415 -186 398 -186 q 435 -183 420 -186 l 441 -199 q 462 -201 453 -201 q 501 -194 469 -201 q 515 -193 507 -193 q 533 -194 518 -193 l 558 -195 q 568 -198 568 -198 l 592 -188 l 608 -183 q 650 -170 635 -174 l 655 -160 q 690 -140 675 -154 l 713 -148 q 742 -127 723 -127 q 751 -127 745 -127 q 766 -113 762 -115 l 790 -104 q 833 -75 817 -83 l 843 -83 l 867 -73 q 877 -57 873 -58 l 897 -47 l 924 -31 q 953 -22 947 -25 q 978 -7 958 -20 q 1006 20 987 20 q 1022 18 1013 20 l 1022 38 q 1038 45 1032 39 q 1083 83 1072 79 l 1106 91 q 1131 127 1112 94 q 1161 161 1153 151 l 1156 176 l 1156 176 l 1159 203 l 1159 208 q 1158 229 1159 212 q 1157 245 1157 243 l 1160 301 q 1161 363 1160 340 q 1183 380 1183 373 q 1171 393 1183 383 l 1171 407 l 1164 409 q 1160 429 1160 420 q 1167 446 1160 433 q 1174 472 1173 458 l 1145 483 q 1156 534 1156 506 q 1152 585 1156 559 q 1146 633 1146 625 q 1152 687 1146 661 q 1167 707 1167 699 q 1164 717 1167 714 l 1145 734 q 1137 752 1136 743 l 1137 753 q 1191 774 1164 764 l 1133 788 l 1135 829 l 1129 850 l 1128 888 l 1120 951 l 1120 951 q 1125 982 1120 956 q 1111 996 1115 992 q 1099 1010 1099 1004 q 1103 1021 1099 1015 q 1131 1036 1105 1023 q 1192 1074 1191 1073 q 1206 1077 1194 1074 q 1235 1082 1213 1079 q 1245 1059 1245 1068 q 1236 986 1245 1059 q 1234 953 1234 975 q 1239 909 1234 937 q 1240 902 1240 906 q 1238 857 1240 891 q 1230 819 1238 848 q 1229 810 1229 815 q 1238 789 1229 803 q 1240 783 1240 786 q 1237 768 1240 780 q 1232 748 1232 749 q 1213 736 1231 747 q 1205 722 1205 730 q 1206 714 1205 719 q 1209 714 1208 714 q 1230 717 1217 714 l 1235 713 l 1230 695 l 1244 693 q 1249 596 1246 677 l 1251 559 q 1244 486 1244 533 q 1253 460 1244 475 q 1256 452 1256 457 q 1255 444 1256 448 q 1254 419 1254 425 q 1255 355 1254 361 q 1259 340 1255 351 q 1259 336 1259 338 q 1257 319 1259 330 q 1255 286 1255 304 q 1258 191 1255 278 l 1258 190 q 1254 162 1258 184 q 1231 141 1231 154 q 1240 118 1231 126 q 1263 111 1244 115 q 1273 97 1273 108 l 1267 77 l 1267 72 q 1270 31 1267 49 q 1233 7 1246 12 l 1233 5 q 1261 -14 1246 -6 l 1265 -28 l 1273 -31 q 1275 -51 1275 -46 q 1282 -87 1276 -64 q 1288 -113 1283 -102 l 1299 -116 l 1303 -155 q 1282 -167 1286 -162 l 1263 -186 l 1238 -198 l 1190 -224 q 1174 -228 1183 -228 q 1156 -226 1166 -228 q 1155 -220 1155 -221 q 1162 -189 1155 -214 q 1166 -161 1166 -176 q 1157 -104 1166 -145 q 1156 -90 1156 -101 q 1162 -54 1156 -82 l 1164 -24 l 1166 1 q 1160 44 1161 35 q 1154 55 1159 49 q 1136 45 1140 47 q 1077 10 1084 14 q 1036 -8 1037 -7 l 1000 -37 q 942 -67 960 -58 q 924 -75 928 -72 q 916 -88 922 -75 q 889 -98 898 -94 q 838 -128 888 -98 l 775 -156 q 724 -176 736 -176 q 713 -176 720 -176 l 716 -195 q 660 -219 686 -202 q 618 -236 635 -236 q 600 -224 613 -236 q 569 -239 571 -237 q 558 -254 564 -242 q 543 -252 549 -252 q 493 -267 538 -252 l 450 -233 q 437 -267 444 -231 q 404 -255 426 -256 l 391 -273 q 305 -250 359 -269 l 311 -235 q 299 -233 304 -233 q 281 -241 294 -233 q 237 -210 267 -229 q 200 -170 235 -210 q 168 -146 171 -150 q 155 -111 167 -143 q 146 -94 153 -102 q 136 -78 136 -81 q 139 -68 136 -74 q 161 -78 151 -68 q 172 -46 170 -58 l 170 -43 l 168 -45 l 146 -45 l 140 -39 l 138 -40 l 120 -40 l 115 -17 q 101 -3 102 -8 l 98 9 q 91 29 91 24 q 100 45 91 37 q 87 66 88 60 l 85 96 q 79 127 79 121 q 83 186 79 132 q 85 204 85 203 l 94 216 q 99 237 99 224 q 85 260 99 250 z "},"V":{"ha":1072,"x_min":18,"x_max":1052,"o":"m 24 1019 q 43 1024 41 1021 l 63 1040 l 87 1057 l 111 1075 q 127 1078 117 1078 q 140 1078 132 1078 q 175 995 146 1059 q 176 990 176 993 q 172 959 176 986 l 159 956 l 149 931 l 161 930 l 163 930 l 177 935 l 179 932 l 180 920 l 195 911 l 203 876 l 212 873 q 233 821 216 855 q 251 772 243 784 q 241 753 241 762 q 247 741 241 751 q 260 718 256 726 l 273 715 q 295 653 291 655 l 315 615 l 327 587 q 345 538 345 549 q 338 518 345 532 l 336 518 l 332 513 l 336 504 l 347 507 l 354 501 l 361 515 l 363 513 l 366 513 q 374 485 371 495 q 399 437 376 481 q 437 353 412 401 q 450 314 450 331 q 433 289 450 303 l 445 263 l 463 263 q 473 247 471 251 q 486 228 486 231 l 492 205 l 507 176 q 535 123 517 149 q 562 60 545 107 q 573 43 564 54 q 605 5 605 11 q 592 -18 605 -3 l 607 -28 q 622 -12 618 -17 q 629 12 625 -6 q 638 50 635 37 l 659 115 q 679 185 673 174 q 698 213 685 197 l 712 219 q 714 224 714 223 q 710 240 714 225 q 709 244 709 243 q 715 269 709 254 q 728 307 724 293 l 751 381 q 766 418 756 400 q 788 467 788 454 q 787 482 788 473 q 795 492 795 491 l 808 542 l 825 595 l 829 621 q 844 659 842 655 q 867 671 847 667 q 864 687 864 682 q 866 700 864 691 l 852 718 l 854 718 l 894 821 l 904 847 l 909 867 l 922 911 q 918 937 918 935 q 926 965 918 945 l 940 960 q 941 969 941 966 q 939 979 941 972 q 938 984 938 982 l 946 1020 l 946 1037 q 956 1059 946 1040 q 990 1067 981 1063 q 1017 1086 1002 1071 q 1033 1094 1025 1093 q 1052 1076 1052 1084 q 1044 1059 1052 1070 q 1022 1004 1030 1038 q 986 908 1013 969 l 979 884 l 948 791 l 940 782 l 909 669 l 908 669 q 897 656 899 665 q 886 623 895 653 l 884 607 l 879 592 q 861 529 869 550 q 851 501 852 507 q 840 473 844 478 q 827 463 838 473 q 822 454 823 459 q 815 422 817 424 q 802 411 814 420 l 802 405 q 812 391 812 397 q 808 381 812 389 q 789 326 798 366 l 776 284 l 770 261 l 756 226 l 743 173 q 709 76 716 106 q 699 54 705 59 q 679 43 692 50 l 679 33 l 685 26 l 696 24 q 674 -56 694 20 l 672 -77 l 669 -93 l 665 -123 q 655 -170 658 -155 l 641 -168 l 641 -193 q 618 -201 635 -197 q 570 -221 578 -220 q 563 -212 564 -213 l 547 -153 l 520 -88 q 498 -21 500 -26 q 473 4 491 -11 q 471 25 473 21 l 462 47 l 453 71 l 437 98 l 427 121 q 418 140 418 138 q 423 146 418 142 q 429 159 429 150 q 434 173 434 165 l 421 175 l 412 202 q 395 193 405 201 q 387 191 391 191 q 382 194 384 191 q 380 222 380 196 q 342 313 379 230 q 335 358 342 314 q 315 368 320 362 q 307 396 313 370 q 279 460 283 446 q 272 492 275 477 q 277 505 277 500 q 270 522 277 511 l 256 517 q 241 536 242 531 l 231 564 q 203 622 205 618 q 202 635 202 628 q 203 650 202 641 q 183 665 182 662 q 170 696 179 670 q 153 729 167 705 l 169 735 l 171 756 l 166 762 l 152 764 q 154 819 154 800 q 144 916 154 866 q 140 934 140 934 q 124 781 134 933 q 90 854 113 800 q 81 876 82 869 q 81 886 81 884 q 69 900 71 897 l 45 949 q 18 1005 18 1000 q 24 1019 18 1010 z "},"W":{"ha":1478,"x_min":35,"x_max":1434,"o":"m 155 1105 q 165 1075 163 1085 q 173 1017 167 1069 l 180 992 l 180 974 q 186 945 180 968 q 180 941 183 944 q 172 929 172 933 q 176 911 172 922 q 195 903 193 909 q 199 884 197 898 q 202 866 199 880 l 218 864 q 237 762 217 812 q 219 732 219 741 q 225 720 219 728 q 233 712 232 712 l 241 711 q 246 707 244 711 q 252 684 252 696 q 237 659 252 669 l 240 635 q 243 636 243 636 q 267 629 252 636 q 280 600 271 614 q 288 582 286 589 l 325 455 q 335 418 335 420 q 329 396 335 417 q 353 366 343 386 l 362 351 l 368 324 l 375 294 l 321 276 q 382 237 366 250 l 399 235 q 409 186 406 203 q 435 114 412 172 q 446 62 441 77 l 460 62 l 471 37 l 473 37 q 482 65 479 58 q 492 104 490 89 q 496 133 494 124 l 527 224 q 531 241 529 231 q 536 267 535 264 l 554 307 l 559 328 l 568 348 q 587 428 585 425 q 602 444 591 435 q 600 456 600 454 q 618 551 600 463 q 646 621 623 574 q 657 681 652 663 q 688 812 688 770 q 684 834 688 815 l 731 865 l 747 888 q 779 912 779 911 q 772 918 779 916 q 697 936 737 931 l 724 980 q 712 1001 712 993 q 720 1032 712 1011 q 738 1053 723 1040 l 759 1068 q 792 1096 789 1095 q 802 1099 798 1099 l 804 1099 l 807 1099 l 834 1074 q 768 1031 768 1049 q 797 996 768 1023 q 829 954 806 988 l 854 924 q 842 905 854 919 q 859 869 846 883 q 881 842 880 844 q 889 819 882 840 q 910 750 892 810 q 920 690 918 695 q 934 667 922 682 l 932 665 q 895 654 897 659 q 899 648 895 654 q 905 613 905 637 l 943 574 l 959 541 q 970 522 970 527 q 970 519 970 520 l 965 519 l 961 515 q 964 496 963 501 q 975 462 966 479 l 988 462 q 1015 387 998 441 l 1026 349 l 1028 319 q 1042 290 1039 302 q 1054 248 1054 254 q 1051 236 1054 242 q 1044 216 1044 218 q 1055 198 1044 208 q 1065 194 1060 194 q 1078 197 1069 194 q 1089 144 1082 180 q 1105 109 1091 138 q 1118 121 1111 115 q 1130 148 1130 130 q 1122 170 1130 155 q 1136 180 1133 175 q 1153 233 1140 188 l 1151 248 l 1157 269 l 1163 298 l 1173 313 l 1179 338 l 1195 382 l 1209 454 q 1227 508 1224 499 q 1242 534 1231 520 q 1267 640 1244 554 q 1284 713 1276 692 q 1291 738 1291 729 q 1283 770 1291 739 l 1297 810 q 1305 862 1301 848 q 1316 861 1312 861 q 1333 867 1324 861 q 1313 890 1333 880 q 1322 937 1314 905 l 1322 972 l 1326 990 q 1331 1029 1328 1019 q 1390 1083 1350 1076 q 1413 1105 1404 1103 q 1431 1110 1413 1107 q 1434 1099 1434 1103 q 1432 1085 1434 1093 q 1428 1044 1429 1073 l 1423 1025 q 1416 987 1421 1000 q 1399 958 1412 977 q 1401 940 1401 947 q 1396 919 1401 937 q 1395 913 1395 917 q 1396 901 1395 907 q 1387 881 1387 888 q 1388 873 1387 878 q 1372 867 1374 871 q 1375 841 1372 867 q 1375 838 1375 839 q 1368 810 1375 831 q 1348 804 1358 808 q 1339 795 1338 799 l 1340 789 l 1341 777 q 1355 755 1355 758 q 1342 733 1355 755 q 1335 715 1339 729 q 1316 646 1318 656 q 1302 600 1314 631 q 1288 574 1297 583 q 1288 564 1288 568 q 1286 545 1288 557 q 1284 524 1285 528 q 1269 509 1281 517 l 1269 498 l 1248 410 q 1235 348 1238 360 q 1218 303 1231 332 q 1199 283 1199 294 q 1213 262 1199 274 q 1202 225 1211 246 l 1208 192 q 1201 184 1208 192 q 1178 114 1196 175 l 1174 74 l 1164 32 q 1169 20 1164 29 q 1154 6 1155 10 q 1145 -16 1149 3 q 1157 -39 1157 -32 q 1151 -70 1157 -41 q 1154 -100 1154 -96 q 1153 -126 1154 -105 q 1153 -146 1153 -133 q 1136 -157 1140 -155 q 1103 -180 1112 -170 l 1095 -180 q 1082 -151 1088 -170 l 1065 -109 l 1058 -92 q 1040 -52 1045 -74 q 1037 -40 1038 -42 q 1031 -11 1031 -20 q 1040 8 1031 -5 l 1038 10 l 1029 12 q 1016 29 1027 18 q 994 117 1007 41 q 985 193 989 178 q 970 202 972 197 q 959 256 967 207 l 941 316 l 934 349 q 910 410 932 354 q 901 448 902 431 q 897 471 901 457 q 909 490 909 483 q 905 500 909 493 q 892 492 897 492 q 880 509 886 492 q 854 607 859 568 q 867 622 867 614 q 859 637 867 623 q 859 640 859 638 q 863 656 859 646 q 828 647 850 655 q 817 675 821 655 q 787 764 811 693 q 779 787 781 775 l 773 804 l 770 825 q 755 842 768 830 q 742 815 744 825 q 732 759 741 813 l 723 736 l 721 713 l 715 701 l 711 674 l 696 648 l 684 601 q 668 561 669 572 q 659 497 666 525 l 634 410 l 612 317 q 596 261 600 268 q 581 243 594 258 q 565 189 572 203 l 576 180 q 549 87 568 159 l 538 45 l 535 26 l 531 5 l 530 -11 l 523 -38 l 519 -52 q 512 -78 512 -75 q 519 -100 512 -88 q 536 -138 536 -132 q 516 -164 536 -142 q 500 -190 505 -186 q 467 -203 496 -193 q 443 -213 447 -213 q 427 -205 437 -213 q 418 -119 420 -159 q 405 -68 417 -111 l 393 -64 q 368 9 389 -48 q 364 26 364 18 q 375 68 364 36 q 361 73 364 71 q 347 78 349 78 q 338 75 344 78 q 331 94 332 81 q 325 127 329 115 q 321 144 321 140 l 321 144 q 330 163 321 151 l 313 168 q 302 200 311 180 q 290 249 300 203 q 276 288 286 269 q 271 304 271 298 q 277 317 271 306 q 281 331 280 325 q 257 342 275 339 q 250 378 254 370 l 234 408 q 233 420 233 410 l 245 428 q 250 454 250 442 q 243 472 250 459 q 233 466 237 466 q 223 472 230 466 l 209 472 q 194 531 205 484 l 177 596 l 178 623 q 151 656 178 649 q 139 701 146 681 l 111 779 q 108 800 110 781 l 117 808 q 90 868 109 824 l 81 870 q 61 943 70 901 q 35 1006 35 1001 q 41 1020 35 1015 q 57 1026 43 1021 q 70 1046 67 1044 q 90 1061 72 1048 l 100 1070 q 128 1090 124 1088 l 140 1092 q 155 1105 146 1093 z "},"X":{"ha":1067,"x_min":23,"x_max":1061,"o":"m 24 1011 l 23 1017 l 38 1022 q 53 1046 39 1035 q 89 1069 70 1059 q 116 1099 114 1099 q 125 1102 120 1102 q 148 1092 138 1102 q 153 1082 153 1086 l 153 1070 q 163 1036 158 1052 q 173 1017 168 1026 q 189 1000 176 1012 l 195 983 q 212 943 212 955 q 206 910 212 934 q 237 903 222 903 q 262 877 255 886 q 276 842 267 870 q 292 831 278 839 q 297 822 297 829 q 294 804 297 815 l 307 809 q 323 781 319 788 q 340 751 338 754 q 366 719 342 747 q 389 686 382 699 l 385 668 l 385 668 q 401 655 385 655 q 410 656 405 655 q 433 624 418 643 q 454 593 444 611 l 439 585 q 437 568 437 575 q 470 537 437 548 l 472 553 q 475 553 475 553 q 485 551 481 553 q 513 509 488 548 q 549 477 536 488 q 595 541 560 490 q 606 545 597 545 q 611 545 608 545 q 625 568 613 557 q 628 587 627 585 l 658 635 l 678 677 l 730 767 q 744 770 739 769 q 755 792 751 787 q 769 816 769 811 q 769 819 769 817 q 767 835 767 833 l 767 835 q 795 891 768 839 l 829 970 q 835 979 830 973 q 852 1010 842 988 l 867 1008 q 876 1025 874 1021 q 913 1099 908 1098 q 939 1102 916 1100 q 989 1115 975 1115 q 999 1109 999 1115 q 978 1074 999 1103 q 953 1038 964 1053 q 935 1004 946 1028 q 910 964 917 977 l 893 964 l 891 962 q 895 950 895 953 q 872 899 895 947 l 846 858 q 821 812 826 820 q 798 787 815 804 q 791 762 798 771 l 777 753 q 766 720 770 728 q 747 695 764 715 q 716 637 739 678 l 701 637 q 692 616 693 629 q 686 598 692 606 q 663 570 685 596 q 652 544 659 566 l 638 536 q 638 530 638 533 q 627 503 638 522 q 604 481 621 493 q 595 458 602 480 q 572 416 593 452 q 595 390 587 405 l 608 390 q 642 330 626 364 q 666 303 646 323 l 677 301 q 707 260 685 287 q 734 201 731 213 q 742 189 734 199 q 760 164 758 163 q 773 148 771 152 q 775 136 774 145 l 773 133 l 769 132 l 769 104 l 774 100 q 813 115 788 101 q 841 77 829 90 q 897 16 887 24 q 903 10 903 11 l 910 -24 q 930 -38 911 -30 q 972 -73 951 -55 q 1023 -113 984 -85 q 1028 -130 1024 -124 l 1061 -140 q 1061 -150 1061 -149 q 1044 -167 1059 -154 q 1000 -202 1009 -194 q 973 -215 991 -209 q 954 -235 971 -235 q 921 -225 930 -235 q 907 -197 920 -224 l 896 -181 l 884 -162 l 863 -141 q 831 -103 847 -118 q 789 -64 807 -81 l 795 -43 q 780 -31 786 -38 q 753 -18 777 -26 l 736 14 l 710 48 l 690 81 q 669 94 675 90 q 657 118 667 112 q 630 161 648 140 q 607 203 612 185 q 597 245 597 238 q 589 267 595 261 q 568 252 576 252 q 561 256 564 252 q 541 286 557 260 q 514 321 524 311 l 512 321 q 496 294 500 298 l 460 247 l 426 189 q 385 138 395 152 l 389 113 q 376 100 381 105 q 328 36 364 89 l 315 20 l 296 -5 q 269 -26 271 -24 q 260 -39 267 -28 l 248 -54 l 248 -66 q 227 -106 235 -90 l 204 -138 q 198 -159 201 -143 l 185 -165 q 160 -203 176 -195 q 143 -206 159 -204 q 121 -214 136 -207 q 94 -232 118 -232 q 60 -213 60 -232 q 83 -182 60 -199 q 111 -145 96 -173 q 121 -134 112 -142 q 145 -106 130 -126 l 168 -85 l 193 -52 l 240 -1 q 279 52 259 29 q 304 93 294 69 q 320 115 316 110 q 340 149 327 124 q 359 174 350 163 q 389 206 389 205 l 404 238 q 412 250 405 242 q 441 289 439 283 q 466 319 452 309 q 488 382 483 360 l 458 415 l 454 415 l 454 429 q 460 435 458 434 q 470 446 470 441 q 461 461 470 453 q 442 480 445 477 l 442 464 q 422 468 425 464 q 415 481 419 470 q 407 496 413 485 q 330 596 374 505 q 307 629 318 619 l 280 651 q 262 696 264 691 q 242 715 257 703 q 220 752 237 734 q 225 779 225 769 q 225 790 225 784 l 222 790 l 214 783 q 185 811 210 811 q 167 809 177 811 l 167 812 q 117 876 154 830 l 67 945 l 49 964 q 26 994 36 986 l 24 1011 z "},"Y":{"ha":1160,"x_min":17,"x_max":1145,"o":"m 17 1048 q 44 1063 30 1057 q 73 1094 55 1070 q 125 1127 109 1114 q 142 1115 134 1125 q 152 1100 152 1103 q 149 1092 152 1099 q 146 1082 147 1088 q 165 1061 158 1074 q 194 1019 192 1023 q 198 1002 198 1010 q 196 983 198 994 q 220 964 206 975 q 242 934 232 956 q 244 926 244 928 q 243 923 244 926 q 233 899 233 900 q 242 888 233 896 l 250 888 l 262 895 l 275 865 l 293 865 q 313 829 298 850 q 341 781 335 790 q 370 738 370 745 q 360 713 370 730 l 390 699 l 395 703 l 398 703 q 410 685 408 690 q 421 667 418 667 l 440 659 q 466 630 444 659 q 503 578 492 597 q 528 546 518 553 q 550 534 528 545 q 616 462 583 500 q 614 453 614 456 q 618 444 614 450 q 625 442 622 442 q 648 457 630 442 q 676 481 665 472 q 689 504 680 486 l 705 518 q 726 555 715 543 q 783 623 739 573 q 794 648 787 627 q 809 667 795 652 q 829 694 821 680 q 854 734 843 720 l 863 755 l 896 804 l 914 844 q 949 897 947 894 q 950 920 949 898 q 966 950 951 924 q 995 992 988 976 q 1014 1043 999 1002 q 1028 1072 1021 1060 l 1039 1069 q 1057 1086 1046 1086 q 1074 1082 1063 1086 l 1074 1079 q 1145 1104 1103 1097 l 1145 1074 l 1141 1069 q 1129 1065 1133 1067 q 1092 1012 1120 1059 q 1050 970 1075 985 q 1038 947 1047 957 l 1043 925 q 1021 903 1027 908 q 991 864 1007 888 l 979 848 q 948 801 948 802 q 930 787 947 801 q 913 764 920 778 l 913 762 q 917 749 917 750 q 905 728 917 747 l 903 726 l 890 720 l 880 706 l 872 698 q 871 676 871 696 q 838 614 871 665 l 823 588 q 798 563 819 583 q 782 545 787 553 q 761 524 768 525 q 750 524 758 524 q 737 496 737 507 q 739 478 737 488 q 721 463 726 469 q 703 437 719 462 q 688 416 689 419 q 685 349 685 411 q 682 313 685 342 q 681 296 681 303 q 684 272 681 288 q 665 258 669 264 q 654 233 659 251 q 673 218 662 226 q 683 200 683 212 q 682 151 683 152 q 680 140 680 140 l 685 106 l 681 87 q 679 59 680 66 q 677 10 678 54 q 676 -7 676 1 q 687 -36 676 -14 q 688 -39 688 -37 q 689 -50 688 -43 q 688 -77 691 -57 q 686 -87 686 -87 q 692 -143 692 -141 q 685 -168 692 -151 q 672 -169 677 -168 q 640 -187 667 -169 q 590 -205 593 -203 q 570 -223 582 -210 q 549 -213 559 -223 l 559 -195 q 553 -175 553 -182 q 563 -113 553 -151 q 567 -94 567 -97 l 564 -41 q 570 -24 564 -39 l 580 -20 l 583 2 q 612 16 612 4 q 610 27 612 21 l 593 23 l 588 33 l 570 41 q 571 81 571 71 q 575 133 571 107 q 592 155 587 140 l 589 157 l 573 157 q 570 193 570 165 q 568 216 570 194 q 567 232 567 224 q 568 249 567 241 q 572 284 572 278 q 566 311 572 285 q 550 337 564 328 q 534 348 535 345 l 530 359 l 524 374 l 516 392 q 501 406 514 397 q 508 427 508 420 q 500 449 508 435 q 490 452 500 450 l 456 457 l 454 448 q 442 475 446 469 l 420 505 q 409 534 416 511 q 392 537 395 536 q 383 547 389 539 q 370 576 371 564 l 355 572 q 326 613 349 584 l 314 636 l 294 659 q 273 692 275 688 q 267 709 270 696 l 258 722 q 253 745 254 724 q 217 766 230 748 q 193 801 195 799 q 175 821 177 817 q 172 836 172 825 q 173 854 172 844 q 149 865 153 860 q 134 890 146 867 l 119 906 l 97 934 q 76 962 78 955 l 76 964 l 76 968 q 91 990 90 980 q 68 1004 76 1004 q 52 996 63 1004 q 17 1041 26 1021 l 17 1048 z "},"Z":{"ha":1163,"x_min":23,"x_max":1162,"o":"m 43 -165 l 43 -144 q 72 -109 55 -134 q 94 -84 84 -96 q 123 -70 99 -79 q 139 -50 139 -64 q 133 -33 139 -45 q 154 -9 150 -17 q 168 9 165 7 q 191 14 169 9 q 200 18 199 15 q 204 31 201 19 l 198 51 q 216 75 198 54 q 239 92 231 92 q 242 110 239 109 q 257 127 244 113 q 294 179 284 165 l 308 179 q 327 218 327 203 q 327 229 327 223 q 381 300 340 243 l 389 309 q 412 338 407 333 q 439 353 414 340 q 453 375 453 361 l 453 376 l 448 396 q 496 457 461 408 q 519 482 518 481 q 526 496 519 483 q 562 553 545 526 l 578 548 l 603 566 q 597 583 600 579 q 593 597 593 593 q 627 610 593 610 l 623 649 q 673 713 635 661 q 686 728 686 727 q 695 748 687 728 q 718 769 704 769 q 732 768 724 769 q 740 785 734 777 q 745 795 745 791 q 739 823 745 796 q 750 834 745 829 q 758 846 752 836 q 774 859 766 857 q 802 859 775 859 q 820 888 809 859 q 803 907 803 896 q 815 933 803 914 q 833 960 830 958 q 853 975 840 966 l 853 978 q 834 1012 843 1012 l 808 979 l 661 979 q 615 985 625 979 q 592 996 597 996 q 574 981 587 996 q 536 982 549 982 q 514 982 524 982 q 498 981 501 981 l 460 984 l 459 984 q 447 982 458 985 q 434 979 437 979 l 411 981 q 363 983 374 981 q 349 983 355 983 l 319 982 l 318 982 q 310 983 313 982 q 307 983 307 983 l 281 981 l 280 982 q 237 1001 244 1001 l 218 983 q 159 987 195 987 l 142 990 q 111 991 113 991 q 87 1002 102 994 l 87 1006 q 109 1020 97 1015 q 138 1043 117 1023 q 176 1063 167 1063 l 176 1063 l 212 1057 q 281 1048 248 1055 q 313 1044 304 1043 q 372 1040 370 1042 q 381 1033 372 1040 q 406 1027 389 1027 q 429 1034 410 1027 q 481 1039 466 1036 l 484 1037 l 484 1015 q 496 1013 493 1013 q 539 1022 500 1013 q 558 1025 545 1024 l 566 1034 l 633 1034 q 667 1010 648 1010 q 703 1028 682 1010 l 723 1025 l 730 1039 q 747 1038 742 1038 q 774 1040 754 1038 l 827 1042 l 846 1043 q 879 1032 854 1042 l 884 1040 l 895 1037 q 921 1044 906 1044 q 934 1046 923 1044 q 974 1048 951 1048 q 1005 1047 984 1048 l 1005 1038 l 1013 1038 l 1015 1017 q 1001 1005 1001 1007 q 990 985 994 993 q 956 941 985 977 q 924 901 926 904 q 909 892 920 897 l 903 898 q 875 877 890 884 q 865 861 865 873 q 867 844 865 854 l 852 820 l 862 813 l 766 687 l 749 696 q 735 670 735 680 q 738 654 735 664 l 723 630 l 710 635 q 715 619 715 623 q 695 588 715 609 q 668 556 673 565 l 633 497 l 622 488 q 602 456 609 462 q 586 437 593 448 q 563 432 570 437 q 545 414 545 420 q 547 408 545 411 q 556 390 556 395 q 532 351 556 376 q 519 338 521 340 l 513 321 q 480 277 509 309 q 472 278 475 278 q 452 267 465 278 l 455 241 q 398 165 447 233 q 373 148 390 153 l 380 126 q 357 102 365 117 q 288 5 304 20 q 267 22 275 22 q 259 16 263 22 q 262 4 261 7 q 265 -9 265 -4 q 256 -21 265 -13 l 264 -37 q 252 -58 254 -53 q 223 -108 227 -103 q 212 -126 214 -121 q 234 -149 227 -149 l 266 -153 l 299 -166 l 334 -137 q 368 -145 355 -144 q 384 -161 372 -161 q 397 -159 391 -161 q 429 -154 413 -155 q 453 -143 450 -143 q 461 -144 456 -143 q 477 -146 467 -144 q 512 -159 490 -148 q 538 -165 526 -165 q 559 -140 551 -165 q 564 -138 564 -138 l 596 -146 l 626 -144 l 649 -146 l 666 -144 q 695 -150 692 -150 q 731 -142 699 -150 q 737 -141 734 -141 q 774 -144 747 -141 q 801 -146 787 -146 q 836 -137 812 -146 l 867 -162 q 892 -134 892 -134 q 914 -155 895 -134 q 925 -161 920 -161 q 958 -142 937 -161 q 974 -134 966 -134 q 976 -134 974 -134 q 1000 -138 993 -138 q 1096 -111 1002 -138 l 1117 -106 q 1143 -94 1136 -94 l 1144 -94 l 1162 -96 l 1162 -126 q 1119 -172 1150 -134 l 1104 -177 q 1090 -191 1102 -176 q 1073 -193 1078 -193 l 1049 -193 l 1030 -194 q 1021 -192 1028 -194 q 979 -185 994 -185 q 956 -188 978 -185 l 932 -184 l 913 -188 l 882 -180 l 882 -180 q 857 -184 880 -180 q 835 -177 842 -177 q 820 -180 829 -177 l 816 -195 q 789 -191 798 -192 q 729 -190 785 -190 l 696 -187 q 631 -192 646 -191 l 620 -178 q 584 -187 604 -180 q 572 -189 581 -189 q 557 -188 566 -189 l 555 -183 l 553 -180 q 517 -191 522 -191 l 415 -194 l 402 -192 q 389 -197 402 -192 q 387 -198 387 -198 q 366 -178 376 -198 q 351 -163 358 -163 q 320 -197 349 -163 q 259 -195 286 -195 q 231 -194 238 -194 q 191 -199 217 -194 q 156 -202 169 -201 l 130 -203 l 111 -203 q 77 -194 103 -203 l 64 -198 l 50 -197 l 37 -198 q 23 -184 23 -198 q 43 -165 23 -171 z "},"[":{"ha":444,"x_min":137,"x_max":395,"o":"m 137 70 l 140 102 l 140 138 l 150 168 l 156 168 q 165 186 165 176 q 160 210 165 198 q 146 231 160 210 q 142 271 142 237 q 140 312 140 306 q 145 368 140 319 l 143 457 l 146 464 l 162 469 q 159 495 159 488 q 157 511 159 507 q 140 525 157 516 q 144 547 142 541 q 149 582 149 569 q 138 623 149 585 q 140 659 140 635 l 140 717 l 143 724 l 153 722 q 155 741 155 733 q 142 768 155 745 q 140 781 140 772 q 155 812 140 795 l 155 814 l 152 814 q 142 833 142 814 q 142 837 142 834 l 148 839 q 149 856 149 852 q 146 897 149 866 q 144 912 144 905 q 155 957 144 918 q 160 996 155 982 q 180 1017 163 1002 q 188 1050 184 1045 q 235 1072 200 1062 q 283 1090 279 1090 q 302 1088 291 1090 q 316 1101 311 1099 q 349 1107 327 1107 q 393 1063 393 1107 q 378 1019 393 1040 l 349 1034 q 340 1013 347 1021 q 322 1021 330 1015 q 307 1027 316 1027 l 305 1027 l 283 1023 q 264 1000 273 1004 q 243 995 258 996 q 237 975 239 979 q 230 922 232 956 l 224 907 q 229 868 229 882 l 229 859 l 229 825 q 229 764 229 797 q 224 740 229 749 l 219 729 q 218 724 218 726 q 224 707 218 722 q 227 668 227 698 l 225 635 l 225 633 l 229 621 q 223 598 223 604 q 224 592 223 595 q 229 562 229 564 q 225 535 229 562 q 224 522 224 528 q 225 508 224 517 q 214 490 214 496 q 225 473 214 485 q 221 404 221 439 q 220 338 220 359 q 173 320 173 338 q 183 304 173 311 q 218 290 184 304 q 222 283 222 288 q 217 239 222 281 q 210 208 210 212 q 220 157 210 204 l 220 85 q 223 47 223 62 q 208 14 208 32 q 218 -28 208 4 q 215 -54 215 -53 q 222 -102 215 -83 q 243 -131 225 -111 q 247 -121 246 -121 l 297 -125 q 307 -122 298 -125 q 323 -119 312 -120 q 346 -131 331 -128 l 346 -109 q 367 -104 361 -105 q 380 -102 375 -102 q 393 -107 385 -102 q 395 -120 395 -114 q 393 -128 395 -122 q 391 -142 391 -134 q 382 -178 388 -174 q 341 -195 374 -183 l 326 -196 l 321 -197 q 311 -191 317 -196 q 297 -200 301 -200 l 280 -201 l 262 -205 l 238 -201 q 219 -205 222 -205 q 182 -196 214 -205 q 170 -188 175 -194 q 150 -165 161 -173 q 151 -150 151 -156 q 142 -118 151 -145 l 149 -89 q 143 -64 143 -68 q 155 -26 143 -61 q 156 -17 156 -23 l 147 25 l 147 50 q 137 70 148 52 z "},"\\":{"ha":819,"x_min":-37,"x_max":983,"o":"m -37 863 q -8 880 -37 880 q 9 878 -1 880 q 38 873 33 873 q 66 865 58 871 q 90 846 72 862 l 90 842 q 80 827 80 833 q 85 818 80 825 l 100 823 l 102 820 l 100 806 q 114 799 113 801 l 132 766 l 165 726 q 202 674 193 686 q 202 666 202 669 q 233 629 202 642 l 252 606 q 287 564 278 577 q 311 513 304 540 l 326 513 l 328 515 l 365 477 l 365 452 q 388 446 382 447 q 402 435 402 444 q 395 416 402 429 q 428 399 419 404 q 452 370 432 396 q 496 319 479 343 q 503 311 500 313 q 517 301 517 301 l 516 290 l 522 282 l 528 273 q 552 256 549 259 q 582 220 554 254 l 606 192 q 612 172 610 175 q 635 162 616 165 q 739 54 661 125 l 741 37 l 752 34 l 819 -41 q 838 -60 820 -43 q 876 -114 862 -85 l 897 -111 q 944 -157 916 -135 l 954 -169 q 983 -200 970 -182 q 963 -206 976 -205 q 937 -209 944 -208 q 928 -210 932 -210 q 911 -205 926 -210 q 886 -200 899 -201 q 860 -176 877 -183 q 834 -136 853 -160 l 828 -121 q 810 -88 815 -102 l 793 -92 q 771 -66 788 -82 q 753 -44 760 -54 q 726 -12 741 -26 q 680 43 680 39 q 681 55 680 48 q 661 61 665 58 q 625 98 651 63 q 592 136 620 104 q 584 152 584 146 q 586 158 584 153 q 588 165 587 161 q 570 175 578 173 q 551 183 557 177 l 553 200 q 542 208 545 206 q 528 216 533 216 q 514 213 522 216 q 485 261 509 232 q 445 302 478 269 q 415 334 433 313 q 422 345 422 341 q 414 361 422 353 q 405 366 409 366 l 405 366 l 393 361 q 380 382 380 371 q 380 393 380 387 q 349 405 357 399 q 337 421 344 408 q 316 453 326 443 l 281 490 l 260 514 l 231 539 q 221 557 229 542 q 186 597 214 569 l 115 683 q 68 733 76 723 q 34 786 48 761 l 3 818 q -37 863 -24 850 z "},"]":{"ha":444,"x_min":46,"x_max":309,"o":"m 46 1030 q 58 1039 57 1036 q 55 1065 58 1040 q 55 1068 55 1067 q 60 1082 55 1075 q 81 1090 62 1083 q 111 1103 108 1103 l 127 1102 l 149 1102 l 168 1099 q 181 1106 172 1099 q 199 1101 195 1103 q 213 1097 210 1097 q 235 1103 215 1097 q 243 1104 240 1104 q 269 1092 254 1104 l 273 1076 l 287 1074 q 296 1009 292 1059 q 309 976 298 993 l 307 965 l 307 858 q 304 847 307 852 q 300 842 300 842 q 309 810 309 814 q 308 806 309 808 q 292 781 293 783 q 290 769 291 779 q 290 755 290 763 l 302 753 l 304 613 q 291 570 304 610 q 303 564 290 568 q 300 546 300 553 q 301 528 300 539 l 296 524 l 283 524 q 290 505 286 506 q 305 497 290 503 q 300 461 304 483 q 300 451 300 456 l 304 401 l 304 399 l 300 385 l 283 388 l 283 381 l 294 374 q 304 262 300 329 l 283 248 q 288 220 286 227 q 307 197 290 210 l 297 176 q 304 148 304 157 q 304 134 304 142 q 302 107 302 118 q 303 95 302 102 q 307 62 307 68 q 303 41 307 62 l 305 18 l 294 -24 l 294 -49 l 284 -69 q 280 -104 281 -101 q 269 -124 279 -106 q 261 -143 263 -140 q 239 -156 257 -147 q 212 -165 220 -165 q 199 -162 208 -165 q 186 -176 193 -165 q 170 -187 182 -183 q 139 -189 166 -188 l 119 -198 q 101 -163 104 -163 q 96 -166 99 -163 q 70 -208 81 -183 q 60 -202 62 -205 q 54 -186 58 -199 q 48 -165 48 -170 q 57 -140 48 -157 q 65 -119 62 -130 q 93 -126 83 -126 q 112 -123 96 -126 q 138 -122 136 -123 q 153 -104 144 -121 l 175 -108 l 191 -81 q 214 -76 206 -81 q 212 -56 212 -60 q 209 -36 209 -42 q 224 -5 209 -34 q 225 -2 225 -4 q 214 36 225 0 q 214 39 214 37 q 216 46 214 42 q 227 87 227 79 l 224 106 l 224 109 l 224 116 q 209 132 224 128 q 221 178 215 154 l 221 178 q 220 197 221 189 q 218 210 218 208 q 223 237 218 216 q 224 240 224 239 q 217 261 224 241 q 216 266 216 263 q 229 290 216 273 l 224 315 q 234 339 234 332 q 226 371 234 340 l 223 403 l 222 414 q 240 469 240 465 q 239 481 240 475 q 222 499 222 492 q 231 523 222 500 l 231 544 q 241 577 241 573 q 239 590 241 582 q 224 606 223 601 l 226 621 l 226 646 l 230 663 q 224 692 224 689 q 233 713 224 700 q 225 751 225 734 q 226 766 225 759 q 228 790 228 784 q 220 823 228 792 q 218 831 218 827 q 240 897 218 848 l 229 905 q 233 928 231 922 q 238 958 238 951 q 230 994 238 958 q 224 1037 230 1028 q 213 1044 220 1042 l 199 1047 l 180 1050 q 156 1067 158 1067 q 138 1023 146 1067 q 119 1022 128 1023 q 79 1009 108 1021 q 58 1004 68 1004 q 50 1008 51 1004 q 49 1019 48 1010 q 46 1030 49 1023 z "},"^":{"ha":797,"x_min":77,"x_max":729,"o":"m 77 696 q 102 737 86 709 q 124 770 123 766 q 126 794 126 778 q 150 817 144 812 q 169 841 165 832 q 177 872 170 842 q 187 890 180 885 q 213 898 194 897 l 218 924 l 238 938 l 240 964 l 259 979 q 258 988 258 984 q 262 1000 258 995 q 284 1013 262 1002 q 309 1053 298 1041 q 309 1061 309 1058 q 313 1080 309 1072 l 337 1088 q 334 1112 334 1105 q 351 1135 334 1126 q 379 1149 376 1146 q 399 1193 387 1166 q 435 1156 416 1169 l 431 1131 q 467 1074 457 1110 q 492 1060 488 1067 q 502 1021 497 1052 l 528 1004 q 533 987 532 991 q 543 964 538 966 q 583 945 549 957 l 576 890 q 596 887 591 888 q 625 876 620 884 q 633 848 633 865 q 638 817 633 829 l 665 810 l 663 781 l 690 774 q 715 730 698 760 q 729 701 726 712 l 699 684 l 661 700 q 640 684 649 684 q 598 718 631 684 q 576 738 577 736 q 572 747 574 739 q 569 773 570 754 l 541 779 q 532 797 535 793 q 517 836 517 822 q 518 847 517 840 l 492 857 q 480 899 487 888 q 452 924 477 903 q 439 940 441 932 q 437 964 439 943 q 426 979 436 972 l 419 983 q 408 989 416 984 l 406 1012 l 382 1022 l 378 1048 l 376 1048 q 353 1019 366 1028 q 332 1002 342 1012 l 338 966 l 310 956 q 306 937 307 942 q 290 891 298 895 q 262 886 284 886 q 262 867 262 875 q 256 844 262 852 q 231 825 254 840 q 215 798 215 816 q 216 783 215 791 l 190 772 q 151 694 179 722 q 141 688 144 688 q 115 698 140 688 q 104 700 109 700 q 77 696 92 700 z "},"_":{"ha":797,"x_min":15,"x_max":780,"o":"m 15 -313 l 30 -267 l 18 -238 q 44 -244 37 -244 l 77 -243 l 109 -244 l 142 -233 q 182 -243 172 -243 q 209 -240 203 -243 l 229 -231 q 230 -230 229 -230 q 266 -279 232 -230 l 287 -241 l 311 -245 l 332 -237 q 355 -243 354 -243 q 379 -232 361 -243 q 400 -247 393 -248 l 401 -247 l 420 -244 l 448 -243 q 466 -235 453 -243 q 489 -249 481 -249 q 501 -243 492 -249 q 527 -229 518 -234 q 577 -254 545 -254 q 603 -252 589 -254 q 642 -237 606 -252 q 665 -240 663 -240 q 686 -235 669 -240 q 688 -235 686 -235 q 710 -251 694 -235 q 739 -243 732 -243 q 780 -251 741 -243 q 773 -273 776 -268 q 769 -286 769 -282 q 772 -295 769 -288 q 778 -312 774 -300 q 757 -274 770 -274 q 720 -328 751 -274 q 703 -300 706 -307 q 675 -267 684 -267 q 662 -283 669 -267 q 644 -324 644 -324 q 616 -321 621 -324 q 591 -302 610 -320 l 557 -323 l 535 -305 l 506 -326 q 451 -319 489 -321 q 405 -307 439 -319 l 396 -326 l 340 -309 l 328 -329 l 278 -302 q 237 -317 256 -317 q 199 -304 220 -317 l 180 -323 q 161 -321 165 -321 q 133 -319 136 -319 q 112 -307 130 -320 l 77 -323 q 57 -310 65 -310 q 33 -313 52 -310 q 15 -313 26 -313 z "},"`":{"ha":567,"x_min":165,"x_max":343,"o":"m 165 793 q 186 802 180 802 q 215 796 187 802 q 271 792 262 794 q 296 777 282 789 l 284 764 q 289 746 288 750 q 303 714 294 729 q 328 677 317 688 l 324 653 l 343 643 q 320 619 334 619 q 311 621 315 619 q 297 625 299 625 q 292 624 296 625 q 256 682 281 661 q 231 714 236 710 q 210 723 224 719 q 193 753 197 749 q 165 793 174 773 z "},"a":{"ha":708,"x_min":60,"x_max":620,"o":"m 212 243 q 227 261 220 256 q 268 272 233 264 q 302 288 294 285 q 343 292 309 289 l 365 300 l 378 301 l 390 302 l 416 302 l 470 309 q 500 315 494 311 q 512 341 512 324 q 507 363 512 345 l 542 407 q 500 420 542 408 q 479 422 496 422 q 445 463 450 459 q 393 473 438 466 l 372 473 q 352 477 357 477 q 336 475 347 477 l 323 492 q 300 477 309 486 q 279 464 294 469 q 221 431 244 449 l 212 425 q 200 410 203 412 q 181 406 192 406 q 156 413 177 406 q 127 422 133 418 q 112 439 121 426 q 128 452 123 448 q 144 463 140 462 l 176 470 l 196 481 l 239 494 l 267 506 l 294 506 l 325 515 l 338 515 l 361 519 q 404 519 395 519 q 440 509 413 518 l 456 507 q 494 500 483 503 q 518 486 503 500 q 507 469 507 475 q 515 459 507 459 q 530 465 520 459 q 549 471 537 467 q 559 448 558 462 l 576 435 q 577 426 577 428 l 575 399 q 590 362 583 370 l 593 362 q 598 330 595 347 q 601 277 600 290 q 585 259 585 268 q 604 241 585 249 q 604 226 604 232 q 602 202 604 220 q 601 187 601 195 q 608 132 601 165 q 596 107 596 119 q 608 81 596 97 q 612 68 609 78 q 620 50 614 63 q 609 33 612 41 q 588 22 604 28 l 562 10 l 546 5 q 518 -3 521 -3 q 503 4 511 -3 l 513 50 q 456 28 494 45 l 437 24 q 418 20 419 20 l 393 23 l 368 10 l 355 9 l 300 -3 l 271 -1 q 243 -8 250 -8 q 190 1 233 -8 l 161 3 l 140 12 q 105 30 117 21 q 89 56 95 37 l 73 61 q 67 85 71 68 l 60 115 l 60 115 q 69 135 60 121 q 88 170 77 145 q 132 212 121 202 q 175 233 142 219 q 199 245 194 245 q 212 243 204 245 m 170 100 q 159 81 164 91 q 153 65 152 69 l 153 65 l 159 52 l 178 68 q 210 51 201 52 q 237 43 235 44 q 249 29 241 41 q 270 26 264 27 q 279 26 275 26 q 297 35 286 26 q 313 28 307 28 q 328 37 315 28 l 347 33 q 384 46 347 33 l 401 54 l 416 52 l 442 62 l 472 74 q 486 94 484 92 q 510 105 492 100 l 514 127 q 529 146 526 134 q 515 160 519 153 q 516 177 516 172 l 516 188 q 515 219 515 206 q 514 227 514 223 q 519 250 514 235 q 504 258 513 251 l 475 258 l 448 259 l 428 258 l 415 258 q 395 269 412 258 l 380 264 q 340 260 353 264 q 326 257 332 257 q 311 261 325 257 q 309 261 310 261 q 288 249 306 261 q 252 235 285 247 q 190 199 209 216 q 175 179 188 197 q 151 168 171 173 q 149 160 149 163 q 154 152 149 158 l 159 115 q 170 100 160 111 z "},"b":{"ha":788,"x_min":80,"x_max":718,"o":"m 82 47 q 110 66 103 59 q 122 90 113 68 q 133 109 133 106 q 130 127 133 115 q 127 150 127 138 q 154 190 127 188 l 158 215 l 132 227 l 136 338 l 133 356 l 148 360 l 151 375 q 134 391 134 382 q 136 411 134 397 q 136 421 136 416 q 129 462 136 425 l 163 497 l 127 540 q 128 542 127 540 q 144 566 144 554 q 129 589 144 576 q 127 668 128 606 q 126 681 127 676 q 125 685 125 684 q 128 691 125 690 l 178 709 l 124 726 l 126 738 l 125 755 l 129 794 q 123 838 123 832 q 139 871 123 853 q 128 895 138 879 q 125 905 125 900 q 127 918 125 910 q 148 941 148 925 q 142 955 148 946 l 125 958 q 121 973 123 970 q 116 987 116 983 q 163 1011 116 990 l 163 1033 l 178 1054 q 161 1064 178 1058 q 151 1067 156 1065 q 105 1080 135 1071 l 105 1090 q 119 1101 116 1099 q 144 1119 139 1118 l 172 1126 q 208 1140 199 1140 q 229 1131 220 1140 q 226 1109 229 1114 q 216 1081 216 1084 q 227 1059 216 1080 q 228 1057 228 1057 q 202 1034 228 1055 l 195 1003 l 165 981 q 212 924 205 933 q 219 909 219 916 q 218 899 219 905 q 205 869 205 882 q 207 861 205 863 q 222 825 222 840 q 221 811 222 819 q 217 786 217 791 l 218 758 q 216 748 218 756 q 218 729 217 734 l 219 715 q 220 703 220 706 q 222 692 222 695 q 216 680 222 688 q 191 665 201 674 l 193 663 q 196 637 193 645 q 218 621 198 630 q 216 608 216 610 q 219 576 216 599 q 218 551 222 558 q 208 532 218 549 q 201 507 201 519 q 216 498 201 498 q 235 491 233 491 q 258 510 244 491 q 269 507 267 507 q 317 517 270 507 q 369 535 351 531 q 393 521 382 521 q 410 524 400 521 l 412 538 q 429 534 423 534 l 460 534 l 478 525 q 486 526 484 526 q 570 512 539 526 q 600 470 590 503 q 618 477 612 470 q 628 481 623 481 q 644 468 633 481 q 665 448 663 450 q 667 437 665 448 q 696 403 669 426 q 716 331 700 372 q 718 297 718 325 q 708 260 718 277 q 703 252 705 256 q 692 235 699 246 l 680 235 q 671 222 671 225 l 672 174 q 663 163 672 173 q 634 127 659 159 q 604 104 627 117 l 584 85 l 559 64 q 529 39 537 43 q 448 9 477 17 l 431 4 l 418 3 q 374 -5 382 -5 q 346 5 355 -5 l 328 26 l 301 4 q 227 24 229 24 q 199 26 226 24 q 159 36 186 26 q 153 37 155 37 q 97 16 144 37 q 91 14 92 14 q 81 26 83 14 q 80 29 80 28 l 82 47 m 280 54 q 297 55 290 55 q 317 47 302 55 q 339 41 332 40 l 374 43 l 399 43 l 417 42 q 471 58 417 42 q 526 84 504 68 q 555 117 531 87 l 573 135 q 581 153 574 136 q 593 176 583 161 q 611 220 608 199 q 614 243 613 240 q 617 253 617 252 l 615 271 l 669 295 q 659 325 669 295 q 656 355 658 329 q 652 369 656 365 q 627 380 649 371 q 608 408 612 404 q 583 422 604 411 l 568 431 l 549 441 l 531 450 l 496 463 l 479 471 q 443 474 458 471 q 399 477 433 475 q 341 486 379 479 q 340 486 340 486 q 336 485 338 486 q 335 485 335 485 q 332 486 334 485 l 316 483 q 291 480 294 481 q 265 464 289 479 q 220 443 249 458 q 201 435 214 440 q 172 401 172 421 q 177 385 172 391 l 196 360 l 203 326 q 219 291 219 300 q 205 257 219 284 q 203 254 203 255 q 208 235 203 253 l 210 219 l 220 195 q 216 162 216 168 l 220 123 l 220 91 l 220 82 q 201 58 219 76 q 199 52 199 56 q 215 34 199 45 l 256 67 q 275 52 269 52 q 280 54 276 52 z "},"c":{"ha":648,"x_min":66,"x_max":616,"o":"m 73 283 q 103 344 82 298 q 122 374 117 372 q 146 395 134 384 l 162 412 l 184 431 l 214 460 l 231 470 l 247 481 l 262 488 l 281 503 l 317 515 q 359 528 351 527 q 387 532 375 530 q 407 518 401 519 q 441 528 408 518 q 446 528 444 528 q 475 521 446 528 q 487 519 479 520 q 505 517 499 519 q 540 527 536 527 q 565 518 553 527 q 555 496 562 501 q 533 485 549 490 l 529 467 q 500 450 507 456 q 488 444 492 444 q 478 445 488 444 q 475 445 476 445 l 451 444 l 450 444 l 431 446 l 414 448 q 376 456 391 455 q 361 457 371 456 q 340 458 349 458 q 290 450 335 458 q 259 444 267 448 q 230 418 252 439 q 206 409 224 412 q 199 389 204 393 q 174 380 192 383 q 176 367 176 373 q 157 338 176 364 q 152 255 152 330 q 169 195 152 239 q 157 167 158 176 q 180 159 161 163 q 218 103 210 121 l 235 101 q 248 85 245 87 l 274 68 l 292 54 q 324 43 318 44 q 355 40 328 41 l 380 35 l 404 33 l 422 31 q 467 47 435 33 l 479 43 q 490 51 488 49 q 516 69 496 54 q 547 83 534 71 q 570 102 557 94 q 582 112 576 105 q 606 131 598 131 q 616 124 611 131 q 610 77 610 96 q 587 50 596 64 q 547 28 572 45 q 527 20 536 26 q 505 11 514 11 l 482 12 l 481 12 q 439 3 446 5 q 420 -9 437 2 q 414 -12 417 -12 l 346 -11 q 326 -13 342 -11 q 296 -1 310 -2 q 241 12 277 1 l 224 14 l 205 20 q 183 25 187 24 q 172 33 178 27 q 137 74 137 68 q 139 87 137 79 q 138 89 138 89 l 115 85 q 114 86 115 85 q 96 118 102 111 q 85 143 85 134 q 82 168 84 147 l 82 170 l 85 189 q 66 208 66 202 q 98 228 66 210 q 116 258 116 238 q 73 283 116 278 z "},"d":{"ha":779,"x_min":68,"x_max":699,"o":"m 140 372 l 164 367 l 169 372 l 162 407 q 180 418 176 416 q 218 456 182 419 l 237 469 q 258 481 250 481 q 281 477 264 481 l 291 470 q 321 486 304 479 l 321 503 q 353 517 327 508 l 384 528 l 407 530 q 426 535 423 535 q 442 528 431 535 q 468 511 462 514 l 481 528 q 509 521 502 522 q 556 511 553 513 l 572 501 q 580 499 575 499 q 605 511 590 499 q 595 526 595 523 l 591 568 l 587 581 q 629 613 629 610 q 604 643 629 618 q 589 701 589 660 l 606 710 q 597 736 600 720 q 587 779 587 767 l 585 798 q 586 850 585 818 q 591 882 586 861 l 584 921 q 588 934 584 924 l 600 941 q 593 951 595 953 q 574 956 590 956 l 570 958 l 568 959 l 623 995 l 609 1012 l 604 1044 q 582 1062 603 1055 q 549 1078 549 1074 q 557 1089 549 1082 q 607 1103 562 1094 q 672 1128 620 1121 q 677 1097 677 1118 l 679 1084 l 679 1083 q 674 1053 679 1082 l 674 1034 l 673 1022 l 673 994 l 673 974 l 673 945 q 670 932 673 940 q 664 911 664 912 l 667 861 l 653 836 q 670 795 659 813 l 664 770 l 667 751 q 662 732 662 735 q 667 703 662 721 q 668 690 668 695 q 664 678 668 685 l 649 675 q 642 652 642 660 q 642 642 642 648 q 667 616 665 628 q 663 576 667 614 q 663 570 663 572 q 665 531 663 551 q 667 519 667 524 q 666 515 667 517 q 665 503 665 503 l 665 486 q 656 469 656 471 q 658 433 656 469 l 659 421 l 660 381 l 665 336 l 665 321 l 668 290 l 666 256 l 676 197 l 675 171 q 686 121 685 133 q 687 92 686 106 q 699 70 699 81 q 699 61 699 66 q 650 53 690 57 q 600 44 620 46 l 591 52 q 559 36 573 40 q 502 24 553 34 q 397 6 429 6 q 336 -1 349 -1 q 239 7 274 -1 l 227 27 q 201 16 207 16 q 194 24 197 16 q 191 37 193 26 q 184 47 191 41 q 163 41 171 41 q 146 48 154 41 q 107 79 119 71 q 109 97 109 90 q 97 121 109 111 q 81 137 81 135 l 79 150 q 68 203 68 199 q 73 231 68 215 q 76 262 76 241 l 87 283 q 119 355 113 349 q 140 372 125 361 m 178 151 q 195 138 193 142 l 201 123 q 223 92 218 99 q 250 68 228 86 l 267 52 l 285 42 q 309 25 307 25 q 329 60 321 25 q 372 45 353 45 l 431 47 l 458 47 l 518 61 q 559 73 553 67 q 587 109 576 98 q 582 123 581 120 l 585 141 l 585 194 l 586 237 q 581 270 582 256 l 604 279 q 600 298 600 290 q 600 311 600 303 l 585 315 l 627 349 l 586 396 l 587 410 q 582 418 587 412 l 582 441 q 566 446 570 446 q 546 438 564 446 q 538 437 545 437 q 510 444 517 437 l 486 466 l 440 480 l 414 498 q 384 462 386 463 l 381 462 l 376 462 q 342 452 366 462 l 324 453 q 286 428 308 453 l 263 431 q 248 415 252 418 l 225 402 q 200 360 199 379 q 168 328 180 347 q 150 300 150 300 q 146 267 146 292 q 151 241 146 257 l 154 226 l 160 209 l 166 191 q 179 164 179 170 q 178 151 179 158 z "},"e":{"ha":715,"x_min":68,"x_max":648,"o":"m 479 505 l 500 518 q 515 503 511 506 q 529 496 516 501 q 587 439 536 492 q 610 407 604 422 q 621 376 615 394 q 631 351 625 366 l 626 347 q 606 353 618 348 l 580 343 l 557 347 l 536 342 q 492 372 494 372 q 460 344 488 372 q 414 352 417 352 q 389 350 404 352 l 385 353 q 326 351 374 351 l 301 349 l 270 346 l 238 340 l 210 341 q 156 327 170 329 q 149 295 153 304 q 133 273 145 285 q 156 252 155 258 q 169 193 163 208 l 181 186 l 178 161 l 199 156 q 216 119 205 128 q 250 106 227 110 q 261 81 254 85 q 286 76 267 77 l 297 58 q 310 60 304 60 q 351 43 314 60 q 368 39 359 39 q 403 47 377 39 l 446 52 l 479 61 q 511 65 503 62 q 553 89 523 70 q 588 114 583 107 q 611 146 600 128 q 630 155 616 155 q 648 146 636 155 q 639 114 643 121 q 603 50 610 66 q 588 54 594 54 q 566 41 584 54 q 535 31 553 33 q 477 18 493 20 q 441 13 449 15 q 420 6 420 6 l 380 12 l 356 8 l 345 7 q 319 5 328 5 q 270 10 311 5 q 257 12 257 12 l 243 20 q 186 39 192 36 q 163 59 183 41 q 140 74 162 60 q 119 92 121 85 l 107 113 q 84 139 104 119 q 91 155 91 150 q 73 193 91 157 q 68 251 68 203 q 78 300 68 266 q 90 330 86 326 l 113 357 l 127 389 q 180 438 151 411 l 230 469 l 280 503 l 298 507 l 350 523 l 383 526 q 427 541 423 541 q 479 505 465 541 m 400 403 l 412 389 q 430 392 425 391 q 467 401 448 395 l 505 398 q 509 405 506 398 q 509 412 509 409 q 501 427 509 418 q 494 435 500 428 q 474 455 478 456 l 452 466 q 439 481 448 468 q 372 484 419 484 l 358 485 l 335 471 q 298 462 334 470 q 248 442 269 452 q 221 419 243 439 q 205 407 217 416 l 205 403 l 207 401 l 256 382 l 271 367 l 298 399 q 305 401 301 401 q 338 393 307 401 q 340 393 339 393 q 378 399 349 393 q 400 403 385 401 z "},"f":{"ha":484,"x_min":8,"x_max":511,"o":"m 97 502 l 125 519 q 127 549 125 531 l 127 617 q 140 661 127 635 q 123 678 127 671 q 121 748 121 680 l 120 797 l 119 830 q 130 859 119 843 q 148 892 148 888 q 147 902 148 897 l 137 907 q 182 1004 141 951 q 212 1040 195 1025 q 255 1076 241 1065 q 319 1112 267 1084 l 333 1122 l 353 1124 q 391 1133 389 1133 q 412 1127 393 1133 q 421 1126 416 1126 q 432 1127 426 1126 q 448 1129 445 1129 q 494 1107 475 1129 l 511 1107 q 507 1092 511 1096 q 492 1074 506 1090 q 478 1057 481 1059 q 441 1038 467 1048 q 396 1064 427 1046 q 350 1079 371 1079 q 289 1058 330 1079 q 264 1036 272 1049 q 227 950 245 1006 l 220 935 l 210 898 q 198 872 198 877 q 212 861 198 865 q 207 833 207 848 q 206 802 207 827 l 207 751 q 194 721 206 746 q 193 708 193 718 q 204 676 193 697 q 208 575 208 670 q 187 545 208 564 l 187 539 q 203 530 193 533 q 218 494 215 526 q 242 474 235 476 l 272 466 l 311 455 l 359 473 l 409 484 q 445 504 436 503 q 471 507 450 505 q 485 481 484 492 q 437 451 446 458 q 417 431 429 445 q 408 426 413 426 q 385 431 401 426 q 359 435 373 435 q 322 431 349 435 q 300 429 309 429 q 260 433 283 429 q 228 439 233 439 q 214 432 221 439 q 208 418 206 424 l 214 388 q 218 321 218 321 q 214 312 218 318 q 200 297 200 307 q 215 273 200 284 q 217 250 216 255 q 227 161 222 184 l 220 155 l 209 157 l 197 146 q 209 132 205 136 q 220 113 221 118 l 220 113 l 218 91 l 218 89 q 223 56 218 82 l 213 51 l 213 35 q 161 13 193 28 q 135 7 157 10 l 135 11 q 121 5 126 5 q 107 12 117 5 q 113 37 111 22 l 115 53 l 119 73 q 129 117 129 104 q 128 155 129 123 q 143 177 143 166 q 138 208 143 188 q 131 244 131 235 l 132 266 l 132 382 q 138 408 132 406 q 163 418 157 414 l 163 428 l 157 434 q 145 432 151 432 q 136 435 138 432 l 113 466 l 79 471 q 63 475 64 475 q 12 438 46 475 q 8 448 8 443 q 33 486 8 452 q 62 507 48 507 q 97 502 70 507 z "},"g":{"ha":718,"x_min":-32,"x_max":734,"o":"m -4 -223 q 22 -208 12 -220 q 48 -185 37 -191 q 104 -161 90 -168 q 112 -176 112 -170 q 106 -190 112 -184 q 82 -208 104 -192 q 71 -222 78 -211 q 59 -257 59 -240 q 60 -270 59 -261 q 43 -287 43 -277 q 50 -298 43 -296 q 56 -299 52 -299 q 71 -303 61 -300 q 94 -332 75 -319 q 135 -356 120 -351 l 146 -374 q 195 -383 184 -383 q 209 -381 200 -383 q 215 -380 212 -380 q 245 -412 219 -380 l 252 -399 q 258 -385 254 -385 l 353 -389 q 362 -386 355 -389 q 384 -380 369 -383 q 469 -361 451 -368 q 515 -344 511 -345 q 543 -342 522 -342 q 555 -325 548 -336 q 594 -300 557 -322 q 618 -284 608 -289 q 628 -269 621 -275 q 639 -254 640 -259 l 635 -229 q 645 -193 644 -208 q 647 -181 646 -184 q 653 -162 653 -165 q 639 -151 653 -155 q 620 -104 631 -117 q 610 -86 610 -92 q 612 -73 610 -80 q 516 -39 575 -48 l 515 -39 q 504 -39 507 -39 q 500 -40 500 -40 q 475 -35 497 -40 q 463 -33 469 -33 q 441 -35 454 -33 q 423 -37 431 -37 q 399 -25 419 -37 q 396 -24 397 -24 q 367 -37 392 -24 l 351 -39 l 324 -44 l 289 -8 l 267 -43 q 254 -37 267 -43 q 242 -35 248 -35 q 230 -35 237 -35 q 205 -51 219 -51 q 172 -44 199 -51 q 130 -27 150 -39 q 95 3 98 -8 q 91 24 94 7 q 85 47 85 45 q 106 83 85 62 q 136 112 130 106 q 161 127 143 117 l 179 138 q 211 143 206 141 q 230 156 216 145 l 230 159 q 215 163 221 163 q 194 161 205 163 q 182 160 187 160 q 140 176 169 160 q 132 184 134 180 q 127 203 132 184 q 113 215 125 211 q 96 220 96 220 l 86 236 q 73 260 73 254 q 77 291 73 262 q 80 328 78 323 q 92 345 81 330 q 96 357 96 351 q 90 379 96 364 q 125 419 102 390 q 159 444 133 429 l 193 477 q 208 484 199 482 q 221 488 218 486 q 227 496 223 489 q 302 515 241 498 l 326 517 q 357 522 349 522 q 406 516 363 522 q 450 515 435 516 q 488 538 465 529 q 504 543 500 543 q 529 539 512 543 q 552 536 541 536 q 597 540 569 536 l 598 540 q 622 525 604 540 q 635 541 635 527 q 634 550 635 545 q 678 572 656 562 q 690 574 680 573 q 707 578 696 574 q 711 568 711 572 q 661 514 711 535 q 656 497 659 502 q 639 482 652 492 q 612 469 624 471 q 585 465 593 465 q 579 467 580 465 l 557 496 q 553 499 555 499 q 528 467 540 499 q 541 454 538 456 q 562 434 559 438 q 568 417 565 430 l 580 408 l 580 387 l 582 384 l 560 373 l 560 364 q 573 348 573 355 q 543 299 573 330 l 526 279 l 491 252 l 481 235 q 463 222 478 231 l 451 214 q 397 189 424 196 q 352 176 361 177 q 321 170 336 174 q 321 155 321 161 q 313 136 321 146 q 272 134 282 136 q 229 119 262 132 q 173 104 182 109 q 138 73 146 90 q 135 65 135 66 q 185 48 139 56 q 205 26 199 40 q 233 31 222 31 l 272 26 l 273 26 q 292 28 284 26 q 300 29 300 29 q 330 -4 307 28 q 342 -13 336 -13 q 349 -8 346 -13 q 366 24 362 20 q 413 41 392 41 l 437 39 l 437 39 l 469 41 l 469 41 q 485 23 477 41 l 494 23 l 505 40 q 524 41 515 41 q 554 36 530 41 l 574 35 l 593 25 q 653 3 640 10 q 652 -6 652 -2 q 666 -28 652 -12 l 688 -24 q 711 -42 707 -33 q 715 -58 711 -44 l 724 -84 l 728 -113 l 734 -137 q 728 -169 734 -138 q 710 -221 724 -191 q 686 -252 705 -233 l 673 -277 q 662 -294 665 -290 q 651 -298 661 -298 q 638 -313 644 -309 q 615 -326 636 -315 q 591 -349 599 -345 q 548 -371 576 -355 l 508 -387 l 489 -398 l 463 -405 l 441 -415 l 431 -416 l 410 -420 l 359 -424 q 298 -441 307 -441 l 260 -438 l 259 -438 q 240 -437 241 -438 q 227 -407 239 -436 l 212 -436 l 184 -410 l 157 -437 l 155 -436 l 144 -431 q 123 -416 127 -418 q 90 -414 119 -416 q 75 -410 78 -414 l 59 -400 l 39 -388 l 24 -375 q -2 -362 1 -364 q -20 -334 -8 -359 q -32 -288 -32 -309 q -18 -245 -32 -275 q -4 -223 -11 -230 m 184 292 q 182 275 182 282 q 191 256 182 262 q 214 250 195 254 q 241 226 237 228 q 308 215 261 215 q 341 222 318 215 l 357 222 l 406 243 q 426 244 410 244 q 463 276 438 259 q 471 284 469 280 q 477 304 472 285 q 486 330 486 325 q 484 377 486 351 q 454 421 481 401 q 432 448 444 429 q 418 458 427 455 q 391 465 415 460 l 380 471 l 362 477 l 356 479 l 324 470 q 300 473 303 473 q 262 463 291 473 l 243 460 q 227 450 238 459 q 214 444 218 449 q 191 420 202 433 q 171 398 174 403 q 165 371 168 393 q 161 326 161 348 q 163 310 161 315 q 184 292 168 302 z "},"h":{"ha":711,"x_min":80,"x_max":625,"o":"m 80 1086 q 108 1109 86 1098 l 153 1132 q 189 1141 171 1141 q 205 1135 195 1141 q 168 1116 172 1121 l 142 1089 l 195 1040 q 198 1026 198 1036 q 191 1004 198 1021 q 184 991 184 991 l 173 985 q 168 977 171 984 q 164 965 164 969 q 167 949 164 958 q 184 955 174 949 q 197 960 191 958 l 191 841 q 192 823 191 836 q 193 808 193 814 q 177 777 193 793 q 180 759 177 762 l 193 745 q 197 728 197 740 q 189 694 197 723 l 193 668 q 197 629 197 631 q 189 606 197 627 l 194 578 l 193 564 q 197 543 197 543 q 195 534 197 539 q 187 463 187 498 q 194 433 187 449 q 281 503 231 454 l 310 498 q 345 512 326 508 q 382 518 376 518 q 400 508 390 518 l 404 493 l 420 493 q 431 509 425 498 q 439 515 434 515 l 480 512 q 546 505 541 508 q 568 479 547 504 q 597 460 576 470 l 587 440 q 611 434 596 434 q 625 397 625 416 q 623 351 625 376 q 614 319 621 328 q 606 311 610 315 l 616 285 l 602 269 l 600 262 l 618 243 q 615 231 615 234 l 616 214 l 618 174 l 618 166 q 606 142 606 146 q 615 95 606 138 l 614 37 q 614 28 614 36 q 576 16 599 18 q 553 2 565 7 q 527 -9 538 -3 l 503 12 q 517 50 508 29 q 529 102 529 75 q 519 134 529 108 l 522 142 l 526 168 q 538 224 534 189 l 527 231 q 534 311 527 254 q 535 319 535 316 q 535 324 535 321 q 530 357 530 356 q 533 363 530 357 q 536 372 536 369 l 536 373 q 526 395 536 376 q 510 414 521 408 q 487 422 507 417 q 455 437 460 435 q 427 437 452 437 q 382 443 389 443 q 368 442 376 443 q 335 440 339 440 q 280 433 310 439 l 271 431 l 232 410 l 208 402 q 159 353 159 358 q 203 326 159 336 q 200 308 201 312 q 193 233 196 288 q 174 228 179 233 l 174 224 q 195 189 191 203 q 202 131 201 171 l 205 109 l 199 79 l 203 61 l 203 50 l 203 37 q 196 24 203 33 q 153 9 195 22 q 121 -15 142 5 l 105 -1 q 115 50 106 19 l 115 69 q 124 88 115 71 q 129 104 129 96 q 125 115 129 109 q 117 132 117 130 l 117 133 l 119 168 l 119 153 l 119 199 q 120 210 119 203 q 121 218 121 217 l 119 243 l 123 294 l 121 334 q 123 347 122 340 q 141 364 124 349 q 145 375 145 368 q 143 397 145 385 l 127 392 q 119 465 119 424 q 122 581 119 517 l 145 583 q 134 615 137 598 l 118 626 q 121 655 121 646 q 119 677 121 665 q 112 745 112 725 q 125 771 112 761 q 157 798 157 795 q 157 798 157 798 q 109 814 142 812 q 113 840 111 825 q 121 867 121 863 q 106 888 121 877 q 107 915 107 905 q 106 939 107 928 q 105 970 105 962 q 109 999 105 974 q 93 1057 93 1050 q 94 1073 93 1064 l 80 1086 z "}}}
